<svg xmlns="http://www.w3.org/2000/svg" xmlns:xlink="http://www.w3.org/1999/xlink" contentStyleType="text/css" height="888px" preserveAspectRatio="none" style="width:5851px;height:888px;background:#FFFFFF;" version="1.1" viewBox="0 0 5851 888" width="5851px" zoomAndPan="magnify"><defs/><g><!--cluster SubRecommend--><g id="cluster_SubRecommend"><path d="M8.5,6 L136.5,6 A3.75,3.75 0 0 1 139,8.5 L146,28.2969 L5841.5,28.2969 A2.5,2.5 0 0 1 5844,30.7969 L5844,879.06 A2.5,2.5 0 0 1 5841.5,881.56 L8.5,881.56 A2.5,2.5 0 0 1 6,879.06 L6,8.5 A2.5,2.5 0 0 1 8.5,6 " fill="none" style="stroke:#000000;stroke-width:1.5;"/><line style="stroke:#000000;stroke-width:1.5;" x1="6" x2="146" y1="28.2969" y2="28.2969"/><text fill="#000000" font-family="sans-serif" font-size="14" font-weight="bold" lengthAdjust="spacing" textLength="127" x="10" y="20.9951">SubRecommend</text></g><!--cluster biz--><g id="cluster_biz"><path d="M32.5,49 L56.5,49 A3.75,3.75 0 0 1 59,51.5 L66,71.2969 L2278.5,71.2969 A2.5,2.5 0 0 1 2281,73.7969 L2281,635.17 A2.5,2.5 0 0 1 2278.5,637.67 L32.5,637.67 A2.5,2.5 0 0 1 30,635.17 L30,51.5 A2.5,2.5 0 0 1 32.5,49 " fill="none" style="stroke:#000000;stroke-width:1.5;"/><line style="stroke:#000000;stroke-width:1.5;" x1="30" x2="66" y1="71.2969" y2="71.2969"/><text fill="#000000" font-family="sans-serif" font-size="14" font-weight="bold" lengthAdjust="spacing" textLength="23" x="34" y="63.9951">biz</text></g><!--cluster usecase--><g id="cluster_usecase"><path d="M56.5,92 L123.5,92 A3.75,3.75 0 0 1 126,94.5 L133,114.2969 L1243.5,114.2969 A2.5,2.5 0 0 1 1246,116.7969 L1246,611.17 A2.5,2.5 0 0 1 1243.5,613.67 L56.5,613.67 A2.5,2.5 0 0 1 54,611.17 L54,94.5 A2.5,2.5 0 0 1 56.5,92 " fill="none" style="stroke:#000000;stroke-width:1.5;"/><line style="stroke:#000000;stroke-width:1.5;" x1="54" x2="133" y1="114.2969" y2="114.2969"/><text fill="#000000" font-family="sans-serif" font-size="14" font-weight="bold" lengthAdjust="spacing" textLength="66" x="58" y="106.9951">usecase</text></g><!--cluster inport--><g id="cluster_inport"><path d="M664.5,135 L712.5,135 A3.75,3.75 0 0 1 715,137.5 L722,157.2969 L1219.5,157.2969 A2.5,2.5 0 0 1 1222,159.7969 L1222,264.09 A2.5,2.5 0 0 1 1219.5,266.59 L664.5,266.59 A2.5,2.5 0 0 1 662,264.09 L662,137.5 A2.5,2.5 0 0 1 664.5,135 " fill="none" style="stroke:#000000;stroke-width:1.5;"/><line style="stroke:#000000;stroke-width:1.5;" x1="662" x2="722" y1="157.2969" y2="157.2969"/><text fill="#000000" font-family="sans-serif" font-size="14" font-weight="bold" lengthAdjust="spacing" textLength="47" x="666" y="149.9951">inport</text></g><!--cluster outport--><g id="cluster_outport"><path d="M89.5,441.78 L149.5,441.78 A3.75,3.75 0 0 1 152,444.28 L159,464.0769 L626.5,464.0769 A2.5,2.5 0 0 1 629,466.5769 L629,587.17 A2.5,2.5 0 0 1 626.5,589.67 L89.5,589.67 A2.5,2.5 0 0 1 87,587.17 L87,444.28 A2.5,2.5 0 0 1 89.5,441.78 " fill="none" style="stroke:#000000;stroke-width:1.5;"/><line style="stroke:#000000;stroke-width:1.5;" x1="87" x2="159" y1="464.0769" y2="464.0769"/><text fill="#000000" font-family="sans-serif" font-size="14" font-weight="bold" lengthAdjust="spacing" textLength="59" x="91" y="456.7751">outport</text></g><!--cluster service--><g id="cluster_service"><path d="M80.5,135 L139.5,135 A3.75,3.75 0 0 1 142,137.5 L149,157.2969 L635.5,157.2969 A2.5,2.5 0 0 1 638,159.7969 L638,264.09 A2.5,2.5 0 0 1 635.5,266.59 L80.5,266.59 A2.5,2.5 0 0 1 78,264.09 L78,137.5 A2.5,2.5 0 0 1 80.5,135 " fill="none" style="stroke:#000000;stroke-width:1.5;"/><line style="stroke:#000000;stroke-width:1.5;" x1="78" x2="149" y1="157.2969" y2="157.2969"/><text fill="#000000" font-family="sans-serif" font-size="14" font-weight="bold" lengthAdjust="spacing" textLength="58" x="82" y="149.9951">service</text></g><!--cluster domain--><g id="cluster_domain"><path d="M1272.5,102.4 L1330.5,102.4 A3.75,3.75 0 0 1 1333,104.9 L1340,124.6969 L1676.5,124.6969 A2.5,2.5 0 0 1 1679,127.1969 L1679,296.69 A2.5,2.5 0 0 1 1676.5,299.19 L1272.5,299.19 A2.5,2.5 0 0 1 1270,296.69 L1270,104.9 A2.5,2.5 0 0 1 1272.5,102.4 " fill="none" style="stroke:#000000;stroke-width:1.5;"/><line style="stroke:#000000;stroke-width:1.5;" x1="1270" x2="1340" y1="124.6969" y2="124.6969"/><text fill="#000000" font-family="sans-serif" font-size="14" font-weight="bold" lengthAdjust="spacing" textLength="57" x="1274" y="117.3951">domain</text></g><!--cluster dto--><g id="cluster_dto"><path d="M1705.5,110.55 L1732.5,110.55 A3.75,3.75 0 0 1 1735,113.05 L1742,132.8469 L2076.5,132.8469 A2.5,2.5 0 0 1 2079,135.3469 L2079,288.54 A2.5,2.5 0 0 1 2076.5,291.04 L1705.5,291.04 A2.5,2.5 0 0 1 1703,288.54 L1703,113.05 A2.5,2.5 0 0 1 1705.5,110.55 " fill="none" style="stroke:#000000;stroke-width:1.5;"/><line style="stroke:#000000;stroke-width:1.5;" x1="1703" x2="1742" y1="132.8469" y2="132.8469"/><text fill="#000000" font-family="sans-serif" font-size="14" font-weight="bold" lengthAdjust="spacing" textLength="26" x="1707" y="125.5451">dto</text></g><!--cluster exception--><g id="cluster_exception"><path d="M2105.5,151.29 L2184.5,151.29 A3.75,3.75 0 0 1 2187,153.79 L2194,173.5869 L2254.5,173.5869 A2.5,2.5 0 0 1 2257,176.0869 L2257,247.79 A2.5,2.5 0 0 1 2254.5,250.29 L2105.5,250.29 A2.5,2.5 0 0 1 2103,247.79 L2103,153.79 A2.5,2.5 0 0 1 2105.5,151.29 " fill="none" style="stroke:#000000;stroke-width:1.5;"/><line style="stroke:#000000;stroke-width:1.5;" x1="2103" x2="2194" y1="173.5869" y2="173.5869"/><text fill="#000000" font-family="sans-serif" font-size="14" font-weight="bold" lengthAdjust="spacing" textLength="78" x="2107" y="166.2851">exception</text></g><!--cluster infra--><g id="cluster_infra"><path d="M2307.5,323.19 L2344.5,323.19 A3.75,3.75 0 0 1 2347,325.69 L2354,345.4869 L5817.5,345.4869 A2.5,2.5 0 0 1 5820,347.9869 L5820,855.06 A2.5,2.5 0 0 1 5817.5,857.56 L2307.5,857.56 A2.5,2.5 0 0 1 2305,855.06 L2305,325.69 A2.5,2.5 0 0 1 2307.5,323.19 " fill="none" style="stroke:#000000;stroke-width:1.5;"/><line style="stroke:#000000;stroke-width:1.5;" x1="2305" x2="2354" y1="345.4869" y2="345.4869"/><text fill="#000000" font-family="sans-serif" font-size="14" font-weight="bold" lengthAdjust="spacing" textLength="36" x="2309" y="338.1851">infra</text></g><!--cluster `in`--><g id="cluster_`in`"><path d="M2331.5,398.78 L2360.5,398.78 A3.75,3.75 0 0 1 2363,401.28 L2370,421.0769 L3114.5,421.0769 A2.5,2.5 0 0 1 3117,423.5769 L3117,822.91 A2.5,2.5 0 0 1 3114.5,825.41 L2331.5,825.41 A2.5,2.5 0 0 1 2329,822.91 L2329,401.28 A2.5,2.5 0 0 1 2331.5,398.78 " fill="none" style="stroke:#000000;stroke-width:1.5;"/><line style="stroke:#000000;stroke-width:1.5;" x1="2329" x2="2370" y1="421.0769" y2="421.0769"/><text fill="#000000" font-family="sans-serif" font-size="14" font-weight="bold" lengthAdjust="spacing" textLength="28" x="2333" y="413.7751">`in`</text></g><!--cluster web--><g id="cluster_web"><path d="M2355.5,441.78 L2390.5,441.78 A3.75,3.75 0 0 1 2393,444.28 L2400,464.0769 L3090.5,464.0769 A2.5,2.5 0 0 1 3093,466.5769 L3093,798.91 A2.5,2.5 0 0 1 3090.5,801.41 L2355.5,801.41 A2.5,2.5 0 0 1 2353,798.91 L2353,444.28 A2.5,2.5 0 0 1 2355.5,441.78 " fill="none" style="stroke:#000000;stroke-width:1.5;"/><line style="stroke:#000000;stroke-width:1.5;" x1="2353" x2="2400" y1="464.0769" y2="464.0769"/><text fill="#000000" font-family="sans-serif" font-size="14" font-weight="bold" lengthAdjust="spacing" textLength="34" x="2357" y="456.7751">web</text></g><!--cluster out--><g id="cluster_out"><path d="M3143.5,366.19 L3170.5,366.19 A3.75,3.75 0 0 1 3173,368.69 L3180,388.4869 L5249.5,388.4869 A2.5,2.5 0 0 1 5252,390.9869 L5252,831.06 A2.5,2.5 0 0 1 5249.5,833.56 L3143.5,833.56 A2.5,2.5 0 0 1 3141,831.06 L3141,368.69 A2.5,2.5 0 0 1 3143.5,366.19 " fill="none" style="stroke:#000000;stroke-width:1.5;"/><line style="stroke:#000000;stroke-width:1.5;" x1="3141" x2="3180" y1="388.4869" y2="388.4869"/><text fill="#000000" font-family="sans-serif" font-size="14" font-weight="bold" lengthAdjust="spacing" textLength="26" x="3145" y="381.1851">out</text></g><!--cluster repo--><g id="cluster_repo"><path d="M3167.5,449.93 L3205.5,449.93 A3.75,3.75 0 0 1 3208,452.43 L3215,472.2269 L4754.5,472.2269 A2.5,2.5 0 0 1 4757,474.7269 L4757,579.02 A2.5,2.5 0 0 1 4754.5,581.52 L3167.5,581.52 A2.5,2.5 0 0 1 3165,579.02 L3165,452.43 A2.5,2.5 0 0 1 3167.5,449.93 " fill="none" style="stroke:#000000;stroke-width:1.5;"/><line style="stroke:#000000;stroke-width:1.5;" x1="3165" x2="3215" y1="472.2269" y2="472.2269"/><text fill="#000000" font-family="sans-serif" font-size="14" font-weight="bold" lengthAdjust="spacing" textLength="37" x="3169" y="464.9251">repo</text></g><!--cluster adapter--><g id="cluster_adapter"><path d="M3626.5,661.67 L3688.5,661.67 A3.75,3.75 0 0 1 3691,664.17 L3698,683.9669 L4163.5,683.9669 A2.5,2.5 0 0 1 4166,686.4669 L4166,807.06 A2.5,2.5 0 0 1 4163.5,809.56 L3626.5,809.56 A2.5,2.5 0 0 1 3624,807.06 L3624,664.17 A2.5,2.5 0 0 1 3626.5,661.67 " fill="none" style="stroke:#000000;stroke-width:1.5;"/><line style="stroke:#000000;stroke-width:1.5;" x1="3624" x2="3698" y1="683.9669" y2="683.9669"/><text fill="#000000" font-family="sans-serif" font-size="14" font-weight="bold" lengthAdjust="spacing" textLength="61" x="3628" y="676.6651">adapter</text></g><!--cluster entity--><g id="cluster_entity"><path d="M4783.5,409.19 L4829.5,409.19 A3.75,3.75 0 0 1 4832,411.69 L4839,431.4869 L5225.5,431.4869 A2.5,2.5 0 0 1 5228,433.9869 L5228,619.76 A2.5,2.5 0 0 1 5225.5,622.26 L4783.5,622.26 A2.5,2.5 0 0 1 4781,619.76 L4781,411.69 A2.5,2.5 0 0 1 4783.5,409.19 " fill="none" style="stroke:#000000;stroke-width:1.5;"/><line style="stroke:#000000;stroke-width:1.5;" x1="4781" x2="4839" y1="431.4869" y2="431.4869"/><text fill="#000000" font-family="sans-serif" font-size="14" font-weight="bold" lengthAdjust="spacing" textLength="45" x="4785" y="424.1851">entity</text></g><!--cluster dto--><g id="cluster_dto"><path d="M5278.5,425.48 L5305.5,425.48 A3.75,3.75 0 0 1 5308,427.98 L5315,447.7769 L5607.5,447.7769 A2.5,2.5 0 0 1 5610,450.2769 L5610,603.47 A2.5,2.5 0 0 1 5607.5,605.97 L5278.5,605.97 A2.5,2.5 0 0 1 5276,603.47 L5276,427.98 A2.5,2.5 0 0 1 5278.5,425.48 " fill="none" style="stroke:#000000;stroke-width:1.5;"/><line style="stroke:#000000;stroke-width:1.5;" x1="5276" x2="5315" y1="447.7769" y2="447.7769"/><text fill="#000000" font-family="sans-serif" font-size="14" font-weight="bold" lengthAdjust="spacing" textLength="26" x="5280" y="440.4751">dto</text></g><!--cluster exception--><g id="cluster_exception"><path d="M5636.5,466.22 L5715.5,466.22 A3.75,3.75 0 0 1 5718,468.72 L5725,488.5169 L5793.5,488.5169 A2.5,2.5 0 0 1 5796,491.0169 L5796,562.72 A2.5,2.5 0 0 1 5793.5,565.22 L5636.5,565.22 A2.5,2.5 0 0 1 5634,562.72 L5634,468.72 A2.5,2.5 0 0 1 5636.5,466.22 " fill="none" style="stroke:#000000;stroke-width:1.5;"/><line style="stroke:#000000;stroke-width:1.5;" x1="5634" x2="5725" y1="488.5169" y2="488.5169"/><text fill="#000000" font-family="sans-serif" font-size="14" font-weight="bold" lengthAdjust="spacing" textLength="78" x="5638" y="481.2151">exception</text></g><!--class ISubRecommendService--><g id="elem_ISubRecommendService"><rect codeLine="7" fill="#F1F1F1" height="80.5938" id="ISubRecommendService" rx="2.5" ry="2.5" style="stroke:#181818;stroke-width:0.5;" width="529" x="677.5" y="170"/><ellipse cx="853.25" cy="186" fill="#B4A7E5" rx="11" ry="11" style="stroke:#181818;stroke-width:1.0;"/><path d="M849.1719,181.7656 L849.1719,179.6094 L856.5625,179.6094 L856.5625,181.7656 L854.0938,181.7656 L854.0938,189.8438 L856.5625,189.8438 L856.5625,192 L849.1719,192 L849.1719,189.8438 L851.6406,189.8438 L851.6406,181.7656 L849.1719,181.7656 Z " fill="#000000"/><text fill="#000000" font-family="sans-serif" font-size="14" font-style="italic" lengthAdjust="spacing" textLength="169" x="873.75" y="190.8467">ISubRecommendService</text><line style="stroke:#181818;stroke-width:0.5;" x1="678.5" x2="1205.5" y1="202" y2="202"/><line style="stroke:#181818;stroke-width:0.5;" x1="678.5" x2="1205.5" y1="210" y2="210"/><text fill="#000000" font-family="sans-serif" font-size="14" lengthAdjust="spacing" textLength="498" x="683.5" y="226.9951">+getRecommendCategoryBySpending(userId: String): CategoryInfoDTO</text><text fill="#000000" font-family="sans-serif" font-size="14" lengthAdjust="spacing" textLength="517" x="683.5" y="243.292">+getRecommendSubListByCategory(categoryId: Long): List&lt;SubInfoDTO&gt;</text></g><!--class ISubRecommendProvider--><g id="elem_ISubRecommendProvider"><rect codeLine="14" fill="#F1F1F1" height="96.8906" id="ISubRecommendProvider" rx="2.5" ry="2.5" style="stroke:#181818;stroke-width:0.5;" width="511" x="102.5" y="476.78"/><ellipse cx="266.25" cy="492.78" fill="#B4A7E5" rx="11" ry="11" style="stroke:#181818;stroke-width:1.0;"/><path d="M262.1719,488.5456 L262.1719,486.3894 L269.5625,486.3894 L269.5625,488.5456 L267.0938,488.5456 L267.0938,496.6238 L269.5625,496.6238 L269.5625,498.78 L262.1719,498.78 L262.1719,496.6238 L264.6406,496.6238 L264.6406,488.5456 L262.1719,488.5456 Z " fill="#000000"/><text fill="#000000" font-family="sans-serif" font-size="14" font-style="italic" lengthAdjust="spacing" textLength="175" x="286.75" y="497.6267">ISubRecommendProvider</text><line style="stroke:#181818;stroke-width:0.5;" x1="103.5" x2="612.5" y1="508.78" y2="508.78"/><line style="stroke:#181818;stroke-width:0.5;" x1="103.5" x2="612.5" y1="516.78" y2="516.78"/><text fill="#000000" font-family="sans-serif" font-size="14" lengthAdjust="spacing" textLength="426" x="108.5" y="533.7751">+getSpendingByCategory(userId: String): Map&lt;String, Long&gt;</text><text fill="#000000" font-family="sans-serif" font-size="14" lengthAdjust="spacing" textLength="499" x="108.5" y="550.072">+getCategoryBySpendingCategory(spendingCategory: String): Category</text><text fill="#000000" font-family="sans-serif" font-size="14" lengthAdjust="spacing" textLength="384" x="108.5" y="566.3689">+getSubListByCategoryId(categoryId: Long): List&lt;Sub&gt;</text></g><!--class SubRecommendServiceImpl--><g id="elem_SubRecommendServiceImpl"><rect codeLine="22" fill="#F1F1F1" height="80.5938" id="SubRecommendServiceImpl" rx="2.5" ry="2.5" style="stroke:#181818;stroke-width:0.5;" width="529" x="93.5" y="170"/><ellipse cx="256.75" cy="186" fill="#ADD1B2" rx="11" ry="11" style="stroke:#181818;stroke-width:1.0;"/><path d="M259.7188,191.6406 Q259.1406,191.9375 258.5,192.0781 Q257.8594,192.2344 257.1563,192.2344 Q254.6563,192.2344 253.3281,190.5938 Q252.0156,188.9375 252.0156,185.8125 Q252.0156,182.6875 253.3281,181.0313 Q254.6563,179.375 257.1563,179.375 Q257.8594,179.375 258.5,179.5313 Q259.1563,179.6875 259.7188,179.9844 L259.7188,182.7031 Q259.0938,182.125 258.5,181.8594 Q257.9063,181.5781 257.2813,181.5781 Q255.9375,181.5781 255.25,182.6563 Q254.5625,183.7188 254.5625,185.8125 Q254.5625,187.9063 255.25,188.9844 Q255.9375,190.0469 257.2813,190.0469 Q257.9063,190.0469 258.5,189.7813 Q259.0938,189.5 259.7188,188.9219 L259.7188,191.6406 Z " fill="#000000"/><text fill="#000000" font-family="sans-serif" font-size="14" lengthAdjust="spacing" textLength="194" x="277.25" y="190.8467">SubRecommendServiceImpl</text><line style="stroke:#181818;stroke-width:0.5;" x1="94.5" x2="621.5" y1="202" y2="202"/><line style="stroke:#181818;stroke-width:0.5;" x1="94.5" x2="621.5" y1="210" y2="210"/><text fill="#000000" font-family="sans-serif" font-size="14" lengthAdjust="spacing" textLength="498" x="99.5" y="226.9951">+getRecommendCategoryBySpending(userId: String): CategoryInfoDTO</text><text fill="#000000" font-family="sans-serif" font-size="14" lengthAdjust="spacing" textLength="517" x="99.5" y="243.292">+getRecommendSubListByCategory(categoryId: Long): List&lt;SubInfoDTO&gt;</text></g><!--class Category--><g id="elem_Category"><rect codeLine="30" fill="#F1F1F1" height="96.8906" id="Category" rx="2.5" ry="2.5" style="stroke:#181818;stroke-width:0.5;" width="193" x="1469.5" y="161.85"/><ellipse cx="1530.75" cy="177.85" fill="#ADD1B2" rx="11" ry="11" style="stroke:#181818;stroke-width:1.0;"/><path d="M1533.7188,183.4906 Q1533.1406,183.7875 1532.5,183.9281 Q1531.8594,184.0844 1531.1563,184.0844 Q1528.6563,184.0844 1527.3281,182.4437 Q1526.0156,180.7875 1526.0156,177.6625 Q1526.0156,174.5375 1527.3281,172.8812 Q1528.6563,171.225 1531.1563,171.225 Q1531.8594,171.225 1532.5,171.3812 Q1533.1563,171.5375 1533.7188,171.8344 L1533.7188,174.5531 Q1533.0938,173.975 1532.5,173.7094 Q1531.9063,173.4281 1531.2813,173.4281 Q1529.9375,173.4281 1529.25,174.5062 Q1528.5625,175.5687 1528.5625,177.6625 Q1528.5625,179.7562 1529.25,180.8344 Q1529.9375,181.8969 1531.2813,181.8969 Q1531.9063,181.8969 1532.5,181.6312 Q1533.0938,181.35 1533.7188,180.7719 L1533.7188,183.4906 Z " fill="#000000"/><text fill="#000000" font-family="sans-serif" font-size="14" lengthAdjust="spacing" textLength="62" x="1551.25" y="182.6967">Category</text><line style="stroke:#181818;stroke-width:0.5;" x1="1470.5" x2="1661.5" y1="193.85" y2="193.85"/><text fill="#000000" font-family="sans-serif" font-size="14" lengthAdjust="spacing" textLength="60" x="1475.5" y="210.8451">-id: Long</text><text fill="#000000" font-family="sans-serif" font-size="14" lengthAdjust="spacing" textLength="93" x="1475.5" y="227.142">-name: String</text><text fill="#000000" font-family="sans-serif" font-size="14" lengthAdjust="spacing" textLength="181" x="1475.5" y="243.4389">-spendingCategory: String</text><line style="stroke:#181818;stroke-width:0.5;" x1="1470.5" x2="1661.5" y1="250.7406" y2="250.7406"/></g><!--class Sub--><g id="elem_Sub"><rect codeLine="36" fill="#F1F1F1" height="145.7813" id="Sub" rx="2.5" ry="2.5" style="stroke:#181818;stroke-width:0.5;" width="148" x="1286" y="137.4"/><ellipse cx="1342.25" cy="153.4" fill="#ADD1B2" rx="11" ry="11" style="stroke:#181818;stroke-width:1.0;"/><path d="M1345.2188,159.0406 Q1344.6406,159.3375 1344,159.4781 Q1343.3594,159.6344 1342.6563,159.6344 Q1340.1563,159.6344 1338.8281,157.9937 Q1337.5156,156.3375 1337.5156,153.2125 Q1337.5156,150.0875 1338.8281,148.4312 Q1340.1563,146.775 1342.6563,146.775 Q1343.3594,146.775 1344,146.9312 Q1344.6563,147.0875 1345.2188,147.3844 L1345.2188,150.1031 Q1344.5938,149.525 1344,149.2594 Q1343.4063,148.9781 1342.7813,148.9781 Q1341.4375,148.9781 1340.75,150.0562 Q1340.0625,151.1187 1340.0625,153.2125 Q1340.0625,155.3062 1340.75,156.3844 Q1341.4375,157.4469 1342.7813,157.4469 Q1343.4063,157.4469 1344,157.1812 Q1344.5938,156.9 1345.2188,156.3219 L1345.2188,159.0406 Z " fill="#000000"/><text fill="#000000" font-family="sans-serif" font-size="14" lengthAdjust="spacing" textLength="27" x="1362.75" y="158.2467">Sub</text><line style="stroke:#181818;stroke-width:0.5;" x1="1287" x2="1433" y1="169.4" y2="169.4"/><text fill="#000000" font-family="sans-serif" font-size="14" lengthAdjust="spacing" textLength="60" x="1292" y="186.3951">-id: Long</text><text fill="#000000" font-family="sans-serif" font-size="14" lengthAdjust="spacing" textLength="93" x="1292" y="202.692">-name: String</text><text fill="#000000" font-family="sans-serif" font-size="14" lengthAdjust="spacing" textLength="131" x="1292" y="218.9889">-description: String</text><text fill="#000000" font-family="sans-serif" font-size="14" lengthAdjust="spacing" textLength="136" x="1292" y="235.2857">-category: Category</text><text fill="#000000" font-family="sans-serif" font-size="14" lengthAdjust="spacing" textLength="70" x="1292" y="251.5826">-fee: Long</text><text fill="#000000" font-family="sans-serif" font-size="14" lengthAdjust="spacing" textLength="131" x="1292" y="267.8795">-maxShareNum: int</text><line style="stroke:#181818;stroke-width:0.5;" x1="1287" x2="1433" y1="275.1813" y2="275.1813"/></g><!--class CategoryInfoDTO--><g id="elem_CategoryInfoDTO"><rect codeLine="47" fill="#F1F1F1" height="96.8906" id="CategoryInfoDTO" rx="2.5" ry="2.5" style="stroke:#181818;stroke-width:0.5;" width="166" x="1719" y="161.85"/><ellipse cx="1741.2" cy="177.85" fill="#ADD1B2" rx="11" ry="11" style="stroke:#181818;stroke-width:1.0;"/><path d="M1744.1688,183.4906 Q1743.5906,183.7875 1742.95,183.9281 Q1742.3094,184.0844 1741.6063,184.0844 Q1739.1063,184.0844 1737.7781,182.4437 Q1736.4656,180.7875 1736.4656,177.6625 Q1736.4656,174.5375 1737.7781,172.8812 Q1739.1063,171.225 1741.6063,171.225 Q1742.3094,171.225 1742.95,171.3812 Q1743.6063,171.5375 1744.1688,171.8344 L1744.1688,174.5531 Q1743.5438,173.975 1742.95,173.7094 Q1742.3563,173.4281 1741.7313,173.4281 Q1740.3875,173.4281 1739.7,174.5062 Q1739.0125,175.5687 1739.0125,177.6625 Q1739.0125,179.7562 1739.7,180.8344 Q1740.3875,181.8969 1741.7313,181.8969 Q1742.3563,181.8969 1742.95,181.6312 Q1743.5438,181.35 1744.1688,180.7719 L1744.1688,183.4906 Z " fill="#000000"/><text fill="#000000" font-family="sans-serif" font-size="14" lengthAdjust="spacing" textLength="118" x="1756.8" y="182.6967">CategoryInfoDTO</text><line style="stroke:#181818;stroke-width:0.5;" x1="1720" x2="1884" y1="193.85" y2="193.85"/><text fill="#000000" font-family="sans-serif" font-size="14" lengthAdjust="spacing" textLength="120" x="1725" y="210.8451">-categoryId: Long</text><text fill="#000000" font-family="sans-serif" font-size="14" lengthAdjust="spacing" textLength="154" x="1725" y="227.142">-categoryName: String</text><text fill="#000000" font-family="sans-serif" font-size="14" lengthAdjust="spacing" textLength="144" x="1725" y="243.4389">-totalSpending: Long</text><line style="stroke:#181818;stroke-width:0.5;" x1="1720" x2="1884" y1="250.7406" y2="250.7406"/></g><!--class SubInfoDTO--><g id="elem_SubInfoDTO"><rect codeLine="53" fill="#F1F1F1" height="129.4844" id="SubInfoDTO" rx="2.5" ry="2.5" style="stroke:#181818;stroke-width:0.5;" width="143" x="1920.5" y="145.55"/><ellipse cx="1948.1" cy="161.55" fill="#ADD1B2" rx="11" ry="11" style="stroke:#181818;stroke-width:1.0;"/><path d="M1951.0688,167.1906 Q1950.4906,167.4875 1949.85,167.6281 Q1949.2094,167.7844 1948.5063,167.7844 Q1946.0063,167.7844 1944.6781,166.1437 Q1943.3656,164.4875 1943.3656,161.3625 Q1943.3656,158.2375 1944.6781,156.5812 Q1946.0063,154.925 1948.5063,154.925 Q1949.2094,154.925 1949.85,155.0812 Q1950.5063,155.2375 1951.0688,155.5344 L1951.0688,158.2531 Q1950.4438,157.675 1949.85,157.4094 Q1949.2563,157.1281 1948.6313,157.1281 Q1947.2875,157.1281 1946.6,158.2062 Q1945.9125,159.2687 1945.9125,161.3625 Q1945.9125,163.4562 1946.6,164.5344 Q1947.2875,165.5969 1948.6313,165.5969 Q1949.2563,165.5969 1949.85,165.3312 Q1950.4438,165.05 1951.0688,164.4719 L1951.0688,167.1906 Z " fill="#000000"/><text fill="#000000" font-family="sans-serif" font-size="14" lengthAdjust="spacing" textLength="83" x="1964.9" y="166.3967">SubInfoDTO</text><line style="stroke:#181818;stroke-width:0.5;" x1="1921.5" x2="2062.5" y1="177.55" y2="177.55"/><text fill="#000000" font-family="sans-serif" font-size="14" lengthAdjust="spacing" textLength="60" x="1926.5" y="194.5451">-id: Long</text><text fill="#000000" font-family="sans-serif" font-size="14" lengthAdjust="spacing" textLength="93" x="1926.5" y="210.842">-name: String</text><text fill="#000000" font-family="sans-serif" font-size="14" lengthAdjust="spacing" textLength="131" x="1926.5" y="227.1389">-description: String</text><text fill="#000000" font-family="sans-serif" font-size="14" lengthAdjust="spacing" textLength="70" x="1926.5" y="243.4357">-fee: Long</text><text fill="#000000" font-family="sans-serif" font-size="14" lengthAdjust="spacing" textLength="131" x="1926.5" y="259.7326">-maxShareNum: int</text><line style="stroke:#181818;stroke-width:0.5;" x1="1921.5" x2="2062.5" y1="267.0344" y2="267.0344"/></g><!--class BizException--><g id="elem_BizException"><rect codeLine="63" fill="#F1F1F1" height="48" id="BizException" rx="2.5" ry="2.5" style="stroke:#181818;stroke-width:0.5;" width="121" x="2119.5" y="186.29"/><ellipse cx="2134.5" cy="202.29" fill="#ADD1B2" rx="11" ry="11" style="stroke:#181818;stroke-width:1.0;"/><path d="M2137.4688,207.9306 Q2136.8906,208.2275 2136.25,208.3681 Q2135.6094,208.5244 2134.9063,208.5244 Q2132.4063,208.5244 2131.0781,206.8837 Q2129.7656,205.2275 2129.7656,202.1025 Q2129.7656,198.9775 2131.0781,197.3212 Q2132.4063,195.665 2134.9063,195.665 Q2135.6094,195.665 2136.25,195.8212 Q2136.9063,195.9775 2137.4688,196.2744 L2137.4688,198.9931 Q2136.8438,198.415 2136.25,198.1494 Q2135.6563,197.8681 2135.0313,197.8681 Q2133.6875,197.8681 2133,198.9462 Q2132.3125,200.0087 2132.3125,202.1025 Q2132.3125,204.1962 2133,205.2744 Q2133.6875,206.3369 2135.0313,206.3369 Q2135.6563,206.3369 2136.25,206.0712 Q2136.8438,205.79 2137.4688,205.2119 L2137.4688,207.9306 Z " fill="#000000"/><text fill="#000000" font-family="sans-serif" font-size="14" lengthAdjust="spacing" textLength="89" x="2148.5" y="207.1367">BizException</text><line style="stroke:#181818;stroke-width:0.5;" x1="2120.5" x2="2239.5" y1="218.29" y2="218.29"/><line style="stroke:#181818;stroke-width:0.5;" x1="2120.5" x2="2239.5" y1="226.29" y2="226.29"/></g><!--class SubRecommendController--><g id="elem_SubRecommendController"><rect codeLine="71" fill="#F1F1F1" height="96.8906" id="SubRecommendController" rx="2.5" ry="2.5" style="stroke:#181818;stroke-width:0.5;" width="709" x="2368.5" y="476.78"/><ellipse cx="2627.25" cy="492.78" fill="#ADD1B2" rx="11" ry="11" style="stroke:#181818;stroke-width:1.0;"/><path d="M2630.2188,498.4206 Q2629.6406,498.7175 2629,498.8581 Q2628.3594,499.0144 2627.6563,499.0144 Q2625.1563,499.0144 2623.8281,497.3738 Q2622.5156,495.7175 2622.5156,492.5925 Q2622.5156,489.4675 2623.8281,487.8113 Q2625.1563,486.155 2627.6563,486.155 Q2628.3594,486.155 2629,486.3113 Q2629.6563,486.4675 2630.2188,486.7644 L2630.2188,489.4831 Q2629.5938,488.905 2629,488.6394 Q2628.4063,488.3581 2627.7813,488.3581 Q2626.4375,488.3581 2625.75,489.4363 Q2625.0625,490.4988 2625.0625,492.5925 Q2625.0625,494.6863 2625.75,495.7644 Q2626.4375,496.8269 2627.7813,496.8269 Q2628.4063,496.8269 2629,496.5613 Q2629.5938,496.28 2630.2188,495.7019 L2630.2188,498.4206 Z " fill="#000000"/><text fill="#000000" font-family="sans-serif" font-size="14" lengthAdjust="spacing" textLength="183" x="2647.75" y="497.6267">SubRecommendController</text><line style="stroke:#181818;stroke-width:0.5;" x1="2369.5" x2="3076.5" y1="508.78" y2="508.78"/><line style="stroke:#181818;stroke-width:0.5;" x1="2369.5" x2="3076.5" y1="516.78" y2="516.78"/><text fill="#000000" font-family="sans-serif" font-size="14" lengthAdjust="spacing" textLength="674" x="2374.5" y="533.7751">+getRecommendCategory(userId: String): ResponseEntity&lt;ResponseDTO&lt;CategoryInfoDTO&gt;&gt;</text><text fill="#000000" font-family="sans-serif" font-size="14" lengthAdjust="spacing" textLength="697" x="2374.5" y="550.072">+getRecommendSubList(categoryId: Long): ResponseEntity&lt;ResponseDTO&lt;List&lt;SubInfoDTO&gt;&gt;&gt;</text><text fill="#000000" font-family="sans-serif" font-size="14" lengthAdjust="spacing" textLength="543" x="2374.5" y="566.3689">+getSubDetail(subId: Long): ResponseEntity&lt;ResponseDTO&lt;SubInfoDTO&gt;&gt;</text></g><!--class SubRecommendControllerHelper--><g id="elem_SubRecommendControllerHelper"><rect codeLine="77" fill="#F1F1F1" height="80.5938" id="SubRecommendControllerHelper" rx="2.5" ry="2.5" style="stroke:#181818;stroke-width:0.5;" width="425" x="2510.5" y="704.82"/><ellipse cx="2604.75" cy="720.82" fill="#ADD1B2" rx="11" ry="11" style="stroke:#181818;stroke-width:1.0;"/><path d="M2607.7188,726.4606 Q2607.1406,726.7575 2606.5,726.8981 Q2605.8594,727.0544 2605.1563,727.0544 Q2602.6563,727.0544 2601.3281,725.4137 Q2600.0156,723.7575 2600.0156,720.6325 Q2600.0156,717.5075 2601.3281,715.8512 Q2602.6563,714.195 2605.1563,714.195 Q2605.8594,714.195 2606.5,714.3512 Q2607.1563,714.5075 2607.7188,714.8044 L2607.7188,717.5231 Q2607.0938,716.945 2606.5,716.6794 Q2605.9063,716.3981 2605.2813,716.3981 Q2603.9375,716.3981 2603.25,717.4762 Q2602.5625,718.5387 2602.5625,720.6325 Q2602.5625,722.7262 2603.25,723.8044 Q2603.9375,724.8669 2605.2813,724.8669 Q2605.9063,724.8669 2606.5,724.6012 Q2607.0938,724.32 2607.7188,723.7419 L2607.7188,726.4606 Z " fill="#000000"/><text fill="#000000" font-family="sans-serif" font-size="14" lengthAdjust="spacing" textLength="228" x="2625.25" y="725.6667">SubRecommendControllerHelper</text><line style="stroke:#181818;stroke-width:0.5;" x1="2511.5" x2="2934.5" y1="736.82" y2="736.82"/><line style="stroke:#181818;stroke-width:0.5;" x1="2511.5" x2="2934.5" y1="744.82" y2="744.82"/><text fill="#000000" font-family="sans-serif" font-size="14" lengthAdjust="spacing" textLength="273" x="2516.5" y="761.8151">+toSubInfoDTO(sub: Sub): SubInfoDTO</text><text fill="#000000" font-family="sans-serif" font-size="14" lengthAdjust="spacing" textLength="413" x="2516.5" y="778.112">+toSubInfoDTOList(subList: List&lt;Sub&gt;): List&lt;SubInfoDTO&gt;</text></g><!--class ICategoryRepository--><g id="elem_ICategoryRepository"><rect codeLine="86" fill="#F1F1F1" height="64.2969" id="ICategoryRepository" rx="2.5" ry="2.5" style="stroke:#181818;stroke-width:0.5;" width="570" x="4171" y="493.08"/><ellipse cx="4382.25" cy="509.08" fill="#B4A7E5" rx="11" ry="11" style="stroke:#181818;stroke-width:1.0;"/><path d="M4378.1719,504.8456 L4378.1719,502.6894 L4385.5625,502.6894 L4385.5625,504.8456 L4383.0938,504.8456 L4383.0938,512.9237 L4385.5625,512.9237 L4385.5625,515.08 L4378.1719,515.08 L4378.1719,512.9237 L4380.6406,512.9237 L4380.6406,504.8456 L4378.1719,504.8456 Z " fill="#000000"/><text fill="#000000" font-family="sans-serif" font-size="14" font-style="italic" lengthAdjust="spacing" textLength="139" x="4402.75" y="513.9267">ICategoryRepository</text><line style="stroke:#181818;stroke-width:0.5;" x1="4172" x2="4740" y1="525.08" y2="525.08"/><line style="stroke:#181818;stroke-width:0.5;" x1="4172" x2="4740" y1="533.08" y2="533.08"/><text fill="#000000" font-family="sans-serif" font-size="14" lengthAdjust="spacing" textLength="558" x="4177" y="550.0751">+findBySpendingCategory(spendingCategory: String): Optional&lt;CategoryEntity&gt;</text></g><!--class ISubRepository--><g id="elem_ISubRepository"><rect codeLine="90" fill="#F1F1F1" height="80.5938" id="ISubRepository" rx="2.5" ry="2.5" style="stroke:#181818;stroke-width:0.5;" width="482" x="3654" y="484.93"/><ellipse cx="3838.75" cy="500.93" fill="#B4A7E5" rx="11" ry="11" style="stroke:#181818;stroke-width:1.0;"/><path d="M3834.6719,496.6956 L3834.6719,494.5394 L3842.0625,494.5394 L3842.0625,496.6956 L3839.5938,496.6956 L3839.5938,504.7737 L3842.0625,504.7737 L3842.0625,506.93 L3834.6719,506.93 L3834.6719,504.7737 L3837.1406,504.7737 L3837.1406,496.6956 L3834.6719,496.6956 Z " fill="#000000"/><text fill="#000000" font-family="sans-serif" font-size="14" font-style="italic" lengthAdjust="spacing" textLength="104" x="3859.25" y="505.7767">ISubRepository</text><line style="stroke:#181818;stroke-width:0.5;" x1="3655" x2="4135" y1="516.93" y2="516.93"/><line style="stroke:#181818;stroke-width:0.5;" x1="3655" x2="4135" y1="524.93" y2="524.93"/><text fill="#000000" font-family="sans-serif" font-size="14" lengthAdjust="spacing" textLength="470" x="3660" y="541.9251">+findByCategoryIdOrderByName(categoryId: Long): List&lt;SubEntity&gt;</text><text fill="#000000" font-family="sans-serif" font-size="14" lengthAdjust="spacing" textLength="312" x="3660" y="558.222">+findById(subId: Long): Optional&lt;SubEntity&gt;</text></g><!--class ISpendingRepository--><g id="elem_ISpendingRepository"><rect codeLine="95" fill="#F1F1F1" height="64.2969" id="ISpendingRepository" rx="2.5" ry="2.5" style="stroke:#181818;stroke-width:0.5;" width="438" x="3181" y="493.08"/><ellipse cx="3324.25" cy="509.08" fill="#B4A7E5" rx="11" ry="11" style="stroke:#181818;stroke-width:1.0;"/><path d="M3320.1719,504.8456 L3320.1719,502.6894 L3327.5625,502.6894 L3327.5625,504.8456 L3325.0938,504.8456 L3325.0938,512.9237 L3327.5625,512.9237 L3327.5625,515.08 L3320.1719,515.08 L3320.1719,512.9237 L3322.6406,512.9237 L3322.6406,504.8456 L3320.1719,504.8456 Z " fill="#000000"/><text fill="#000000" font-family="sans-serif" font-size="14" font-style="italic" lengthAdjust="spacing" textLength="143" x="3344.75" y="513.9267">ISpendingRepository</text><line style="stroke:#181818;stroke-width:0.5;" x1="3182" x2="3618" y1="525.08" y2="525.08"/><line style="stroke:#181818;stroke-width:0.5;" x1="3182" x2="3618" y1="533.08" y2="533.08"/><text fill="#000000" font-family="sans-serif" font-size="14" lengthAdjust="spacing" textLength="426" x="3187" y="550.0751">+getSpendingByCategory(userId: String): Map&lt;String, Long&gt;</text></g><!--class SubRecommendProviderImpl--><g id="elem_SubRecommendProviderImpl"><rect codeLine="101" fill="#F1F1F1" height="96.8906" id="SubRecommendProviderImpl" rx="2.5" ry="2.5" style="stroke:#181818;stroke-width:0.5;" width="511" x="3639.5" y="696.67"/><ellipse cx="3790.75" cy="712.67" fill="#ADD1B2" rx="11" ry="11" style="stroke:#181818;stroke-width:1.0;"/><path d="M3793.7188,718.3106 Q3793.1406,718.6075 3792.5,718.7481 Q3791.8594,718.9044 3791.1563,718.9044 Q3788.6563,718.9044 3787.3281,717.2638 Q3786.0156,715.6075 3786.0156,712.4825 Q3786.0156,709.3575 3787.3281,707.7013 Q3788.6563,706.045 3791.1563,706.045 Q3791.8594,706.045 3792.5,706.2013 Q3793.1563,706.3575 3793.7188,706.6544 L3793.7188,709.3731 Q3793.0938,708.795 3792.5,708.5294 Q3791.9063,708.2481 3791.2813,708.2481 Q3789.9375,708.2481 3789.25,709.3263 Q3788.5625,710.3888 3788.5625,712.4825 Q3788.5625,714.5763 3789.25,715.6544 Q3789.9375,716.7169 3791.2813,716.7169 Q3791.9063,716.7169 3792.5,716.4513 Q3793.0938,716.17 3793.7188,715.5919 L3793.7188,718.3106 Z " fill="#000000"/><text fill="#000000" font-family="sans-serif" font-size="14" lengthAdjust="spacing" textLength="200" x="3811.25" y="717.5167">SubRecommendProviderImpl</text><line style="stroke:#181818;stroke-width:0.5;" x1="3640.5" x2="4149.5" y1="728.67" y2="728.67"/><line style="stroke:#181818;stroke-width:0.5;" x1="3640.5" x2="4149.5" y1="736.67" y2="736.67"/><text fill="#000000" font-family="sans-serif" font-size="14" lengthAdjust="spacing" textLength="426" x="3645.5" y="753.6651">+getSpendingByCategory(userId: String): Map&lt;String, Long&gt;</text><text fill="#000000" font-family="sans-serif" font-size="14" lengthAdjust="spacing" textLength="499" x="3645.5" y="769.962">+getCategoryBySpendingCategory(spendingCategory: String): Category</text><text fill="#000000" font-family="sans-serif" font-size="14" lengthAdjust="spacing" textLength="384" x="3645.5" y="786.2589">+getSubListByCategoryId(categoryId: Long): List&lt;Sub&gt;</text></g><!--class CategoryEntity--><g id="elem_CategoryEntity"><rect codeLine="109" fill="#F1F1F1" height="113.1875" id="CategoryEntity" rx="2.5" ry="2.5" style="stroke:#181818;stroke-width:0.5;" width="193" x="5018.5" y="468.63"/><ellipse cx="5060.95" cy="484.63" fill="#ADD1B2" rx="11" ry="11" style="stroke:#181818;stroke-width:1.0;"/><path d="M5063.9188,490.2706 Q5063.3406,490.5675 5062.7,490.7081 Q5062.0594,490.8644 5061.3563,490.8644 Q5058.8563,490.8644 5057.5281,489.2237 Q5056.2156,487.5675 5056.2156,484.4425 Q5056.2156,481.3175 5057.5281,479.6612 Q5058.8563,478.005 5061.3563,478.005 Q5062.0594,478.005 5062.7,478.1612 Q5063.3563,478.3175 5063.9188,478.6144 L5063.9188,481.3331 Q5063.2938,480.755 5062.7,480.4894 Q5062.1063,480.2081 5061.4813,480.2081 Q5060.1375,480.2081 5059.45,481.2862 Q5058.7625,482.3487 5058.7625,484.4425 Q5058.7625,486.5362 5059.45,487.6144 Q5060.1375,488.6769 5061.4813,488.6769 Q5062.1063,488.6769 5062.7,488.4112 Q5063.2938,488.13 5063.9188,487.5519 L5063.9188,490.2706 Z " fill="#000000"/><text fill="#000000" font-family="sans-serif" font-size="14" lengthAdjust="spacing" textLength="100" x="5081.05" y="489.4767">CategoryEntity</text><line style="stroke:#181818;stroke-width:0.5;" x1="5019.5" x2="5210.5" y1="500.63" y2="500.63"/><text fill="#000000" font-family="sans-serif" font-size="14" lengthAdjust="spacing" textLength="60" x="5024.5" y="517.6251">-id: Long</text><text fill="#000000" font-family="sans-serif" font-size="14" lengthAdjust="spacing" textLength="93" x="5024.5" y="533.922">-name: String</text><text fill="#000000" font-family="sans-serif" font-size="14" lengthAdjust="spacing" textLength="181" x="5024.5" y="550.2189">-spendingCategory: String</text><line style="stroke:#181818;stroke-width:0.5;" x1="5019.5" x2="5210.5" y1="557.5206" y2="557.5206"/><text fill="#000000" font-family="sans-serif" font-size="14" lengthAdjust="spacing" textLength="160" x="5024.5" y="574.5157">+toDomain(): Category</text></g><!--class SubEntity--><g id="elem_SubEntity"><rect codeLine="116" fill="#F1F1F1" height="162.0781" id="SubEntity" rx="2.5" ry="2.5" style="stroke:#181818;stroke-width:0.5;" width="186" x="4797" y="444.19"/><ellipse cx="4853.25" cy="460.19" fill="#ADD1B2" rx="11" ry="11" style="stroke:#181818;stroke-width:1.0;"/><path d="M4856.2188,465.8306 Q4855.6406,466.1275 4855,466.2681 Q4854.3594,466.4244 4853.6563,466.4244 Q4851.1563,466.4244 4849.8281,464.7837 Q4848.5156,463.1275 4848.5156,460.0025 Q4848.5156,456.8775 4849.8281,455.2212 Q4851.1563,453.565 4853.6563,453.565 Q4854.3594,453.565 4855,453.7212 Q4855.6563,453.8775 4856.2188,454.1744 L4856.2188,456.8931 Q4855.5938,456.315 4855,456.0494 Q4854.4063,455.7681 4853.7813,455.7681 Q4852.4375,455.7681 4851.75,456.8462 Q4851.0625,457.9087 4851.0625,460.0025 Q4851.0625,462.0962 4851.75,463.1744 Q4852.4375,464.2369 4853.7813,464.2369 Q4854.4063,464.2369 4855,463.9712 Q4855.5938,463.69 4856.2188,463.1119 L4856.2188,465.8306 Z " fill="#000000"/><text fill="#000000" font-family="sans-serif" font-size="14" lengthAdjust="spacing" textLength="65" x="4873.75" y="465.0367">SubEntity</text><line style="stroke:#181818;stroke-width:0.5;" x1="4798" x2="4982" y1="476.19" y2="476.19"/><text fill="#000000" font-family="sans-serif" font-size="14" lengthAdjust="spacing" textLength="60" x="4803" y="493.1851">-id: Long</text><text fill="#000000" font-family="sans-serif" font-size="14" lengthAdjust="spacing" textLength="93" x="4803" y="509.482">-name: String</text><text fill="#000000" font-family="sans-serif" font-size="14" lengthAdjust="spacing" textLength="131" x="4803" y="525.7789">-description: String</text><text fill="#000000" font-family="sans-serif" font-size="14" lengthAdjust="spacing" textLength="174" x="4803" y="542.0757">-category: CategoryEntity</text><text fill="#000000" font-family="sans-serif" font-size="14" lengthAdjust="spacing" textLength="70" x="4803" y="558.3726">-fee: Long</text><text fill="#000000" font-family="sans-serif" font-size="14" lengthAdjust="spacing" textLength="131" x="4803" y="574.6695">-maxShareNum: int</text><line style="stroke:#181818;stroke-width:0.5;" x1="4798" x2="4982" y1="581.9712" y2="581.9712"/><text fill="#000000" font-family="sans-serif" font-size="14" lengthAdjust="spacing" textLength="125" x="4803" y="598.9664">+toDomain(): Sub</text></g><!--class CategoryDTO--><g id="elem_CategoryDTO"><rect codeLine="129" fill="#F1F1F1" height="80.5938" id="CategoryDTO" rx="2.5" ry="2.5" style="stroke:#181818;stroke-width:0.5;" width="125" x="5291.5" y="484.93"/><ellipse cx="5306.5" cy="500.93" fill="#ADD1B2" rx="11" ry="11" style="stroke:#181818;stroke-width:1.0;"/><path d="M5309.4688,506.5706 Q5308.8906,506.8675 5308.25,507.0081 Q5307.6094,507.1644 5306.9063,507.1644 Q5304.4063,507.1644 5303.0781,505.5237 Q5301.7656,503.8675 5301.7656,500.7425 Q5301.7656,497.6175 5303.0781,495.9612 Q5304.4063,494.305 5306.9063,494.305 Q5307.6094,494.305 5308.25,494.4612 Q5308.9063,494.6175 5309.4688,494.9144 L5309.4688,497.6331 Q5308.8438,497.055 5308.25,496.7894 Q5307.6563,496.5081 5307.0313,496.5081 Q5305.6875,496.5081 5305,497.5862 Q5304.3125,498.6487 5304.3125,500.7425 Q5304.3125,502.8362 5305,503.9144 Q5305.6875,504.9769 5307.0313,504.9769 Q5307.6563,504.9769 5308.25,504.7112 Q5308.8438,504.43 5309.4688,503.8519 L5309.4688,506.5706 Z " fill="#000000"/><text fill="#000000" font-family="sans-serif" font-size="14" lengthAdjust="spacing" textLength="93" x="5320.5" y="505.7767">CategoryDTO</text><line style="stroke:#181818;stroke-width:0.5;" x1="5292.5" x2="5415.5" y1="516.93" y2="516.93"/><text fill="#000000" font-family="sans-serif" font-size="14" lengthAdjust="spacing" textLength="60" x="5297.5" y="533.9251">-id: Long</text><text fill="#000000" font-family="sans-serif" font-size="14" lengthAdjust="spacing" textLength="93" x="5297.5" y="550.222">-name: String</text><line style="stroke:#181818;stroke-width:0.5;" x1="5292.5" x2="5415.5" y1="557.5238" y2="557.5238"/></g><!--class SubDTO--><g id="elem_SubDTO"><rect codeLine="134" fill="#F1F1F1" height="129.4844" id="SubDTO" rx="2.5" ry="2.5" style="stroke:#181818;stroke-width:0.5;" width="143" x="5451.5" y="460.48"/><ellipse cx="5490.35" cy="476.48" fill="#ADD1B2" rx="11" ry="11" style="stroke:#181818;stroke-width:1.0;"/><path d="M5493.3188,482.1206 Q5492.7406,482.4175 5492.1,482.5581 Q5491.4594,482.7144 5490.7563,482.7144 Q5488.2563,482.7144 5486.9281,481.0737 Q5485.6156,479.4175 5485.6156,476.2925 Q5485.6156,473.1675 5486.9281,471.5112 Q5488.2563,469.855 5490.7563,469.855 Q5491.4594,469.855 5492.1,470.0112 Q5492.7563,470.1675 5493.3188,470.4644 L5493.3188,473.1831 Q5492.6938,472.605 5492.1,472.3394 Q5491.5063,472.0581 5490.8813,472.0581 Q5489.5375,472.0581 5488.85,473.1362 Q5488.1625,474.1987 5488.1625,476.2925 Q5488.1625,478.3862 5488.85,479.4644 Q5489.5375,480.5269 5490.8813,480.5269 Q5491.5063,480.5269 5492.1,480.2612 Q5492.6938,479.98 5493.3188,479.4019 L5493.3188,482.1206 Z " fill="#000000"/><text fill="#000000" font-family="sans-serif" font-size="14" lengthAdjust="spacing" textLength="58" x="5509.65" y="481.3267">SubDTO</text><line style="stroke:#181818;stroke-width:0.5;" x1="5452.5" x2="5593.5" y1="492.48" y2="492.48"/><text fill="#000000" font-family="sans-serif" font-size="14" lengthAdjust="spacing" textLength="60" x="5457.5" y="509.4751">-id: Long</text><text fill="#000000" font-family="sans-serif" font-size="14" lengthAdjust="spacing" textLength="93" x="5457.5" y="525.772">-name: String</text><text fill="#000000" font-family="sans-serif" font-size="14" lengthAdjust="spacing" textLength="131" x="5457.5" y="542.0689">-description: String</text><text fill="#000000" font-family="sans-serif" font-size="14" lengthAdjust="spacing" textLength="70" x="5457.5" y="558.3657">-fee: Long</text><text fill="#000000" font-family="sans-serif" font-size="14" lengthAdjust="spacing" textLength="131" x="5457.5" y="574.6626">-maxShareNum: int</text><line style="stroke:#181818;stroke-width:0.5;" x1="5452.5" x2="5593.5" y1="581.9644" y2="581.9644"/></g><!--class InfraException--><g id="elem_InfraException"><rect codeLine="144" fill="#F1F1F1" height="48" id="InfraException" rx="2.5" ry="2.5" style="stroke:#181818;stroke-width:0.5;" width="129" x="5650.5" y="501.22"/><ellipse cx="5665.5" cy="517.22" fill="#ADD1B2" rx="11" ry="11" style="stroke:#181818;stroke-width:1.0;"/><path d="M5668.4688,522.8606 Q5667.8906,523.1575 5667.25,523.2981 Q5666.6094,523.4544 5665.9063,523.4544 Q5663.4063,523.4544 5662.0781,521.8138 Q5660.7656,520.1575 5660.7656,517.0325 Q5660.7656,513.9075 5662.0781,512.2513 Q5663.4063,510.595 5665.9063,510.595 Q5666.6094,510.595 5667.25,510.7513 Q5667.9063,510.9075 5668.4688,511.2044 L5668.4688,513.9231 Q5667.8438,513.345 5667.25,513.0794 Q5666.6563,512.7981 5666.0313,512.7981 Q5664.6875,512.7981 5664,513.8763 Q5663.3125,514.9388 5663.3125,517.0325 Q5663.3125,519.1263 5664,520.2044 Q5664.6875,521.2669 5666.0313,521.2669 Q5666.6563,521.2669 5667.25,521.0013 Q5667.8438,520.72 5668.4688,520.1419 L5668.4688,522.8606 Z " fill="#000000"/><text fill="#000000" font-family="sans-serif" font-size="14" lengthAdjust="spacing" textLength="97" x="5679.5" y="522.0667">InfraException</text><line style="stroke:#181818;stroke-width:0.5;" x1="5651.5" x2="5778.5" y1="533.22" y2="533.22"/><line style="stroke:#181818;stroke-width:0.5;" x1="5651.5" x2="5778.5" y1="541.22" y2="541.22"/></g><!--link SubRecommendServiceImpl to ISubRecommendProvider--><g id="link_SubRecommendServiceImpl_ISubRecommendProvider"><path codeLine="150" d="M358,250.93 C358,308.41 358,408.76 358,470.48 " fill="none" id="SubRecommendServiceImpl-to-ISubRecommendProvider" style="stroke:#181818;stroke-width:1.0;stroke-dasharray:7.0,7.0;"/><polygon fill="#181818" points="358,476.48,362,467.48,358,471.48,354,467.48,358,476.48" style="stroke:#181818;stroke-width:1.0;"/></g><!--link SubRecommendController to ISubRecommendService--><g id="link_SubRecommendController_ISubRecommendService"><path codeLine="152" d="M2368.21,484.93 C2072.5,448.91 1641.17,388.77 1270,307.19 C1200.76,291.97 1130.4214,271.8352 1068.9814,252.8052 " fill="none" id="SubRecommendController-to-ISubRecommendService" style="stroke:#181818;stroke-width:1.0;stroke-dasharray:7.0,7.0;"/><polygon fill="#181818" points="1063.25,251.03,1070.6636,257.5137,1068.0261,252.5093,1073.0305,249.8719,1063.25,251.03" style="stroke:#181818;stroke-width:1.0;"/></g><!--link SubRecommendController to SubRecommendControllerHelper--><g id="link_SubRecommendController_SubRecommendControllerHelper"><path codeLine="153" d="M2723,574.04 C2723,613.13 2723,661.73 2723,698.43 " fill="none" id="SubRecommendController-to-SubRecommendControllerHelper" style="stroke:#181818;stroke-width:1.0;stroke-dasharray:7.0,7.0;"/><polygon fill="#181818" points="2723,704.43,2727,695.43,2723,699.43,2719,695.43,2723,704.43" style="stroke:#181818;stroke-width:1.0;"/></g><!--reverse link ICategoryRepository to SubRecommendProviderImpl--><g id="link_ICategoryRepository_SubRecommendProviderImpl"><path codeLine="155" d="M4371.0925,559.9816 C4310.0125,584.2016 4229.04,616.17 4153,645.67 C4110.2,662.27 4063.33,680.22 4021.41,696.2 " fill="none" id="ICategoryRepository-backto-SubRecommendProviderImpl" style="stroke:#181818;stroke-width:1.0;stroke-dasharray:7.0,7.0;"/><polygon fill="#181818" points="4376.67,557.77,4366.8293,557.3691,4372.0221,559.613,4369.7782,564.8058,4376.67,557.77" style="stroke:#181818;stroke-width:1.0;"/></g><!--reverse link ISubRepository to SubRecommendProviderImpl--><g id="link_ISubRepository_SubRecommendProviderImpl"><path codeLine="156" d="M3895,571.94 C3895,608.64 3895,657.24 3895,696.32 " fill="none" id="ISubRepository-backto-SubRecommendProviderImpl" style="stroke:#181818;stroke-width:1.0;stroke-dasharray:7.0,7.0;"/><polygon fill="#181818" points="3895,565.94,3891,574.94,3895,570.94,3899,574.94,3895,565.94" style="stroke:#181818;stroke-width:1.0;"/></g><!--reverse link ISpendingRepository to SubRecommendProviderImpl--><g id="link_ISpendingRepository_SubRecommendProviderImpl"><path codeLine="157" d="M3463.9135,560.6759 C3511.3935,585.7959 3575.04,618.32 3637,645.67 C3677.02,663.33 3721.29,680.91 3761.7,696.23 " fill="none" id="ISpendingRepository-backto-SubRecommendProviderImpl" style="stroke:#181818;stroke-width:1.0;stroke-dasharray:7.0,7.0;"/><polygon fill="#181818" points="3458.61,557.87,3464.6946,565.6145,3463.0296,560.2082,3468.4358,558.5432,3458.61,557.87" style="stroke:#181818;stroke-width:1.0;"/></g><!--reverse link Category to CategoryEntity--><g id="link_Category_CategoryEntity"><path codeLine="159" d="M1622.8886,262.8261 C1646.8886,281.6761 1672.14,297.42 1703,307.19 C1724.83,314.09 4980.3,303.51 5000,315.19 C5055.58,348.14 5086.13,418.55 5101.51,468.54 " fill="none" id="Category-backto-CategoryEntity" style="stroke:#181818;stroke-width:1.0;stroke-dasharray:7.0,7.0;"/><polygon fill="#181818" points="1618.17,259.12,1622.7772,267.8248,1622.1022,262.2084,1627.7186,261.5334,1618.17,259.12" style="stroke:#181818;stroke-width:1.0;"/></g><!--reverse link Sub to SubEntity--><g id="link_Sub_SubEntity"><path codeLine="160" d="M1420.5238,287.5556 C1431.3638,297.1456 1438.96,301.6 1452,307.19 C1473.1,316.21 4736.89,304.12 4757,315.19 C4806.74,342.57 4840.54,397.29 4861.62,443.88 " fill="none" id="Sub-backto-SubEntity" style="stroke:#181818;stroke-width:1.0;stroke-dasharray:7.0,7.0;"/><polygon fill="#181818" points="1416.03,283.58,1420.1203,292.5393,1419.7749,286.893,1425.4211,286.5476,1416.03,283.58" style="stroke:#181818;stroke-width:1.0;"/></g><!--SRC=[xLXRRzem57xFhuZwHBKLzHaXf54gBL9R9h8VK9CScDN4ZcodAqpzxtEk9F4b2OANQNb0E3u-FkSxjm_u6oO9OYXsWmXn_aq8XhUf02-WnCT7SEyT9q716zg3wwVR3GGqZe64xX_7bK-rjSN7yatpRSeXG1mQEyrTUJ5behEPFPW8O3iKWEirh_I1lUC0D0UovyiUH2twW0JiAJii3tuYbvZi9z8MveKprvSEaltjpAraFBAZgv_hVgNIbYVCnV9GdPm4bGgfzudcMZE9kPGijIuKjP-EUQM5YQPY74u_67t78J0BK1Kg3LyKV9vHCYyMNtFd5aPjAjgrLjvveS7VR6GNRo-q8Nu1gBanm_BYS3NPwCL9z8zcvEcRKjWXZH4c7RyBZ2fJDA3SuT8gTOUW62ear5rJ5WsDRnszIneL0WyOJWIcn2mKr1ORq_rk1s2o84OV_Y_4u2MDPrcvTmNEY9oWrh2LMQ83gfjRPeaNAt222XHLLQ1HDIIG5ZEl6izHiHeV7VW88BT06wCbFZuQ1BhQYq-dFMvt36c6zCqh9gytXXdz6xQ3kk439OBHAB9E7QKPgYrm0poXXCCZ4LWSvjLIXdhUoT35Od1_r7L5oqNTXccvIKgjG20SJRYK7wIzgRYd5IlftuVzTuWISmG4FTsTsJlBjDpE6kNKVow7anUmDaRlbSQCf3w6l6IGK3iZgj9b8oKv5lg9bFktmoGSHrtMUGcYgCx98ivdnRDBuePPUw94QoQftZ9lkRRfRxAmeLFIgtOMrsvQpe_qiCIqtyrpIQhc_j4q48Ke4TewKekl8jizFF0_uTOY3NbM6O5kbvS1NlF0xn_wmzbbenkkSl8xiI4wfezVrxaXhCR0L0l3zD8r3z9ufcL3_M1AA2xoqwI7u5wEDGxXgTVdg9e0Z66fb-QeNiOoXxFKJySn_QYUJXVw_pNQHnhCKpbHghF9suXK-w9Mfv-cINQPIZ9wZxI6VB-qCZ0TfzCL2ycw5PqwIh4Xrty1]--></g></svg>