<svg xmlns="http://www.w3.org/2000/svg" xmlns:xlink="http://www.w3.org/1999/xlink" contentStyleType="text/css" height="989px" preserveAspectRatio="none" style="width:4566px;height:989px;background:#FFFFFF;" version="1.1" viewBox="0 0 4566 989" width="4566px" zoomAndPan="magnify"><defs/><g><!--cluster MySubApplication--><g id="cluster_MySubApplication"><path d="M8.5,6 L148.5,6 A3.75,3.75 0 0 1 151,8.5 L158,28.2969 L4556.5,28.2969 A2.5,2.5 0 0 1 4559,30.7969 L4559,980.33 A2.5,2.5 0 0 1 4556.5,982.83 L8.5,982.83 A2.5,2.5 0 0 1 6,980.33 L6,8.5 A2.5,2.5 0 0 1 8.5,6 " fill="none" style="stroke:#000000;stroke-width:1.5;"/><line style="stroke:#000000;stroke-width:1.5;" x1="6" x2="158" y1="28.2969" y2="28.2969"/><text fill="#000000" font-family="sans-serif" font-size="14" font-weight="bold" lengthAdjust="spacing" textLength="139" x="10" y="20.9951">MySubApplication</text></g><!--cluster biz_usecase--><g id="cluster_biz_usecase"><path d="M164.5,277.93 L259.5,277.93 A3.75,3.75 0 0 1 262,280.43 L269,300.2269 L591.5,300.2269 A2.5,2.5 0 0 1 594,302.7269 L594,956.33 A2.5,2.5 0 0 1 591.5,958.83 L164.5,958.83 A2.5,2.5 0 0 1 162,956.33 L162,280.43 A2.5,2.5 0 0 1 164.5,277.93 " fill="none" style="stroke:#000000;stroke-width:1.5;"/><line style="stroke:#000000;stroke-width:1.5;" x1="162" x2="269" y1="300.2269" y2="300.2269"/><text fill="#000000" font-family="sans-serif" font-size="14" font-weight="bold" lengthAdjust="spacing" textLength="94" x="166" y="292.9251">biz.usecase</text></g><!--cluster inport--><g id="cluster_inport"><path d="M188.5,320.93 L236.5,320.93 A3.75,3.75 0 0 1 239,323.43 L246,343.2269 L567.5,343.2269 A2.5,2.5 0 0 1 570,345.7269 L570,498.92 A2.5,2.5 0 0 1 567.5,501.42 L188.5,501.42 A2.5,2.5 0 0 1 186,498.92 L186,323.43 A2.5,2.5 0 0 1 188.5,320.93 " fill="none" style="stroke:#000000;stroke-width:1.5;"/><line style="stroke:#000000;stroke-width:1.5;" x1="186" x2="246" y1="343.2269" y2="343.2269"/><text fill="#000000" font-family="sans-serif" font-size="14" font-weight="bold" lengthAdjust="spacing" textLength="47" x="190" y="335.9251">inport</text></g><!--cluster outport--><g id="cluster_outport"><path d="M192.5,754.35 L252.5,754.35 A3.75,3.75 0 0 1 255,756.85 L262,776.6469 L565.5,776.6469 A2.5,2.5 0 0 1 568,779.1469 L568,932.33 A2.5,2.5 0 0 1 565.5,934.83 L192.5,934.83 A2.5,2.5 0 0 1 190,932.33 L190,756.85 A2.5,2.5 0 0 1 192.5,754.35 " fill="none" style="stroke:#000000;stroke-width:1.5;"/><line style="stroke:#000000;stroke-width:1.5;" x1="190" x2="262" y1="776.6469" y2="776.6469"/><text fill="#000000" font-family="sans-serif" font-size="14" font-weight="bold" lengthAdjust="spacing" textLength="59" x="194" y="769.3451">outport</text></g><!--cluster service--><g id="cluster_service"><path d="M188.5,533.56 L247.5,533.56 A3.75,3.75 0 0 1 250,536.06 L257,555.8569 L567.5,555.8569 A2.5,2.5 0 0 1 570,558.3569 L570,727.85 A2.5,2.5 0 0 1 567.5,730.35 L188.5,730.35 A2.5,2.5 0 0 1 186,727.85 L186,536.06 A2.5,2.5 0 0 1 188.5,533.56 " fill="none" style="stroke:#000000;stroke-width:1.5;"/><line style="stroke:#000000;stroke-width:1.5;" x1="186" x2="257" y1="555.8569" y2="555.8569"/><text fill="#000000" font-family="sans-serif" font-size="14" font-weight="bold" lengthAdjust="spacing" textLength="58" x="190" y="548.5551">service</text></g><!--cluster biz_domain--><g id="cluster_biz_domain"><path d="M1694.5,345.38 L1780.5,345.38 A3.75,3.75 0 0 1 1783,347.88 L1790,367.6769 L1831.5,367.6769 A2.5,2.5 0 0 1 1834,370.1769 L1834,474.47 A2.5,2.5 0 0 1 1831.5,476.97 L1694.5,476.97 A2.5,2.5 0 0 1 1692,474.47 L1692,347.88 A2.5,2.5 0 0 1 1694.5,345.38 " fill="none" style="stroke:#000000;stroke-width:1.5;"/><line style="stroke:#000000;stroke-width:1.5;" x1="1692" x2="1790" y1="367.6769" y2="367.6769"/><text fill="#000000" font-family="sans-serif" font-size="14" font-weight="bold" lengthAdjust="spacing" textLength="85" x="1696" y="360.3751">biz.domain</text></g><!--cluster biz_dto--><g id="cluster_biz_dto"><path d="M32.5,89.74 L87.5,89.74 A3.75,3.75 0 0 1 90,92.24 L97,112.0369 L169.5,112.0369 A2.5,2.5 0 0 1 172,114.5369 L172,218.84 A2.5,2.5 0 0 1 169.5,221.34 L32.5,221.34 A2.5,2.5 0 0 1 30,218.84 L30,92.24 A2.5,2.5 0 0 1 32.5,89.74 " fill="none" style="stroke:#000000;stroke-width:1.5;"/><line style="stroke:#000000;stroke-width:1.5;" x1="30" x2="97" y1="112.0369" y2="112.0369"/><text fill="#000000" font-family="sans-serif" font-size="14" font-weight="bold" lengthAdjust="spacing" textLength="54" x="34" y="104.7351">biz.dto</text></g><!--cluster biz_exception--><g id="cluster_biz_exception"><path d="M198.5,89.74 L305.5,89.74 A3.75,3.75 0 0 1 308,92.24 L315,112.0369 L591.5,112.0369 A2.5,2.5 0 0 1 594,114.5369 L594,218.84 A2.5,2.5 0 0 1 591.5,221.34 L198.5,221.34 A2.5,2.5 0 0 1 196,218.84 L196,92.24 A2.5,2.5 0 0 1 198.5,89.74 " fill="none" style="stroke:#000000;stroke-width:1.5;"/><line style="stroke:#000000;stroke-width:1.5;" x1="196" x2="315" y1="112.0369" y2="112.0369"/><text fill="#000000" font-family="sans-serif" font-size="14" font-weight="bold" lengthAdjust="spacing" textLength="106" x="200" y="104.7351">biz.exception</text></g><!--cluster infra_in_web--><g id="cluster_infra_in_web"><path d="M620.5,49 L715.5,49 A3.75,3.75 0 0 1 718,51.5 L725,71.2969 L1263.5,71.2969 A2.5,2.5 0 0 1 1266,73.7969 L1266,482.62 A2.5,2.5 0 0 1 1263.5,485.12 L620.5,485.12 A2.5,2.5 0 0 1 618,482.62 L618,51.5 A2.5,2.5 0 0 1 620.5,49 " fill="none" style="stroke:#000000;stroke-width:1.5;"/><line style="stroke:#000000;stroke-width:1.5;" x1="618" x2="725" y1="71.2969" y2="71.2969"/><text fill="#000000" font-family="sans-serif" font-size="14" font-weight="bold" lengthAdjust="spacing" textLength="94" x="622" y="63.9951">infra.in.web</text></g><!--cluster infra_out_repo--><g id="cluster_infra_out_repo"><path d="M871.5,549.86 L985.5,549.86 A3.75,3.75 0 0 1 988,552.36 L995,572.1569 L1250.5,572.1569 A2.5,2.5 0 0 1 1253,574.6569 L1253,711.55 A2.5,2.5 0 0 1 1250.5,714.05 L871.5,714.05 A2.5,2.5 0 0 1 869,711.55 L869,552.36 A2.5,2.5 0 0 1 871.5,549.86 " fill="none" style="stroke:#000000;stroke-width:1.5;"/><line style="stroke:#000000;stroke-width:1.5;" x1="869" x2="995" y1="572.1569" y2="572.1569"/><text fill="#000000" font-family="sans-serif" font-size="14" font-weight="bold" lengthAdjust="spacing" textLength="113" x="873" y="564.8551">infra_out_repo</text></g><!--cluster infra_out_adapter--><g id="cluster_infra_out_adapter"><path d="M1292.5,312.78 L1426.5,312.78 A3.75,3.75 0 0 1 1429,315.28 L1436,335.0769 L1665.5,335.0769 A2.5,2.5 0 0 1 1668,337.5769 L1668,507.06 A2.5,2.5 0 0 1 1665.5,509.56 L1292.5,509.56 A2.5,2.5 0 0 1 1290,507.06 L1290,315.28 A2.5,2.5 0 0 1 1292.5,312.78 " fill="none" style="stroke:#000000;stroke-width:1.5;"/><line style="stroke:#000000;stroke-width:1.5;" x1="1290" x2="1436" y1="335.0769" y2="335.0769"/><text fill="#000000" font-family="sans-serif" font-size="14" font-weight="bold" lengthAdjust="spacing" textLength="133" x="1294" y="327.7751">infra.out.adapter</text></g><!--cluster infra_out_entity--><g id="cluster_infra_out_entity"><path d="M1292.5,81.6 L1410.5,81.6 A3.75,3.75 0 0 1 1413,84.1 L1420,103.8969 L1475.5,103.8969 A2.5,2.5 0 0 1 1478,106.3969 L1478,226.99 A2.5,2.5 0 0 1 1475.5,229.49 L1292.5,229.49 A2.5,2.5 0 0 1 1290,226.99 L1290,84.1 A2.5,2.5 0 0 1 1292.5,81.6 " fill="none" style="stroke:#000000;stroke-width:1.5;"/><line style="stroke:#000000;stroke-width:1.5;" x1="1290" x2="1420" y1="103.8969" y2="103.8969"/><text fill="#000000" font-family="sans-serif" font-size="14" font-weight="bold" lengthAdjust="spacing" textLength="117" x="1294" y="96.5951">infra.out.entity</text></g><!--cluster infra_common_jwt--><g id="cluster_infra_common_jwt"><path d="M1504.5,73.45 L1642.5,73.45 A3.75,3.75 0 0 1 1645,75.95 L1652,95.7469 L3120.5,95.7469 A2.5,2.5 0 0 1 3123,98.2469 L3123,235.13 A2.5,2.5 0 0 1 3120.5,237.63 L1504.5,237.63 A2.5,2.5 0 0 1 1502,235.13 L1502,75.95 A2.5,2.5 0 0 1 1504.5,73.45 " fill="none" style="stroke:#000000;stroke-width:1.5;"/><line style="stroke:#000000;stroke-width:1.5;" x1="1502" x2="1652" y1="95.7469" y2="95.7469"/><text fill="#000000" font-family="sans-serif" font-size="14" font-weight="bold" lengthAdjust="spacing" textLength="137" x="1506" y="88.4451">infra.common.jwt</text></g><!--cluster infra_common_config--><g id="cluster_infra_common_config"><path d="M3149.5,81.6 L3312.5,81.6 A3.75,3.75 0 0 1 3315,84.1 L3322,103.8969 L3862.5,103.8969 A2.5,2.5 0 0 1 3865,106.3969 L3865,482.62 A2.5,2.5 0 0 1 3862.5,485.12 L3149.5,485.12 A2.5,2.5 0 0 1 3147,482.62 L3147,84.1 A2.5,2.5 0 0 1 3149.5,81.6 " fill="none" style="stroke:#000000;stroke-width:1.5;"/><line style="stroke:#000000;stroke-width:1.5;" x1="3147" x2="3322" y1="103.8969" y2="103.8969"/><text fill="#000000" font-family="sans-serif" font-size="14" font-weight="bold" lengthAdjust="spacing" textLength="162" x="3151" y="96.5951">infra.common.config</text></g><!--cluster infra_dto--><g id="cluster_infra_dto"><path d="M3891.5,89.74 L3959.5,89.74 A3.75,3.75 0 0 1 3962,92.24 L3969,112.0369 L4032.5,112.0369 A2.5,2.5 0 0 1 4035,114.5369 L4035,218.84 A2.5,2.5 0 0 1 4032.5,221.34 L3891.5,221.34 A2.5,2.5 0 0 1 3889,218.84 L3889,92.24 A2.5,2.5 0 0 1 3891.5,89.74 " fill="none" style="stroke:#000000;stroke-width:1.5;"/><line style="stroke:#000000;stroke-width:1.5;" x1="3889" x2="3969" y1="112.0369" y2="112.0369"/><text fill="#000000" font-family="sans-serif" font-size="14" font-weight="bold" lengthAdjust="spacing" textLength="67" x="3893" y="104.7351">infra.dto</text></g><!--cluster infra_exception--><g id="cluster_infra_exception"><path d="M4061.5,57.15 L4181.5,57.15 A3.75,3.75 0 0 1 4184,59.65 L4191,79.4469 L4532.5,79.4469 A2.5,2.5 0 0 1 4535,81.9469 L4535,251.43 A2.5,2.5 0 0 1 4532.5,253.93 L4061.5,253.93 A2.5,2.5 0 0 1 4059,251.43 L4059,59.65 A2.5,2.5 0 0 1 4061.5,57.15 " fill="none" style="stroke:#000000;stroke-width:1.5;"/><line style="stroke:#000000;stroke-width:1.5;" x1="4059" x2="4191" y1="79.4469" y2="79.4469"/><text fill="#000000" font-family="sans-serif" font-size="14" font-weight="bold" lengthAdjust="spacing" textLength="119" x="4063" y="72.1451">infra.exception</text></g><!--class IMySubService--><g id="elem_IMySubService"><rect codeLine="7" fill="#F1F1F1" height="129.4844" id="IMySubService" rx="2.5" ry="2.5" style="stroke:#181818;stroke-width:0.5;" width="351" x="202.5" y="355.93"/><ellipse cx="324.25" cy="371.93" fill="#B4A7E5" rx="11" ry="11" style="stroke:#181818;stroke-width:1.0;"/><path d="M320.1719,367.6956 L320.1719,365.5394 L327.5625,365.5394 L327.5625,367.6956 L325.0938,367.6956 L325.0938,375.7738 L327.5625,375.7738 L327.5625,377.93 L320.1719,377.93 L320.1719,375.7738 L322.6406,375.7738 L322.6406,367.6956 L320.1719,367.6956 Z " fill="#000000"/><text fill="#000000" font-family="sans-serif" font-size="14" font-style="italic" lengthAdjust="spacing" textLength="99" x="344.75" y="376.7767">IMySubService</text><line style="stroke:#181818;stroke-width:0.5;" x1="203.5" x2="552.5" y1="387.93" y2="387.93"/><line style="stroke:#181818;stroke-width:0.5;" x1="203.5" x2="552.5" y1="395.93" y2="395.93"/><text fill="#000000" font-family="sans-serif" font-size="14" lengthAdjust="spacing" textLength="267" x="208.5" y="412.9251">+getTotalSubFee(userId: String): Long</text><text fill="#000000" font-family="sans-serif" font-size="14" lengthAdjust="spacing" textLength="306" x="208.5" y="429.222">+getMaxSavingAmount(userId: String): Long</text><text fill="#000000" font-family="sans-serif" font-size="14" lengthAdjust="spacing" textLength="339" x="208.5" y="445.5189">+getMySubList(userId: String): List&lt;MySubDTO&gt;</text><text fill="#000000" font-family="sans-serif" font-size="14" lengthAdjust="spacing" textLength="212" x="208.5" y="461.8157">+cancelSub(subId: Long): void</text><text fill="#000000" font-family="sans-serif" font-size="14" lengthAdjust="spacing" textLength="335" x="208.5" y="478.1126">+subscribeSub(subId: Long, userId: String): void</text></g><!--class IMySubProvider--><g id="elem_IMySubProvider"><rect codeLine="16" fill="#F1F1F1" height="129.4844" id="IMySubProvider" rx="2.5" ry="2.5" style="stroke:#181818;stroke-width:0.5;" width="347" x="205.5" y="789.35"/><ellipse cx="322.25" cy="805.35" fill="#B4A7E5" rx="11" ry="11" style="stroke:#181818;stroke-width:1.0;"/><path d="M318.1719,801.1156 L318.1719,798.9594 L325.5625,798.9594 L325.5625,801.1156 L323.0938,801.1156 L323.0938,809.1938 L325.5625,809.1938 L325.5625,811.35 L318.1719,811.35 L318.1719,809.1938 L320.6406,809.1938 L320.6406,801.1156 L318.1719,801.1156 Z " fill="#000000"/><text fill="#000000" font-family="sans-serif" font-size="14" font-style="italic" lengthAdjust="spacing" textLength="105" x="342.75" y="810.1967">IMySubProvider</text><line style="stroke:#181818;stroke-width:0.5;" x1="206.5" x2="551.5" y1="821.35" y2="821.35"/><line style="stroke:#181818;stroke-width:0.5;" x1="206.5" x2="551.5" y1="829.35" y2="829.35"/><text fill="#000000" font-family="sans-serif" font-size="14" lengthAdjust="spacing" textLength="267" x="211.5" y="846.3451">+getTotalSubFee(userId: String): Long</text><text fill="#000000" font-family="sans-serif" font-size="14" lengthAdjust="spacing" textLength="306" x="211.5" y="862.642">+getMaxSavingAmount(userId: String): Long</text><text fill="#000000" font-family="sans-serif" font-size="14" lengthAdjust="spacing" textLength="308" x="211.5" y="878.9389">+getMySubList(userId: String): List&lt;MySub&gt;</text><text fill="#000000" font-family="sans-serif" font-size="14" lengthAdjust="spacing" textLength="212" x="211.5" y="895.2357">+cancelSub(subId: Long): void</text><text fill="#000000" font-family="sans-serif" font-size="14" lengthAdjust="spacing" textLength="335" x="211.5" y="911.5326">+subscribeSub(subId: Long, userId: String): void</text></g><!--class MySubServiceImpl--><g id="elem_MySubServiceImpl"><rect codeLine="25" fill="#F1F1F1" height="145.7813" id="MySubServiceImpl" rx="2.5" ry="2.5" style="stroke:#181818;stroke-width:0.5;" width="351" x="202.5" y="568.56"/><ellipse cx="311.75" cy="584.56" fill="#ADD1B2" rx="11" ry="11" style="stroke:#181818;stroke-width:1.0;"/><path d="M314.7188,590.2006 Q314.1406,590.4975 313.5,590.6381 Q312.8594,590.7944 312.1563,590.7944 Q309.6563,590.7944 308.3281,589.1538 Q307.0156,587.4975 307.0156,584.3725 Q307.0156,581.2475 308.3281,579.5913 Q309.6563,577.935 312.1563,577.935 Q312.8594,577.935 313.5,578.0913 Q314.1563,578.2475 314.7188,578.5444 L314.7188,581.2631 Q314.0938,580.685 313.5,580.4194 Q312.9063,580.1381 312.2813,580.1381 Q310.9375,580.1381 310.25,581.2163 Q309.5625,582.2788 309.5625,584.3725 Q309.5625,586.4663 310.25,587.5444 Q310.9375,588.6069 312.2813,588.6069 Q312.9063,588.6069 313.5,588.3413 Q314.0938,588.06 314.7188,587.4819 L314.7188,590.2006 Z " fill="#000000"/><text fill="#000000" font-family="sans-serif" font-size="14" lengthAdjust="spacing" textLength="124" x="332.25" y="589.4067">MySubServiceImpl</text><line style="stroke:#181818;stroke-width:0.5;" x1="203.5" x2="552.5" y1="600.56" y2="600.56"/><text fill="#000000" font-family="sans-serif" font-size="14" lengthAdjust="spacing" textLength="222" x="208.5" y="617.5551">-mySubProvider: IMySubProvider</text><line style="stroke:#181818;stroke-width:0.5;" x1="203.5" x2="552.5" y1="624.8569" y2="624.8569"/><text fill="#000000" font-family="sans-serif" font-size="14" lengthAdjust="spacing" textLength="267" x="208.5" y="641.852">+getTotalSubFee(userId: String): Long</text><text fill="#000000" font-family="sans-serif" font-size="14" lengthAdjust="spacing" textLength="306" x="208.5" y="658.1489">+getMaxSavingAmount(userId: String): Long</text><text fill="#000000" font-family="sans-serif" font-size="14" lengthAdjust="spacing" textLength="339" x="208.5" y="674.4457">+getMySubList(userId: String): List&lt;MySubDTO&gt;</text><text fill="#000000" font-family="sans-serif" font-size="14" lengthAdjust="spacing" textLength="212" x="208.5" y="690.7426">+cancelSub(subId: Long): void</text><text fill="#000000" font-family="sans-serif" font-size="14" lengthAdjust="spacing" textLength="335" x="208.5" y="707.0395">+subscribeSub(subId: Long, userId: String): void</text></g><!--class MySub--><g id="elem_MySub"><rect codeLine="40" fill="#F1F1F1" height="80.5938" id="MySub" rx="2.5" ry="2.5" style="stroke:#181818;stroke-width:0.5;" width="109" x="1708.5" y="380.38"/><ellipse cx="1737.45" cy="396.38" fill="#ADD1B2" rx="11" ry="11" style="stroke:#181818;stroke-width:1.0;"/><path d="M1740.4188,402.0206 Q1739.8406,402.3175 1739.2,402.4581 Q1738.5594,402.6144 1737.8563,402.6144 Q1735.3563,402.6144 1734.0281,400.9738 Q1732.7156,399.3175 1732.7156,396.1925 Q1732.7156,393.0675 1734.0281,391.4113 Q1735.3563,389.755 1737.8563,389.755 Q1738.5594,389.755 1739.2,389.9113 Q1739.8563,390.0675 1740.4188,390.3644 L1740.4188,393.0831 Q1739.7938,392.505 1739.2,392.2394 Q1738.6063,391.9581 1737.9813,391.9581 Q1736.6375,391.9581 1735.95,393.0363 Q1735.2625,394.0988 1735.2625,396.1925 Q1735.2625,398.2863 1735.95,399.3644 Q1736.6375,400.4269 1737.9813,400.4269 Q1738.6063,400.4269 1739.2,400.1613 Q1739.7938,399.88 1740.4188,399.3019 L1740.4188,402.0206 Z " fill="#000000"/><text fill="#000000" font-family="sans-serif" font-size="14" lengthAdjust="spacing" textLength="46" x="1754.55" y="401.2267">MySub</text><line style="stroke:#181818;stroke-width:0.5;" x1="1709.5" x2="1816.5" y1="412.38" y2="412.38"/><text fill="#000000" font-family="sans-serif" font-size="14" lengthAdjust="spacing" textLength="97" x="1714.5" y="429.3751">-userId: String</text><text fill="#000000" font-family="sans-serif" font-size="14" lengthAdjust="spacing" textLength="86" x="1714.5" y="445.672">-subId: Long</text><line style="stroke:#181818;stroke-width:0.5;" x1="1709.5" x2="1816.5" y1="452.9738" y2="452.9738"/></g><!--class MySubDTO--><g id="elem_MySubDTO"><rect codeLine="47" fill="#F1F1F1" height="80.5938" id="MySubDTO" rx="2.5" ry="2.5" style="stroke:#181818;stroke-width:0.5;" width="109" x="46.5" y="124.74"/><ellipse cx="61.5" cy="140.74" fill="#ADD1B2" rx="11" ry="11" style="stroke:#181818;stroke-width:1.0;"/><path d="M64.4688,146.3806 Q63.8906,146.6775 63.25,146.8181 Q62.6094,146.9744 61.9063,146.9744 Q59.4063,146.9744 58.0781,145.3338 Q56.7656,143.6775 56.7656,140.5525 Q56.7656,137.4275 58.0781,135.7713 Q59.4063,134.115 61.9063,134.115 Q62.6094,134.115 63.25,134.2713 Q63.9063,134.4275 64.4688,134.7244 L64.4688,137.4431 Q63.8438,136.865 63.25,136.5994 Q62.6563,136.3181 62.0313,136.3181 Q60.6875,136.3181 60,137.3963 Q59.3125,138.4588 59.3125,140.5525 Q59.3125,142.6463 60,143.7244 Q60.6875,144.7869 62.0313,144.7869 Q62.6563,144.7869 63.25,144.5213 Q63.8438,144.24 64.4688,143.6619 L64.4688,146.3806 Z " fill="#000000"/><text fill="#000000" font-family="sans-serif" font-size="14" lengthAdjust="spacing" textLength="77" x="75.5" y="145.5867">MySubDTO</text><line style="stroke:#181818;stroke-width:0.5;" x1="47.5" x2="154.5" y1="156.74" y2="156.74"/><text fill="#000000" font-family="sans-serif" font-size="14" lengthAdjust="spacing" textLength="97" x="52.5" y="173.7351">-userId: String</text><text fill="#000000" font-family="sans-serif" font-size="14" lengthAdjust="spacing" textLength="86" x="52.5" y="190.032">-subId: Long</text><line style="stroke:#181818;stroke-width:0.5;" x1="47.5" x2="154.5" y1="197.3338" y2="197.3338"/></g><!--class BizException--><g id="elem_BizException"><rect codeLine="54" fill="#F1F1F1" height="80.5938" id="BizException" rx="2.5" ry="2.5" style="stroke:#181818;stroke-width:0.5;" width="367" x="211.5" y="124.74"/><ellipse cx="346.25" cy="140.74" fill="#ADD1B2" rx="11" ry="11" style="stroke:#181818;stroke-width:1.0;"/><path d="M349.2188,146.3806 Q348.6406,146.6775 348,146.8181 Q347.3594,146.9744 346.6563,146.9744 Q344.1563,146.9744 342.8281,145.3338 Q341.5156,143.6775 341.5156,140.5525 Q341.5156,137.4275 342.8281,135.7713 Q344.1563,134.115 346.6563,134.115 Q347.3594,134.115 348,134.2713 Q348.6563,134.4275 349.2188,134.7244 L349.2188,137.4431 Q348.5938,136.865 348,136.5994 Q347.4063,136.3181 346.7813,136.3181 Q345.4375,136.3181 344.75,137.3963 Q344.0625,138.4588 344.0625,140.5525 Q344.0625,142.6463 344.75,143.7244 Q345.4375,144.7869 346.7813,144.7869 Q347.4063,144.7869 348,144.5213 Q348.5938,144.24 349.2188,143.6619 L349.2188,146.3806 Z " fill="#000000"/><text fill="#000000" font-family="sans-serif" font-size="14" lengthAdjust="spacing" textLength="89" x="366.75" y="145.5867">BizException</text><line style="stroke:#181818;stroke-width:0.5;" x1="212.5" x2="577.5" y1="156.74" y2="156.74"/><line style="stroke:#181818;stroke-width:0.5;" x1="212.5" x2="577.5" y1="164.74" y2="164.74"/><text fill="#000000" font-family="sans-serif" font-size="14" lengthAdjust="spacing" textLength="224" x="217.5" y="181.7351">+BizException(message: String)</text><text fill="#000000" font-family="sans-serif" font-size="14" lengthAdjust="spacing" textLength="355" x="217.5" y="198.032">+BizException(message: String, cause: Throwable)</text></g><!--class MySubController--><g id="elem_MySubController"><rect codeLine="61" fill="#F1F1F1" height="162.0781" id="MySubController" rx="2.5" ry="2.5" style="stroke:#181818;stroke-width:0.5;" width="616" x="634" y="84"/><ellipse cx="881.25" cy="100" fill="#ADD1B2" rx="11" ry="11" style="stroke:#181818;stroke-width:1.0;"/><path d="M884.2188,105.6406 Q883.6406,105.9375 883,106.0781 Q882.3594,106.2344 881.6563,106.2344 Q879.1563,106.2344 877.8281,104.5938 Q876.5156,102.9375 876.5156,99.8125 Q876.5156,96.6875 877.8281,95.0313 Q879.1563,93.375 881.6563,93.375 Q882.3594,93.375 883,93.5313 Q883.6563,93.6875 884.2188,93.9844 L884.2188,96.7031 Q883.5938,96.125 883,95.8594 Q882.4063,95.5781 881.7813,95.5781 Q880.4375,95.5781 879.75,96.6563 Q879.0625,97.7188 879.0625,99.8125 Q879.0625,101.9063 879.75,102.9844 Q880.4375,104.0469 881.7813,104.0469 Q882.4063,104.0469 883,103.7813 Q883.5938,103.5 884.2188,102.9219 L884.2188,105.6406 Z " fill="#000000"/><text fill="#000000" font-family="sans-serif" font-size="14" lengthAdjust="spacing" textLength="113" x="901.75" y="104.8467">MySubController</text><line style="stroke:#181818;stroke-width:0.5;" x1="635" x2="1249" y1="116" y2="116"/><text fill="#000000" font-family="sans-serif" font-size="14" lengthAdjust="spacing" textLength="210" x="640" y="132.9951">-mySubService: IMySubService</text><text fill="#000000" font-family="sans-serif" font-size="14" lengthAdjust="spacing" textLength="331" x="640" y="149.292">-mySubControllerHelper: MySubControllerHelper</text><line style="stroke:#181818;stroke-width:0.5;" x1="635" x2="1249" y1="156.5938" y2="156.5938"/><text fill="#000000" font-family="sans-serif" font-size="14" lengthAdjust="spacing" textLength="526" x="640" y="173.5889">+getTotalSubFee(userId: String): ResponseEntity&lt;ResponseDTO&lt;Long&gt;&gt;</text><text fill="#000000" font-family="sans-serif" font-size="14" lengthAdjust="spacing" textLength="565" x="640" y="189.8857">+getMaxSavingAmount(userId: String): ResponseEntity&lt;ResponseDTO&lt;Long&gt;&gt;</text><text fill="#000000" font-family="sans-serif" font-size="14" lengthAdjust="spacing" textLength="604" x="640" y="206.1826">+getMySubList(userId: String): ResponseEntity&lt;ResponseDTO&lt;List&lt;SubInfoDTO&gt;&gt;&gt;</text><text fill="#000000" font-family="sans-serif" font-size="14" lengthAdjust="spacing" textLength="473" x="640" y="222.4795">+cancelSub(subId: Long): ResponseEntity&lt;ResponseDTO&lt;Void&gt;&gt;</text><text fill="#000000" font-family="sans-serif" font-size="14" lengthAdjust="spacing" textLength="496" x="640" y="238.7764">+subscribeSub(subId: Long): ResponseEntity&lt;ResponseDTO&lt;Void&gt;&gt;</text></g><!--class MySubControllerHelper--><g id="elem_MySubControllerHelper"><rect codeLine="70" fill="#F1F1F1" height="96.8906" id="MySubControllerHelper" rx="2.5" ry="2.5" style="stroke:#181818;stroke-width:0.5;" width="465" x="747.5" y="372.23"/><ellipse cx="896.75" cy="388.23" fill="#ADD1B2" rx="11" ry="11" style="stroke:#181818;stroke-width:1.0;"/><path d="M899.7188,393.8706 Q899.1406,394.1675 898.5,394.3081 Q897.8594,394.4644 897.1563,394.4644 Q894.6563,394.4644 893.3281,392.8238 Q892.0156,391.1675 892.0156,388.0425 Q892.0156,384.9175 893.3281,383.2613 Q894.6563,381.605 897.1563,381.605 Q897.8594,381.605 898.5,381.7613 Q899.1563,381.9175 899.7188,382.2144 L899.7188,384.9331 Q899.0938,384.355 898.5,384.0894 Q897.9063,383.8081 897.2813,383.8081 Q895.9375,383.8081 895.25,384.8863 Q894.5625,385.9488 894.5625,388.0425 Q894.5625,390.1363 895.25,391.2144 Q895.9375,392.2769 897.2813,392.2769 Q897.9063,392.2769 898.5,392.0113 Q899.0938,391.73 899.7188,391.1519 L899.7188,393.8706 Z " fill="#000000"/><text fill="#000000" font-family="sans-serif" font-size="14" lengthAdjust="spacing" textLength="158" x="917.25" y="393.0767">MySubControllerHelper</text><line style="stroke:#181818;stroke-width:0.5;" x1="748.5" x2="1211.5" y1="404.23" y2="404.23"/><text fill="#000000" font-family="sans-serif" font-size="14" lengthAdjust="spacing" textLength="258" x="753.5" y="421.2251">-mySubRepository: IMySubRepository</text><line style="stroke:#181818;stroke-width:0.5;" x1="748.5" x2="1211.5" y1="428.5269" y2="428.5269"/><text fill="#000000" font-family="sans-serif" font-size="14" lengthAdjust="spacing" textLength="322" x="753.5" y="445.522">+getSubInfoDTO(mySub: MySub): SubInfoDTO</text><text fill="#000000" font-family="sans-serif" font-size="14" lengthAdjust="spacing" textLength="453" x="753.5" y="461.8189">+toSubInfoDTOList(mySubList: List&lt;MySub&gt;): List&lt;SubInfoDTO&gt;</text></g><!--class IMySubRepository--><g id="elem_IMySubRepository"><rect codeLine="82" fill="#F1F1F1" height="113.1875" id="IMySubRepository" rx="2.5" ry="2.5" style="stroke:#181818;stroke-width:0.5;" width="352" x="885" y="584.86"/><ellipse cx="995.25" cy="600.86" fill="#B4A7E5" rx="11" ry="11" style="stroke:#181818;stroke-width:1.0;"/><path d="M991.1719,596.6256 L991.1719,594.4694 L998.5625,594.4694 L998.5625,596.6256 L996.0938,596.6256 L996.0938,604.7038 L998.5625,604.7038 L998.5625,606.86 L991.1719,606.86 L991.1719,604.7038 L993.6406,604.7038 L993.6406,596.6256 L991.1719,596.6256 Z " fill="#000000"/><text fill="#000000" font-family="sans-serif" font-size="14" font-style="italic" lengthAdjust="spacing" textLength="123" x="1015.75" y="605.7067">IMySubRepository</text><line style="stroke:#181818;stroke-width:0.5;" x1="886" x2="1236" y1="616.86" y2="616.86"/><line style="stroke:#181818;stroke-width:0.5;" x1="886" x2="1236" y1="624.86" y2="624.86"/><text fill="#000000" font-family="sans-serif" font-size="14" lengthAdjust="spacing" textLength="340" x="891" y="641.8551">+findByUserId(userId: String): List&lt;MySubEntity&gt;</text><text fill="#000000" font-family="sans-serif" font-size="14" lengthAdjust="spacing" textLength="331" x="891" y="658.152">+findById(subId: Long): Optional&lt;MySubEntity&gt;</text><text fill="#000000" font-family="sans-serif" font-size="14" lengthAdjust="spacing" textLength="281" x="891" y="674.4489">+delete(mySubEntity: MySubEntity): void</text><text fill="#000000" font-family="sans-serif" font-size="14" lengthAdjust="spacing" textLength="325" x="891" y="690.7457">+save(mySubEntity: MySubEntity): MySubEntity</text></g><!--class MySubProviderImpl--><g id="elem_MySubProviderImpl"><rect codeLine="91" fill="#F1F1F1" height="145.7813" id="MySubProviderImpl" rx="2.5" ry="2.5" style="stroke:#181818;stroke-width:0.5;" width="347" x="1305.5" y="347.78"/><ellipse cx="1409.75" cy="363.78" fill="#ADD1B2" rx="11" ry="11" style="stroke:#181818;stroke-width:1.0;"/><path d="M1412.7188,369.4206 Q1412.1406,369.7175 1411.5,369.8581 Q1410.8594,370.0144 1410.1563,370.0144 Q1407.6563,370.0144 1406.3281,368.3738 Q1405.0156,366.7175 1405.0156,363.5925 Q1405.0156,360.4675 1406.3281,358.8113 Q1407.6563,357.155 1410.1563,357.155 Q1410.8594,357.155 1411.5,357.3113 Q1412.1563,357.4675 1412.7188,357.7644 L1412.7188,360.4831 Q1412.0938,359.905 1411.5,359.6394 Q1410.9063,359.3581 1410.2813,359.3581 Q1408.9375,359.3581 1408.25,360.4363 Q1407.5625,361.4988 1407.5625,363.5925 Q1407.5625,365.6863 1408.25,366.7644 Q1408.9375,367.8269 1410.2813,367.8269 Q1410.9063,367.8269 1411.5,367.5613 Q1412.0938,367.28 1412.7188,366.7019 L1412.7188,369.4206 Z " fill="#000000"/><text fill="#000000" font-family="sans-serif" font-size="14" lengthAdjust="spacing" textLength="130" x="1430.25" y="368.6267">MySubProviderImpl</text><line style="stroke:#181818;stroke-width:0.5;" x1="1306.5" x2="1651.5" y1="379.78" y2="379.78"/><text fill="#000000" font-family="sans-serif" font-size="14" lengthAdjust="spacing" textLength="258" x="1311.5" y="396.7751">-mySubRepository: IMySubRepository</text><line style="stroke:#181818;stroke-width:0.5;" x1="1306.5" x2="1651.5" y1="404.0769" y2="404.0769"/><text fill="#000000" font-family="sans-serif" font-size="14" lengthAdjust="spacing" textLength="267" x="1311.5" y="421.072">+getTotalSubFee(userId: String): Long</text><text fill="#000000" font-family="sans-serif" font-size="14" lengthAdjust="spacing" textLength="306" x="1311.5" y="437.3689">+getMaxSavingAmount(userId: String): Long</text><text fill="#000000" font-family="sans-serif" font-size="14" lengthAdjust="spacing" textLength="308" x="1311.5" y="453.6657">+getMySubList(userId: String): List&lt;MySub&gt;</text><text fill="#000000" font-family="sans-serif" font-size="14" lengthAdjust="spacing" textLength="212" x="1311.5" y="469.9626">+cancelSub(subId: Long): void</text><text fill="#000000" font-family="sans-serif" font-size="14" lengthAdjust="spacing" textLength="335" x="1311.5" y="486.2595">+subscribeSub(subId: Long, userId: String): void</text></g><!--class MySubEntity--><g id="elem_MySubEntity"><rect codeLine="105" fill="#F1F1F1" height="96.8906" id="MySubEntity" rx="2.5" ry="2.5" style="stroke:#181818;stroke-width:0.5;" width="156" x="1306" y="116.6"/><ellipse cx="1339" cy="132.6" fill="#ADD1B2" rx="11" ry="11" style="stroke:#181818;stroke-width:1.0;"/><path d="M1341.9688,138.2406 Q1341.3906,138.5375 1340.75,138.6781 Q1340.1094,138.8344 1339.4063,138.8344 Q1336.9063,138.8344 1335.5781,137.1938 Q1334.2656,135.5375 1334.2656,132.4125 Q1334.2656,129.2875 1335.5781,127.6313 Q1336.9063,125.975 1339.4063,125.975 Q1340.1094,125.975 1340.75,126.1313 Q1341.4063,126.2875 1341.9688,126.5844 L1341.9688,129.3031 Q1341.3438,128.725 1340.75,128.4594 Q1340.1563,128.1781 1339.5313,128.1781 Q1338.1875,128.1781 1337.5,129.2563 Q1336.8125,130.3188 1336.8125,132.4125 Q1336.8125,134.5063 1337.5,135.5844 Q1338.1875,136.6469 1339.5313,136.6469 Q1340.1563,136.6469 1340.75,136.3813 Q1341.3438,136.1 1341.9688,135.5219 L1341.9688,138.2406 Z " fill="#000000"/><text fill="#000000" font-family="sans-serif" font-size="14" lengthAdjust="spacing" textLength="84" x="1357" y="137.4467">MySubEntity</text><line style="stroke:#181818;stroke-width:0.5;" x1="1307" x2="1461" y1="148.6" y2="148.6"/><text fill="#000000" font-family="sans-serif" font-size="14" lengthAdjust="spacing" textLength="97" x="1312" y="165.5951">-userId: String</text><text fill="#000000" font-family="sans-serif" font-size="14" lengthAdjust="spacing" textLength="86" x="1312" y="181.892">-subId: Long</text><line style="stroke:#181818;stroke-width:0.5;" x1="1307" x2="1461" y1="189.1938" y2="189.1938"/><text fill="#000000" font-family="sans-serif" font-size="14" lengthAdjust="spacing" textLength="144" x="1312" y="206.1889">+toDomain(): MySub</text></g><!--class JwtAuthenticationFilter--><g id="elem_JwtAuthenticationFilter"><rect codeLine="115" fill="#F1F1F1" height="80.5938" id="JwtAuthenticationFilter" rx="2.5" ry="2.5" style="stroke:#181818;stroke-width:0.5;" width="758" x="1518" y="124.74"/><ellipse cx="1816.75" cy="140.74" fill="#ADD1B2" rx="11" ry="11" style="stroke:#181818;stroke-width:1.0;"/><path d="M1819.7188,146.3806 Q1819.1406,146.6775 1818.5,146.8181 Q1817.8594,146.9744 1817.1563,146.9744 Q1814.6563,146.9744 1813.3281,145.3338 Q1812.0156,143.6775 1812.0156,140.5525 Q1812.0156,137.4275 1813.3281,135.7713 Q1814.6563,134.115 1817.1563,134.115 Q1817.8594,134.115 1818.5,134.2713 Q1819.1563,134.4275 1819.7188,134.7244 L1819.7188,137.4431 Q1819.0938,136.865 1818.5,136.5994 Q1817.9063,136.3181 1817.2813,136.3181 Q1815.9375,136.3181 1815.25,137.3963 Q1814.5625,138.4588 1814.5625,140.5525 Q1814.5625,142.6463 1815.25,143.7244 Q1815.9375,144.7869 1817.2813,144.7869 Q1817.9063,144.7869 1818.5,144.5213 Q1819.0938,144.24 1819.7188,143.6619 L1819.7188,146.3806 Z " fill="#000000"/><text fill="#000000" font-family="sans-serif" font-size="14" lengthAdjust="spacing" textLength="152" x="1837.25" y="145.5867">JwtAuthenticationFilter</text><line style="stroke:#181818;stroke-width:0.5;" x1="1519" x2="2275" y1="156.74" y2="156.74"/><text fill="#000000" font-family="sans-serif" font-size="14" lengthAdjust="spacing" textLength="252" x="1524" y="173.7351">-jwtTokenProvider: JwtTokenProvider</text><line style="stroke:#181818;stroke-width:0.5;" x1="1519" x2="2275" y1="181.0369" y2="181.0369"/><text fill="#000000" font-family="sans-serif" font-size="14" lengthAdjust="spacing" textLength="746" x="1524" y="198.032">+doFilterInternal(request: HttpServletRequest, response: HttpServletResponse, filterChain: FilterChain): void</text></g><!--class JwtTokenProvider--><g id="elem_JwtTokenProvider"><rect codeLine="119" fill="#F1F1F1" height="113.1875" id="JwtTokenProvider" rx="2.5" ry="2.5" style="stroke:#181818;stroke-width:0.5;" width="795" x="2311.5" y="108.45"/><ellipse cx="2645.25" cy="124.45" fill="#ADD1B2" rx="11" ry="11" style="stroke:#181818;stroke-width:1.0;"/><path d="M2648.2188,130.0906 Q2647.6406,130.3875 2647,130.5281 Q2646.3594,130.6844 2645.6563,130.6844 Q2643.1563,130.6844 2641.8281,129.0438 Q2640.5156,127.3875 2640.5156,124.2625 Q2640.5156,121.1375 2641.8281,119.4813 Q2643.1563,117.825 2645.6563,117.825 Q2646.3594,117.825 2647,117.9813 Q2647.6563,118.1375 2648.2188,118.4344 L2648.2188,121.1531 Q2647.5938,120.575 2647,120.3094 Q2646.4063,120.0281 2645.7813,120.0281 Q2644.4375,120.0281 2643.75,121.1063 Q2643.0625,122.1688 2643.0625,124.2625 Q2643.0625,126.3563 2643.75,127.4344 Q2644.4375,128.4969 2645.7813,128.4969 Q2646.4063,128.4969 2647,128.2313 Q2647.5938,127.95 2648.2188,127.3719 L2648.2188,130.0906 Z " fill="#000000"/><text fill="#000000" font-family="sans-serif" font-size="14" lengthAdjust="spacing" textLength="119" x="2665.75" y="129.2967">JwtTokenProvider</text><line style="stroke:#181818;stroke-width:0.5;" x1="2312.5" x2="3105.5" y1="140.45" y2="140.45"/><text fill="#000000" font-family="sans-serif" font-size="14" lengthAdjust="spacing" textLength="143" x="2317.5" y="157.4451">-algorithm: Algorithm</text><line style="stroke:#181818;stroke-width:0.5;" x1="2312.5" x2="3105.5" y1="164.7469" y2="164.7469"/><text fill="#000000" font-family="sans-serif" font-size="14" lengthAdjust="spacing" textLength="783" x="2317.5" y="181.742">+createToken(memberEntity: MemberEntity, authorities: Collection&lt;? extends GrantedAuthority&gt;): JwtTokenDTO</text><text fill="#000000" font-family="sans-serif" font-size="14" lengthAdjust="spacing" textLength="233" x="2317.5" y="198.0389">+validateToken(token: String): int</text><text fill="#000000" font-family="sans-serif" font-size="14" lengthAdjust="spacing" textLength="343" x="2317.5" y="214.3357">+getAuthentication(token: String): Authentication</text></g><!--class LoggingAspect--><g id="elem_LoggingAspect"><rect codeLine="128" fill="#F1F1F1" height="96.8906" id="LoggingAspect" rx="2.5" ry="2.5" style="stroke:#181818;stroke-width:0.5;" width="493" x="3162.5" y="116.6"/><ellipse cx="3353.25" cy="132.6" fill="#ADD1B2" rx="11" ry="11" style="stroke:#181818;stroke-width:1.0;"/><path d="M3356.2188,138.2406 Q3355.6406,138.5375 3355,138.6781 Q3354.3594,138.8344 3353.6563,138.8344 Q3351.1563,138.8344 3349.8281,137.1938 Q3348.5156,135.5375 3348.5156,132.4125 Q3348.5156,129.2875 3349.8281,127.6313 Q3351.1563,125.975 3353.6563,125.975 Q3354.3594,125.975 3355,126.1313 Q3355.6563,126.2875 3356.2188,126.5844 L3356.2188,129.3031 Q3355.5938,128.725 3355,128.4594 Q3354.4063,128.1781 3353.7813,128.1781 Q3352.4375,128.1781 3351.75,129.2563 Q3351.0625,130.3188 3351.0625,132.4125 Q3351.0625,134.5063 3351.75,135.5844 Q3352.4375,136.6469 3353.7813,136.6469 Q3354.4063,136.6469 3355,136.3813 Q3355.5938,136.1 3356.2188,135.5219 L3356.2188,138.2406 Z " fill="#000000"/><text fill="#000000" font-family="sans-serif" font-size="14" lengthAdjust="spacing" textLength="103" x="3373.75" y="137.4467">LoggingAspect</text><line style="stroke:#181818;stroke-width:0.5;" x1="3163.5" x2="3654.5" y1="148.6" y2="148.6"/><line style="stroke:#181818;stroke-width:0.5;" x1="3163.5" x2="3654.5" y1="156.6" y2="156.6"/><text fill="#000000" font-family="sans-serif" font-size="14" lengthAdjust="spacing" textLength="292" x="3168.5" y="173.5951">+logMethodStart(joinPoint: JoinPoint): void</text><text fill="#000000" font-family="sans-serif" font-size="14" lengthAdjust="spacing" textLength="388" x="3168.5" y="189.892">+logMethodEnd(joinPoint: JoinPoint, result: Object): void</text><text fill="#000000" font-family="sans-serif" font-size="14" lengthAdjust="spacing" textLength="481" x="3168.5" y="206.1889">+logMethodException(joinPoint: JoinPoint, exception: Exception): void</text></g><!--class SpringDocConfig--><g id="elem_SpringDocConfig"><rect codeLine="133" fill="#F1F1F1" height="64.2969" id="SpringDocConfig" rx="2.5" ry="2.5" style="stroke:#181818;stroke-width:0.5;" width="159" x="3690.5" y="132.89"/><ellipse cx="3710.45" cy="148.89" fill="#ADD1B2" rx="11" ry="11" style="stroke:#181818;stroke-width:1.0;"/><path d="M3713.4188,154.5306 Q3712.8406,154.8275 3712.2,154.9681 Q3711.5594,155.1244 3710.8563,155.1244 Q3708.3563,155.1244 3707.0281,153.4838 Q3705.7156,151.8275 3705.7156,148.7025 Q3705.7156,145.5775 3707.0281,143.9213 Q3708.3563,142.265 3710.8563,142.265 Q3711.5594,142.265 3712.2,142.4213 Q3712.8563,142.5775 3713.4188,142.8744 L3713.4188,145.5931 Q3712.7938,145.015 3712.2,144.7494 Q3711.6063,144.4681 3710.9813,144.4681 Q3709.6375,144.4681 3708.95,145.5463 Q3708.2625,146.6088 3708.2625,148.7025 Q3708.2625,150.7963 3708.95,151.8744 Q3709.6375,152.9369 3710.9813,152.9369 Q3711.6063,152.9369 3712.2,152.6713 Q3712.7938,152.39 3713.4188,151.8119 L3713.4188,154.5306 Z " fill="#000000"/><text fill="#000000" font-family="sans-serif" font-size="14" lengthAdjust="spacing" textLength="116" x="3725.55" y="153.7367">SpringDocConfig</text><line style="stroke:#181818;stroke-width:0.5;" x1="3691.5" x2="3848.5" y1="164.89" y2="164.89"/><line style="stroke:#181818;stroke-width:0.5;" x1="3691.5" x2="3848.5" y1="172.89" y2="172.89"/><text fill="#000000" font-family="sans-serif" font-size="14" lengthAdjust="spacing" textLength="147" x="3696.5" y="189.8851">+openAPI(): OpenAPI</text></g><!--class SecurityConfig--><g id="elem_SecurityConfig"><rect codeLine="136" fill="#F1F1F1" height="96.8906" id="SecurityConfig" rx="2.5" ry="2.5" style="stroke:#181818;stroke-width:0.5;" width="417" x="3200.5" y="372.23"/><ellipse cx="3355.25" cy="388.23" fill="#ADD1B2" rx="11" ry="11" style="stroke:#181818;stroke-width:1.0;"/><path d="M3358.2188,393.8706 Q3357.6406,394.1675 3357,394.3081 Q3356.3594,394.4644 3355.6563,394.4644 Q3353.1563,394.4644 3351.8281,392.8238 Q3350.5156,391.1675 3350.5156,388.0425 Q3350.5156,384.9175 3351.8281,383.2613 Q3353.1563,381.605 3355.6563,381.605 Q3356.3594,381.605 3357,381.7613 Q3357.6563,381.9175 3358.2188,382.2144 L3358.2188,384.9331 Q3357.5938,384.355 3357,384.0894 Q3356.4063,383.8081 3355.7813,383.8081 Q3354.4375,383.8081 3353.75,384.8863 Q3353.0625,385.9488 3353.0625,388.0425 Q3353.0625,390.1363 3353.75,391.2144 Q3354.4375,392.2769 3355.7813,392.2769 Q3356.4063,392.2769 3357,392.0113 Q3357.5938,391.73 3358.2188,391.1519 L3358.2188,393.8706 Z " fill="#000000"/><text fill="#000000" font-family="sans-serif" font-size="14" lengthAdjust="spacing" textLength="99" x="3375.75" y="393.0767">SecurityConfig</text><line style="stroke:#181818;stroke-width:0.5;" x1="3201.5" x2="3616.5" y1="404.23" y2="404.23"/><text fill="#000000" font-family="sans-serif" font-size="14" lengthAdjust="spacing" textLength="252" x="3206.5" y="421.2251">-jwtTokenProvider: JwtTokenProvider</text><line style="stroke:#181818;stroke-width:0.5;" x1="3201.5" x2="3616.5" y1="428.5269" y2="428.5269"/><text fill="#000000" font-family="sans-serif" font-size="14" lengthAdjust="spacing" textLength="405" x="3206.5" y="445.522">+securityFilterChain(http: HttpSecurity): SecurityFilterChain</text><text fill="#000000" font-family="sans-serif" font-size="14" lengthAdjust="spacing" textLength="375" x="3206.5" y="461.8189">+corsConfigurationSource(): CorsConfigurationSource</text></g><!--class SubInfoDTO--><g id="elem_SubInfoDTO"><rect codeLine="144" fill="#F1F1F1" height="80.5938" id="SubInfoDTO" rx="2.5" ry="2.5" style="stroke:#181818;stroke-width:0.5;" width="115" x="3904.5" y="124.74"/><ellipse cx="3919.5" cy="140.74" fill="#ADD1B2" rx="11" ry="11" style="stroke:#181818;stroke-width:1.0;"/><path d="M3922.4688,146.3806 Q3921.8906,146.6775 3921.25,146.8181 Q3920.6094,146.9744 3919.9063,146.9744 Q3917.4063,146.9744 3916.0781,145.3338 Q3914.7656,143.6775 3914.7656,140.5525 Q3914.7656,137.4275 3916.0781,135.7713 Q3917.4063,134.115 3919.9063,134.115 Q3920.6094,134.115 3921.25,134.2713 Q3921.9063,134.4275 3922.4688,134.7244 L3922.4688,137.4431 Q3921.8438,136.865 3921.25,136.5994 Q3920.6563,136.3181 3920.0313,136.3181 Q3918.6875,136.3181 3918,137.3963 Q3917.3125,138.4588 3917.3125,140.5525 Q3917.3125,142.6463 3918,143.7244 Q3918.6875,144.7869 3920.0313,144.7869 Q3920.6563,144.7869 3921.25,144.5213 Q3921.8438,144.24 3922.4688,143.6619 L3922.4688,146.3806 Z " fill="#000000"/><text fill="#000000" font-family="sans-serif" font-size="14" lengthAdjust="spacing" textLength="83" x="3933.5" y="145.5867">SubInfoDTO</text><line style="stroke:#181818;stroke-width:0.5;" x1="3905.5" x2="4018.5" y1="156.74" y2="156.74"/><text fill="#000000" font-family="sans-serif" font-size="14" lengthAdjust="spacing" textLength="97" x="3910.5" y="173.7351">-userId: String</text><text fill="#000000" font-family="sans-serif" font-size="14" lengthAdjust="spacing" textLength="86" x="3910.5" y="190.032">-subId: Long</text><line style="stroke:#181818;stroke-width:0.5;" x1="3905.5" x2="4018.5" y1="197.3338" y2="197.3338"/></g><!--class InfraException--><g id="elem_InfraException"><rect codeLine="151" fill="#F1F1F1" height="145.7813" id="InfraException" rx="2.5" ry="2.5" style="stroke:#181818;stroke-width:0.5;" width="444" x="4075" y="92.15"/><ellipse cx="4244.25" cy="108.15" fill="#ADD1B2" rx="11" ry="11" style="stroke:#181818;stroke-width:1.0;"/><path d="M4247.2188,113.7906 Q4246.6406,114.0875 4246,114.2281 Q4245.3594,114.3844 4244.6563,114.3844 Q4242.1563,114.3844 4240.8281,112.7438 Q4239.5156,111.0875 4239.5156,107.9625 Q4239.5156,104.8375 4240.8281,103.1813 Q4242.1563,101.525 4244.6563,101.525 Q4245.3594,101.525 4246,101.6813 Q4246.6563,101.8375 4247.2188,102.1344 L4247.2188,104.8531 Q4246.5938,104.275 4246,104.0094 Q4245.4063,103.7281 4244.7813,103.7281 Q4243.4375,103.7281 4242.75,104.8063 Q4242.0625,105.8688 4242.0625,107.9625 Q4242.0625,110.0563 4242.75,111.1344 Q4243.4375,112.1969 4244.7813,112.1969 Q4245.4063,112.1969 4246,111.9313 Q4246.5938,111.65 4247.2188,111.0719 L4247.2188,113.7906 Z " fill="#000000"/><text fill="#000000" font-family="sans-serif" font-size="14" lengthAdjust="spacing" textLength="97" x="4264.75" y="112.9967">InfraException</text><line style="stroke:#181818;stroke-width:0.5;" x1="4076" x2="4518" y1="124.15" y2="124.15"/><text fill="#000000" font-family="sans-serif" font-size="14" lengthAdjust="spacing" textLength="66" x="4081" y="141.1451">-code: int</text><line style="stroke:#181818;stroke-width:0.5;" x1="4076" x2="4518" y1="148.4469" y2="148.4469"/><text fill="#000000" font-family="sans-serif" font-size="14" lengthAdjust="spacing" textLength="232" x="4081" y="165.442">+InfraException(message: String)</text><text fill="#000000" font-family="sans-serif" font-size="14" lengthAdjust="spacing" textLength="363" x="4081" y="181.7389">+InfraException(message: String, cause: Throwable)</text><text fill="#000000" font-family="sans-serif" font-size="14" lengthAdjust="spacing" textLength="301" x="4081" y="198.0357">+InfraException(code: int, message: String)</text><text fill="#000000" font-family="sans-serif" font-size="14" lengthAdjust="spacing" textLength="432" x="4081" y="214.3326">+InfraException(code: int, message: String, cause: Throwable)</text><text fill="#000000" font-family="sans-serif" font-size="14" lengthAdjust="spacing" textLength="108" x="4081" y="230.6295">+getCode(): int</text></g><!--reverse link IMySubService to MySubServiceImpl--><g id="link_IMySubService_MySubServiceImpl"><path codeLine="36" d="M378,503.84 C378,529.68 378,541.62 378,568.23 " fill="none" id="IMySubService-backto-MySubServiceImpl" style="stroke:#181818;stroke-width:1.0;stroke-dasharray:7.0,7.0;"/><polygon fill="none" points="378,485.84,372,503.84,384,503.84,378,485.84" style="stroke:#181818;stroke-width:1.0;"/></g><!--link MySubServiceImpl to IMySubProvider--><g id="link_MySubServiceImpl_IMySubProvider"><path codeLine="37" d="M378.34,714.65 C378.46,738.82 378.5494,759.5901 378.6694,783.1001 " fill="none" id="MySubServiceImpl-to-IMySubProvider" style="stroke:#181818;stroke-width:1.0;"/><polygon fill="#181818" points="378.7,789.1,382.654,780.0797,378.6745,784.1001,374.6541,780.1205,378.7,789.1" style="stroke:#181818;stroke-width:1.0;"/></g><!--link MySubController to IMySubService--><g id="link_MySubController_IMySubService"><path codeLine="77" d="M673.02,246.54 C654.2,253.92 635.69,261.73 618,269.93 C566.42,293.84 517.4258,323.4322 473.7358,352.3022 " fill="none" id="MySubController-to-IMySubService" style="stroke:#181818;stroke-width:1.0;"/><polygon fill="#181818" points="468.73,355.61,478.444,353.9855,472.9015,352.8535,474.0335,347.3111,468.73,355.61" style="stroke:#181818;stroke-width:1.0;"/></g><!--link MySubController to MySubControllerHelper--><g id="link_MySubController_MySubControllerHelper"><path codeLine="78" d="M954.02,246.29 C960.22,287.65 966.682,330.7561 971.972,366.1061 " fill="none" id="MySubController-to-MySubControllerHelper" style="stroke:#181818;stroke-width:1.0;"/><polygon fill="#181818" points="972.86,372.04,975.484,362.5471,972.12,367.0951,967.5721,363.7311,972.86,372.04" style="stroke:#181818;stroke-width:1.0;"/></g><!--link MySubControllerHelper to IMySubRepository--><g id="link_MySubControllerHelper_IMySubRepository"><path codeLine="79" d="M997.68,469.42 C1010.24,503.36 1025.087,543.4432 1038.277,579.0732 " fill="none" id="MySubControllerHelper-to-IMySubRepository" style="stroke:#181818;stroke-width:1.0;"/><polygon fill="#181818" points="1040.36,584.7,1040.9867,574.8711,1038.6242,580.011,1033.4843,577.6484,1040.36,584.7" style="stroke:#181818;stroke-width:1.0;"/></g><!--link MySubProviderImpl to IMySubProvider--><g id="link_MySubProviderImpl_IMySubProvider"><path codeLine="101" d="M1448.72,493.9 C1413.4,568.44 1347.53,681.58 1253,738.35 C1138.36,807.18 790.9575,834.6095 570.5675,845.6495 " fill="none" id="MySubProviderImpl-to-IMySubProvider" style="stroke:#181818;stroke-width:1.0;stroke-dasharray:7.0,7.0;"/><polygon fill="none" points="552.59,846.55,570.8676,851.6419,570.2673,839.657,552.59,846.55" style="stroke:#181818;stroke-width:1.0;"/></g><!--link MySubProviderImpl to IMySubRepository--><g id="link_MySubProviderImpl_IMySubRepository"><path codeLine="102" d="M1340.97,493.92 C1284.73,523.35 1226.0257,554.0774 1173.4157,581.6174 " fill="none" id="MySubProviderImpl-to-IMySubRepository" style="stroke:#181818;stroke-width:1.0;"/><polygon fill="#181818" points="1168.1,584.4,1177.9287,583.7698,1172.5298,582.0811,1174.2185,576.6822,1168.1,584.4" style="stroke:#181818;stroke-width:1.0;"/></g><!--link MySubEntity to MySub--><g id="link_MySubEntity_MySub"><path codeLine="112" d="M1428.9,213.91 C1449.28,232.4 1474.88,251.56 1502,261.93 C1536.5,275.12 1636.08,251.36 1668,269.93 C1709.52,294.08 1733.4981,338.8226 1747.6281,374.4526 " fill="none" id="MySubEntity-to-MySub" style="stroke:#181818;stroke-width:1.0;stroke-dasharray:7.0,7.0;"/><polygon fill="#181818" points="1749.84,380.03,1750.2405,370.1893,1747.9968,375.3821,1742.8039,373.1384,1749.84,380.03" style="stroke:#181818;stroke-width:1.0;"/></g><!--SRC=[xLVRRkCs47ttLn3xvCKwGf-Dm8NNIReE4YI8qxu6j3Hsc4YaIbBEfPj_xr2KP8gYhyK2kq0D9139cU5mvimPKZqpdbD9CnAdLAcnrfBD2mtJMF0PUmVoMw-Nq_YPBe5SlysA-JZFKnPJpGGd__Hw17_r-gSvUuyA1J5Ly8bGHN3yK8rHbbI_MXmt5b8x2-R7k0Qve36GQRdT3EIAnU19cT-N9UXxeMcAKXS0VTn8JfCXcU49-FBpa5m9lWngNTFN6LsXq3WJ1TU7Q1gNhfWAwU3iQRb-Tdypwch7bCTWVEshOcuqpIQejn8iwKgZZ8en4-0f34Xduuw1ZrxtguwvAFGUGR-LOiKIaBzIr7_QaAiWWijg8ox4frcU1W9-ahaP6NeP-hygZatHX-KkXw8YIqXHctXElqTHIwhAP-JdhcDkao0vEHcr1AkYZBpKThar4HbblA5MEtGmuu3AGz99Eq3jDIUIuI2rdT1YxO4MuUqnsp_E0tYD8JSDgF6ZcUbuyvMzdmSMIpYvQ_qCbC8T6WZjBpeWCSN33SdzenGlT9x2vns7O7mXAS8jUe5vUOPoue7n1vm81tGYk9OYJJkaRFcXWjUmtJK3Wcixto3D3Q5SXwPx1t7A7QXSS0NdN3FzTbeF4GId9gMZKUzWiZd2v6OMscRC41GgJlb268ho3MyYg2qc_qBgySriOgw3B7ri1uRDN10UTv0BnRIGRpL2rZETGAwZqI-LAuYWg-kLjf8MwvKo0rcTYrQ7hlk14-vmeRZb4FdmzzapnDhxMTacu9J1RZ776dBvWyJOHfqmXoW0fICZxP10RS39etyzMnlr6Mt1UFBrxSyI_zkQiSNQAAICYcrytfIaHzCjcWcaeC5ctGfKcB63K3l-ekXgguOpsejDJIXfGdCCbHVDQZRCgtMt3To-ZYYTmsvUnzswZhmHxt_LElgQ5QXX9_vHDzvHz7slcz2-zlvB6K89DGywTZACd7D_xQXRJiMVP-LLhb_ZVbT8hL-HwqSKZPnBeLqA7ZOMMIPuzFIYdSFQoGUSx1psyaMF2_rejhJF_WkMwcwVGTLxyGny_LAvz6OypX3MpjIG6z9BNyBV1PYEyKthtF0uSigTdHiGMNL5RzLE3iYYD3Lvn9CFoSLw44Pewsmj5_r3qNGf9DEFsP2Cwq-lgYHG3QKHl1TcSv0DdJcZ0Q4OGgFFG0t9nFIEsCJoz7S2hnfueiWVac8ead4b-6RQPUrVf-EkQCgIPcDj_ZjLYGsZGndj77PKsijxCMu5f5Zm1LjsiMJdEt2w4ikbeJkLOmJy_fMAvJNW-PEPfbBtdmJZj_Y7eBYiFuECrUYTyoIeLIAeI77gPlw46- -mqbprmxQQvyQGDAAxe3RBJQJFH3pnurBkBNBWuzjflsouvUTcIn0N1Y11GmVNeQgiELNJVyGQgolDhfhBNrVGAmKXbVMfa2MAPgAGCPWZJS9BUy6iVczQS8LUdElxv8zvSre_sgzEwytcT-VKh6zwUPx48e50cRQLTZn9jmjlUvI6r1kF1kIWRJVhxVG0IMc2sdsFiEeSVFmB]--></g></svg>