<svg xmlns="http://www.w3.org/2000/svg" xmlns:xlink="http://www.w3.org/1999/xlink" contentStyleType="text/css" height="985px" preserveAspectRatio="none" style="width:3090px;height:985px;background:#FFFFFF;" version="1.1" viewBox="0 0 3090 985" width="3090px" zoomAndPan="magnify"><defs/><g><!--cluster com--><g id="cluster_com"><path d="M8.5,6 L42.5,6 A3.75,3.75 0 0 1 45,8.5 L52,28.2969 L3080.5,28.2969 A2.5,2.5 0 0 1 3083,30.7969 L3083,975.8 A2.5,2.5 0 0 1 3080.5,978.3 L8.5,978.3 A2.5,2.5 0 0 1 6,975.8 L6,8.5 A2.5,2.5 0 0 1 8.5,6 " fill="none" style="stroke:#000000;stroke-width:1.5;"/><line style="stroke:#000000;stroke-width:1.5;" x1="6" x2="52" y1="28.2969" y2="28.2969"/><text fill="#000000" font-family="sans-serif" font-size="14" font-weight="bold" lengthAdjust="spacing" textLength="33" x="10" y="20.9951">com</text></g><!--cluster subride--><g id="cluster_subride"><path d="M32.5,49 L93.5,49 A3.75,3.75 0 0 1 96,51.5 L103,71.2969 L3056.5,71.2969 A2.5,2.5 0 0 1 3059,73.7969 L3059,951.8 A2.5,2.5 0 0 1 3056.5,954.3 L32.5,954.3 A2.5,2.5 0 0 1 30,951.8 L30,51.5 A2.5,2.5 0 0 1 32.5,49 " fill="none" style="stroke:#000000;stroke-width:1.5;"/><line style="stroke:#000000;stroke-width:1.5;" x1="30" x2="103" y1="71.2969" y2="71.2969"/><text fill="#000000" font-family="sans-serif" font-size="14" font-weight="bold" lengthAdjust="spacing" textLength="60" x="34" y="63.9951">subride</text></g><!--cluster transfer--><g id="cluster_transfer"><path d="M56.5,92 L121.5,92 A3.75,3.75 0 0 1 124,94.5 L131,114.2969 L3032.5,114.2969 A2.5,2.5 0 0 1 3035,116.7969 L3035,927.8 A2.5,2.5 0 0 1 3032.5,930.3 L56.5,930.3 A2.5,2.5 0 0 1 54,927.8 L54,94.5 A2.5,2.5 0 0 1 56.5,92 " fill="none" style="stroke:#000000;stroke-width:1.5;"/><line style="stroke:#000000;stroke-width:1.5;" x1="54" x2="131" y1="114.2969" y2="114.2969"/><text fill="#000000" font-family="sans-serif" font-size="14" font-weight="bold" lengthAdjust="spacing" textLength="64" x="58" y="106.9951">transfer</text></g><!--cluster controller--><g id="cluster_controller"><path d="M130.5,202.44 L208.5,202.44 A3.75,3.75 0 0 1 211,204.94 L218,224.7369 L705.5,224.7369 A2.5,2.5 0 0 1 708,227.2369 L708,331.53 A2.5,2.5 0 0 1 705.5,334.03 L130.5,334.03 A2.5,2.5 0 0 1 128,331.53 L128,204.94 A2.5,2.5 0 0 1 130.5,202.44 " fill="none" style="stroke:#000000;stroke-width:1.5;"/><line style="stroke:#000000;stroke-width:1.5;" x1="128" x2="218" y1="224.7369" y2="224.7369"/><text fill="#000000" font-family="sans-serif" font-size="14" font-weight="bold" lengthAdjust="spacing" textLength="77" x="132" y="217.4351">controller</text></g><!--cluster service--><g id="cluster_service"><path d="M80.5,382.48 L139.5,382.48 A3.75,3.75 0 0 1 142,384.98 L149,404.7769 L655.5,404.7769 A2.5,2.5 0 0 1 658,407.2769 L658,511.57 A2.5,2.5 0 0 1 655.5,514.07 L80.5,514.07 A2.5,2.5 0 0 1 78,511.57 L78,384.98 A2.5,2.5 0 0 1 80.5,382.48 " fill="none" style="stroke:#000000;stroke-width:1.5;"/><line style="stroke:#000000;stroke-width:1.5;" x1="78" x2="149" y1="404.7769" y2="404.7769"/><text fill="#000000" font-family="sans-serif" font-size="14" font-weight="bold" lengthAdjust="spacing" textLength="58" x="82" y="397.4751">service</text></g><!--cluster repository--><g id="cluster_repository"><path d="M80.5,570.22 L163.5,570.22 A3.75,3.75 0 0 1 166,572.72 L173,592.5169 L813.5,592.5169 A2.5,2.5 0 0 1 816,595.0169 L816,683.02 A2.5,2.5 0 0 1 813.5,685.52 L80.5,685.52 A2.5,2.5 0 0 1 78,683.02 L78,572.72 A2.5,2.5 0 0 1 80.5,570.22 " fill="none" style="stroke:#000000;stroke-width:1.5;"/><line style="stroke:#000000;stroke-width:1.5;" x1="78" x2="173" y1="592.5169" y2="592.5169"/><text fill="#000000" font-family="sans-serif" font-size="14" font-weight="bold" lengthAdjust="spacing" textLength="82" x="82" y="585.2151">repository</text></g><!--cluster entity--><g id="cluster_entity"><path d="M338.5,725.82 L384.5,725.82 A3.75,3.75 0 0 1 387,728.32 L394,748.1169 L555.5,748.1169 A2.5,2.5 0 0 1 558,750.6169 L558,903.8 A2.5,2.5 0 0 1 555.5,906.3 L338.5,906.3 A2.5,2.5 0 0 1 336,903.8 L336,728.32 A2.5,2.5 0 0 1 338.5,725.82 " fill="none" style="stroke:#000000;stroke-width:1.5;"/><line style="stroke:#000000;stroke-width:1.5;" x1="336" x2="394" y1="748.1169" y2="748.1169"/><text fill="#000000" font-family="sans-serif" font-size="14" font-weight="bold" lengthAdjust="spacing" textLength="45" x="340" y="740.8151">entity</text></g><!--cluster dto--><g id="cluster_dto"><path d="M842.5,553.93 L869.5,553.93 A3.75,3.75 0 0 1 872,556.43 L879,576.2269 L1242.5,576.2269 A2.5,2.5 0 0 1 1245,578.7269 L1245,699.32 A2.5,2.5 0 0 1 1242.5,701.82 L842.5,701.82 A2.5,2.5 0 0 1 840,699.32 L840,556.43 A2.5,2.5 0 0 1 842.5,553.93 " fill="none" style="stroke:#000000;stroke-width:1.5;"/><line style="stroke:#000000;stroke-width:1.5;" x1="840" x2="879" y1="576.2269" y2="576.2269"/><text fill="#000000" font-family="sans-serif" font-size="14" font-weight="bold" lengthAdjust="spacing" textLength="26" x="844" y="568.9251">dto</text></g><!--cluster common--><g id="cluster_common"><path d="M734.5,135 L802.5,135 A3.75,3.75 0 0 1 805,137.5 L812,157.2969 L2678.5,157.2969 A2.5,2.5 0 0 1 2681,159.7969 L2681,527.43 A2.5,2.5 0 0 1 2678.5,529.93 L734.5,529.93 A2.5,2.5 0 0 1 732,527.43 L732,137.5 A2.5,2.5 0 0 1 734.5,135 " fill="none" style="stroke:#000000;stroke-width:1.5;"/><line style="stroke:#000000;stroke-width:1.5;" x1="732" x2="812" y1="157.2969" y2="157.2969"/><text fill="#000000" font-family="sans-serif" font-size="14" font-weight="bold" lengthAdjust="spacing" textLength="67" x="736" y="149.9951">common</text></g><!--cluster config--><g id="cluster_config"><path d="M758.5,210.59 L808.5,210.59 A3.75,3.75 0 0 1 811,213.09 L818,232.8869 L1445.5,232.8869 A2.5,2.5 0 0 1 1448,235.3869 L1448,503.43 A2.5,2.5 0 0 1 1445.5,505.93 L758.5,505.93 A2.5,2.5 0 0 1 756,503.43 L756,213.09 A2.5,2.5 0 0 1 758.5,210.59 " fill="none" style="stroke:#000000;stroke-width:1.5;"/><line style="stroke:#000000;stroke-width:1.5;" x1="756" x2="818" y1="232.8869" y2="232.8869"/><text fill="#000000" font-family="sans-serif" font-size="14" font-weight="bold" lengthAdjust="spacing" textLength="49" x="760" y="225.5851">config</text></g><!--cluster jwt--><g id="cluster_jwt"><path d="M1474.5,178 L1499.5,178 A3.75,3.75 0 0 1 1502,180.5 L1509,200.2969 L2654.5,200.2969 A2.5,2.5 0 0 1 2657,202.7969 L2657,355.98 A2.5,2.5 0 0 1 2654.5,358.48 L1474.5,358.48 A2.5,2.5 0 0 1 1472,355.98 L1472,180.5 A2.5,2.5 0 0 1 1474.5,178 " fill="none" style="stroke:#000000;stroke-width:1.5;"/><line style="stroke:#000000;stroke-width:1.5;" x1="1472" x2="1509" y1="200.2969" y2="200.2969"/><text fill="#000000" font-family="sans-serif" font-size="14" font-weight="bold" lengthAdjust="spacing" textLength="24" x="1476" y="192.9951">jwt</text></g><!--cluster exception--><g id="cluster_exception"><path d="M2707.5,202.44 L2786.5,202.44 A3.75,3.75 0 0 1 2789,204.94 L2796,224.7369 L3008.5,224.7369 A2.5,2.5 0 0 1 3011,227.2369 L3011,331.53 A2.5,2.5 0 0 1 3008.5,334.03 L2707.5,334.03 A2.5,2.5 0 0 1 2705,331.53 L2705,204.94 A2.5,2.5 0 0 1 2707.5,202.44 " fill="none" style="stroke:#000000;stroke-width:1.5;"/><line style="stroke:#000000;stroke-width:1.5;" x1="2705" x2="2796" y1="224.7369" y2="224.7369"/><text fill="#000000" font-family="sans-serif" font-size="14" font-weight="bold" lengthAdjust="spacing" textLength="78" x="2709" y="217.4351">exception</text></g><!--cluster enums--><g id="cluster_enums"><path d="M1077.5,750.26 L1131.5,750.26 A3.75,3.75 0 0 1 1134,752.76 L1141,772.5569 L1232.5,772.5569 A2.5,2.5 0 0 1 1235,775.0569 L1235,879.35 A2.5,2.5 0 0 1 1232.5,881.85 L1077.5,881.85 A2.5,2.5 0 0 1 1075,879.35 L1075,752.76 A2.5,2.5 0 0 1 1077.5,750.26 " fill="none" style="stroke:#000000;stroke-width:1.5;"/><line style="stroke:#000000;stroke-width:1.5;" x1="1075" x2="1141" y1="772.5569" y2="772.5569"/><text fill="#000000" font-family="sans-serif" font-size="14" font-weight="bold" lengthAdjust="spacing" textLength="53" x="1079" y="765.2551">enums</text></g><!--class TransferController--><g id="elem_TransferController"><rect codeLine="3" fill="#F1F1F1" height="80.5938" id="TransferController" rx="2.5" ry="2.5" style="stroke:#181818;stroke-width:0.5;" width="548" x="144" y="237.44"/><ellipse cx="351.75" cy="253.44" fill="#ADD1B2" rx="11" ry="11" style="stroke:#181818;stroke-width:1.0;"/><path d="M354.7188,259.0806 Q354.1406,259.3775 353.5,259.5181 Q352.8594,259.6744 352.1563,259.6744 Q349.6563,259.6744 348.3281,258.0337 Q347.0156,256.3775 347.0156,253.2525 Q347.0156,250.1275 348.3281,248.4712 Q349.6563,246.815 352.1563,246.815 Q352.8594,246.815 353.5,246.9712 Q354.1563,247.1275 354.7188,247.4244 L354.7188,250.1431 Q354.0938,249.565 353.5,249.2994 Q352.9063,249.0181 352.2813,249.0181 Q350.9375,249.0181 350.25,250.0962 Q349.5625,251.1587 349.5625,253.2525 Q349.5625,255.3462 350.25,256.4244 Q350.9375,257.4869 352.2813,257.4869 Q352.9063,257.4869 353.5,257.2212 Q354.0938,256.94 354.7188,256.3619 L354.7188,259.0806 Z " fill="#000000"/><text fill="#000000" font-family="sans-serif" font-size="14" lengthAdjust="spacing" textLength="124" x="372.25" y="258.2867">TransferController</text><line style="stroke:#181818;stroke-width:0.5;" x1="145" x2="691" y1="269.44" y2="269.44"/><rect fill="none" height="6" style="stroke:#C82930;stroke-width:1.0;" width="6" x="152" y="280.0884"/><text fill="#000000" font-family="sans-serif" font-size="14" lengthAdjust="spacing" textLength="219" x="164" y="286.4351">transferService: TransferService</text><line style="stroke:#181818;stroke-width:0.5;" x1="145" x2="691" y1="293.7369" y2="293.7369"/><ellipse cx="155" cy="307.3853" fill="#84BE84" rx="3" ry="3" style="stroke:#038048;stroke-width:1.0;"/><text fill="#000000" font-family="sans-serif" font-size="14" lengthAdjust="spacing" textLength="522" x="164" y="310.732">getTransferHistory(groupId: Long, period: Period): List&lt;TransferResponse&gt;</text></g><!--class TransferService--><g id="elem_TransferService"><rect codeLine="10" fill="#F1F1F1" height="80.5938" id="TransferService" rx="2.5" ry="2.5" style="stroke:#181818;stroke-width:0.5;" width="548" x="94" y="417.48"/><ellipse cx="310.25" cy="433.48" fill="#ADD1B2" rx="11" ry="11" style="stroke:#181818;stroke-width:1.0;"/><path d="M313.2188,439.1206 Q312.6406,439.4175 312,439.5581 Q311.3594,439.7144 310.6563,439.7144 Q308.1563,439.7144 306.8281,438.0737 Q305.5156,436.4175 305.5156,433.2925 Q305.5156,430.1675 306.8281,428.5112 Q308.1563,426.855 310.6563,426.855 Q311.3594,426.855 312,427.0112 Q312.6563,427.1675 313.2188,427.4644 L313.2188,430.1831 Q312.5938,429.605 312,429.3394 Q311.4063,429.0581 310.7813,429.0581 Q309.4375,429.0581 308.75,430.1362 Q308.0625,431.1987 308.0625,433.2925 Q308.0625,435.3862 308.75,436.4644 Q309.4375,437.5269 310.7813,437.5269 Q311.4063,437.5269 312,437.2612 Q312.5938,436.98 313.2188,436.4019 L313.2188,439.1206 Z " fill="#000000"/><text fill="#000000" font-family="sans-serif" font-size="14" lengthAdjust="spacing" textLength="107" x="330.75" y="438.3267">TransferService</text><line style="stroke:#181818;stroke-width:0.5;" x1="95" x2="641" y1="449.48" y2="449.48"/><rect fill="none" height="6" style="stroke:#C82930;stroke-width:1.0;" width="6" x="102" y="460.1284"/><text fill="#000000" font-family="sans-serif" font-size="14" lengthAdjust="spacing" textLength="267" x="114" y="466.4751">transferRepository: TransferRepository</text><line style="stroke:#181818;stroke-width:0.5;" x1="95" x2="641" y1="473.7769" y2="473.7769"/><ellipse cx="105" cy="487.4253" fill="#84BE84" rx="3" ry="3" style="stroke:#038048;stroke-width:1.0;"/><text fill="#000000" font-family="sans-serif" font-size="14" lengthAdjust="spacing" textLength="522" x="114" y="490.772">getTransferHistory(groupId: Long, period: Period): List&lt;TransferResponse&gt;</text></g><!--class TransferRepository--><g id="elem_TransferRepository"><rect codeLine="17" fill="#F1F1F1" height="64.2969" id="TransferRepository" rx="2.5" ry="2.5" style="stroke:#181818;stroke-width:0.5;" width="707" x="93.5" y="605.22"/><ellipse cx="377.25" cy="621.22" fill="#B4A7E5" rx="11" ry="11" style="stroke:#181818;stroke-width:1.0;"/><path d="M373.1719,616.9856 L373.1719,614.8294 L380.5625,614.8294 L380.5625,616.9856 L378.0938,616.9856 L378.0938,625.0638 L380.5625,625.0638 L380.5625,627.22 L373.1719,627.22 L373.1719,625.0638 L375.6406,625.0638 L375.6406,616.9856 L373.1719,616.9856 Z " fill="#000000"/><text fill="#000000" font-family="sans-serif" font-size="14" font-style="italic" lengthAdjust="spacing" textLength="131" x="397.75" y="626.0667">TransferRepository</text><line style="stroke:#181818;stroke-width:0.5;" x1="94.5" x2="799.5" y1="637.22" y2="637.22"/><line style="stroke:#181818;stroke-width:0.5;" x1="94.5" x2="799.5" y1="645.22" y2="645.22"/><ellipse cx="104.5" cy="658.8684" fill="#84BE84" rx="3" ry="3" style="stroke:#038048;stroke-width:1.0;"/><text fill="#000000" font-family="sans-serif" font-size="14" lengthAdjust="spacing" textLength="681" x="113.5" y="662.2151">findByGroupIdAndPeriod(groupId: Long, startDate: LocalDate, endDate: LocalDate): List&lt;Transfer&gt;</text></g><!--class Transfer--><g id="elem_Transfer"><rect codeLine="23" fill="#F1F1F1" height="129.4844" id="Transfer" rx="2.5" ry="2.5" style="stroke:#181818;stroke-width:0.5;" width="189" x="352.5" y="760.82"/><ellipse cx="414.25" cy="776.82" fill="#ADD1B2" rx="11" ry="11" style="stroke:#181818;stroke-width:1.0;"/><path d="M417.2188,782.4606 Q416.6406,782.7575 416,782.8981 Q415.3594,783.0544 414.6563,783.0544 Q412.1563,783.0544 410.8281,781.4137 Q409.5156,779.7575 409.5156,776.6325 Q409.5156,773.5075 410.8281,771.8512 Q412.1563,770.195 414.6563,770.195 Q415.3594,770.195 416,770.3512 Q416.6563,770.5075 417.2188,770.8044 L417.2188,773.5231 Q416.5938,772.945 416,772.6794 Q415.4063,772.3981 414.7813,772.3981 Q413.4375,772.3981 412.75,773.4762 Q412.0625,774.5387 412.0625,776.6325 Q412.0625,778.7262 412.75,779.8044 Q413.4375,780.8669 414.7813,780.8669 Q415.4063,780.8669 416,780.6012 Q416.5938,780.32 417.2188,779.7419 L417.2188,782.4606 Z " fill="#000000"/><text fill="#000000" font-family="sans-serif" font-size="14" lengthAdjust="spacing" textLength="57" x="434.75" y="781.6667">Transfer</text><line style="stroke:#181818;stroke-width:0.5;" x1="353.5" x2="540.5" y1="792.82" y2="792.82"/><rect fill="none" height="6" style="stroke:#C82930;stroke-width:1.0;" width="6" x="360.5" y="803.4684"/><text fill="#000000" font-family="sans-serif" font-size="14" lengthAdjust="spacing" textLength="55" x="372.5" y="809.8151">id: Long</text><rect fill="none" height="6" style="stroke:#C82930;stroke-width:1.0;" width="6" x="360.5" y="819.7653"/><text fill="#000000" font-family="sans-serif" font-size="14" lengthAdjust="spacing" textLength="96" x="372.5" y="826.112">groupId: Long</text><rect fill="none" height="6" style="stroke:#C82930;stroke-width:1.0;" width="6" x="360.5" y="836.0622"/><text fill="#000000" font-family="sans-serif" font-size="14" lengthAdjust="spacing" textLength="113" x="372.5" y="842.4089">memberId: Long</text><rect fill="none" height="6" style="stroke:#C82930;stroke-width:1.0;" width="6" x="360.5" y="852.3591"/><text fill="#000000" font-family="sans-serif" font-size="14" lengthAdjust="spacing" textLength="139" x="372.5" y="858.7057">amount: BigDecimal</text><rect fill="none" height="6" style="stroke:#C82930;stroke-width:1.0;" width="6" x="360.5" y="868.6559"/><text fill="#000000" font-family="sans-serif" font-size="14" lengthAdjust="spacing" textLength="163" x="372.5" y="875.0026">transferDate: LocalDate</text><line style="stroke:#181818;stroke-width:0.5;" x1="353.5" x2="540.5" y1="882.3044" y2="882.3044"/></g><!--class TransferRequest--><g id="elem_TransferRequest"><rect codeLine="33" fill="#F1F1F1" height="80.5938" id="TransferRequest" rx="2.5" ry="2.5" style="stroke:#181818;stroke-width:0.5;" width="148" x="1081" y="597.07"/><ellipse cx="1096" cy="613.07" fill="#ADD1B2" rx="11" ry="11" style="stroke:#181818;stroke-width:1.0;"/><path d="M1098.9688,618.7106 Q1098.3906,619.0075 1097.75,619.1481 Q1097.1094,619.3044 1096.4063,619.3044 Q1093.9063,619.3044 1092.5781,617.6637 Q1091.2656,616.0075 1091.2656,612.8825 Q1091.2656,609.7575 1092.5781,608.1012 Q1093.9063,606.445 1096.4063,606.445 Q1097.1094,606.445 1097.75,606.6012 Q1098.4063,606.7575 1098.9688,607.0544 L1098.9688,609.7731 Q1098.3438,609.195 1097.75,608.9294 Q1097.1563,608.6481 1096.5313,608.6481 Q1095.1875,608.6481 1094.5,609.7262 Q1093.8125,610.7887 1093.8125,612.8825 Q1093.8125,614.9762 1094.5,616.0544 Q1095.1875,617.1169 1096.5313,617.1169 Q1097.1563,617.1169 1097.75,616.8512 Q1098.3438,616.57 1098.9688,615.9919 L1098.9688,618.7106 Z " fill="#000000"/><text fill="#000000" font-family="sans-serif" font-size="14" lengthAdjust="spacing" textLength="116" x="1110" y="617.9167">TransferRequest</text><line style="stroke:#181818;stroke-width:0.5;" x1="1082" x2="1228" y1="629.07" y2="629.07"/><rect fill="none" height="6" style="stroke:#C82930;stroke-width:1.0;" width="6" x="1089" y="639.7184"/><text fill="#000000" font-family="sans-serif" font-size="14" lengthAdjust="spacing" textLength="96" x="1101" y="646.0651">groupId: Long</text><rect fill="none" height="6" style="stroke:#C82930;stroke-width:1.0;" width="6" x="1089" y="656.0153"/><text fill="#000000" font-family="sans-serif" font-size="14" lengthAdjust="spacing" textLength="97" x="1101" y="662.362">period: Period</text><line style="stroke:#181818;stroke-width:0.5;" x1="1082" x2="1228" y1="669.6637" y2="669.6637"/></g><!--class TransferResponse--><g id="elem_TransferResponse"><rect codeLine="38" fill="#F1F1F1" height="96.8906" id="TransferResponse" rx="2.5" ry="2.5" style="stroke:#181818;stroke-width:0.5;" width="189" x="856.5" y="588.93"/><ellipse cx="884.55" cy="604.93" fill="#ADD1B2" rx="11" ry="11" style="stroke:#181818;stroke-width:1.0;"/><path d="M887.5188,610.5706 Q886.9406,610.8675 886.3,611.0081 Q885.6594,611.1644 884.9563,611.1644 Q882.4563,611.1644 881.1281,609.5238 Q879.8156,607.8675 879.8156,604.7425 Q879.8156,601.6175 881.1281,599.9613 Q882.4563,598.305 884.9563,598.305 Q885.6594,598.305 886.3,598.4613 Q886.9563,598.6175 887.5188,598.9144 L887.5188,601.6331 Q886.8938,601.055 886.3,600.7894 Q885.7063,600.5081 885.0813,600.5081 Q883.7375,600.5081 883.05,601.5863 Q882.3625,602.6488 882.3625,604.7425 Q882.3625,606.8363 883.05,607.9144 Q883.7375,608.9769 885.0813,608.9769 Q885.7063,608.9769 886.3,608.7113 Q886.8938,608.43 887.5188,607.8519 L887.5188,610.5706 Z " fill="#000000"/><text fill="#000000" font-family="sans-serif" font-size="14" lengthAdjust="spacing" textLength="128" x="901.45" y="609.7767">TransferResponse</text><line style="stroke:#181818;stroke-width:0.5;" x1="857.5" x2="1044.5" y1="620.93" y2="620.93"/><rect fill="none" height="6" style="stroke:#C82930;stroke-width:1.0;" width="6" x="864.5" y="631.5784"/><text fill="#000000" font-family="sans-serif" font-size="14" lengthAdjust="spacing" textLength="113" x="876.5" y="637.9251">memberId: Long</text><rect fill="none" height="6" style="stroke:#C82930;stroke-width:1.0;" width="6" x="864.5" y="647.8753"/><text fill="#000000" font-family="sans-serif" font-size="14" lengthAdjust="spacing" textLength="139" x="876.5" y="654.222">amount: BigDecimal</text><rect fill="none" height="6" style="stroke:#C82930;stroke-width:1.0;" width="6" x="864.5" y="664.1722"/><text fill="#000000" font-family="sans-serif" font-size="14" lengthAdjust="spacing" textLength="163" x="876.5" y="670.5189">transferDate: LocalDate</text><line style="stroke:#181818;stroke-width:0.5;" x1="857.5" x2="1044.5" y1="677.8206" y2="677.8206"/></g><!--class LoggingAspect--><g id="elem_LoggingAspect"><rect codeLine="47" fill="#F1F1F1" height="64.2969" id="LoggingAspect" rx="2.5" ry="2.5" style="stroke:#181818;stroke-width:0.5;" width="367" x="771.5" y="245.59"/><ellipse cx="899.25" cy="261.59" fill="#ADD1B2" rx="11" ry="11" style="stroke:#181818;stroke-width:1.0;"/><path d="M902.2188,267.2306 Q901.6406,267.5275 901,267.6681 Q900.3594,267.8244 899.6563,267.8244 Q897.1563,267.8244 895.8281,266.1837 Q894.5156,264.5275 894.5156,261.4025 Q894.5156,258.2775 895.8281,256.6212 Q897.1563,254.965 899.6563,254.965 Q900.3594,254.965 901,255.1212 Q901.6563,255.2775 902.2188,255.5744 L902.2188,258.2931 Q901.5938,257.715 901,257.4494 Q900.4063,257.1681 899.7813,257.1681 Q898.4375,257.1681 897.75,258.2462 Q897.0625,259.3087 897.0625,261.4025 Q897.0625,263.4962 897.75,264.5744 Q898.4375,265.6369 899.7813,265.6369 Q900.4063,265.6369 901,265.3712 Q901.5938,265.09 902.2188,264.5119 L902.2188,267.2306 Z " fill="#000000"/><text fill="#000000" font-family="sans-serif" font-size="14" lengthAdjust="spacing" textLength="103" x="919.75" y="266.4367">LoggingAspect</text><line style="stroke:#181818;stroke-width:0.5;" x1="772.5" x2="1137.5" y1="277.59" y2="277.59"/><line style="stroke:#181818;stroke-width:0.5;" x1="772.5" x2="1137.5" y1="285.59" y2="285.59"/><ellipse cx="782.5" cy="299.2384" fill="#84BE84" rx="3" ry="3" style="stroke:#038048;stroke-width:1.0;"/><text fill="#000000" font-family="sans-serif" font-size="14" lengthAdjust="spacing" textLength="341" x="791.5" y="302.5851">logAround(joinPoint: ProceedingJoinPoint): Object</text></g><!--class SecurityConfig--><g id="elem_SecurityConfig"><rect codeLine="51" fill="#F1F1F1" height="64.2969" id="SecurityConfig" rx="2.5" ry="2.5" style="stroke:#181818;stroke-width:0.5;" width="259" x="1173.5" y="245.59"/><ellipse cx="1249.25" cy="261.59" fill="#ADD1B2" rx="11" ry="11" style="stroke:#181818;stroke-width:1.0;"/><path d="M1252.2188,267.2306 Q1251.6406,267.5275 1251,267.6681 Q1250.3594,267.8244 1249.6563,267.8244 Q1247.1563,267.8244 1245.8281,266.1837 Q1244.5156,264.5275 1244.5156,261.4025 Q1244.5156,258.2775 1245.8281,256.6212 Q1247.1563,254.965 1249.6563,254.965 Q1250.3594,254.965 1251,255.1212 Q1251.6563,255.2775 1252.2188,255.5744 L1252.2188,258.2931 Q1251.5938,257.715 1251,257.4494 Q1250.4063,257.1681 1249.7813,257.1681 Q1248.4375,257.1681 1247.75,258.2462 Q1247.0625,259.3087 1247.0625,261.4025 Q1247.0625,263.4962 1247.75,264.5744 Q1248.4375,265.6369 1249.7813,265.6369 Q1250.4063,265.6369 1251,265.3712 Q1251.5938,265.09 1252.2188,264.5119 L1252.2188,267.2306 Z " fill="#000000"/><text fill="#000000" font-family="sans-serif" font-size="14" lengthAdjust="spacing" textLength="99" x="1269.75" y="266.4367">SecurityConfig</text><line style="stroke:#181818;stroke-width:0.5;" x1="1174.5" x2="1431.5" y1="277.59" y2="277.59"/><line style="stroke:#181818;stroke-width:0.5;" x1="1174.5" x2="1431.5" y1="285.59" y2="285.59"/><ellipse cx="1184.5" cy="299.2384" fill="#84BE84" rx="3" ry="3" style="stroke:#038048;stroke-width:1.0;"/><text fill="#000000" font-family="sans-serif" font-size="14" lengthAdjust="spacing" textLength="233" x="1193.5" y="302.5851">configure(http: HttpSecurity): void</text></g><!--class SpringDocConfig--><g id="elem_SpringDocConfig"><rect codeLine="55" fill="#F1F1F1" height="64.2969" id="SpringDocConfig" rx="2.5" ry="2.5" style="stroke:#181818;stroke-width:0.5;" width="148" x="881" y="425.63"/><ellipse cx="896" cy="441.63" fill="#ADD1B2" rx="11" ry="11" style="stroke:#181818;stroke-width:1.0;"/><path d="M898.9688,447.2706 Q898.3906,447.5675 897.75,447.7081 Q897.1094,447.8644 896.4063,447.8644 Q893.9063,447.8644 892.5781,446.2238 Q891.2656,444.5675 891.2656,441.4425 Q891.2656,438.3175 892.5781,436.6613 Q893.9063,435.005 896.4063,435.005 Q897.1094,435.005 897.75,435.1613 Q898.4063,435.3175 898.9688,435.6144 L898.9688,438.3331 Q898.3438,437.755 897.75,437.4894 Q897.1563,437.2081 896.5313,437.2081 Q895.1875,437.2081 894.5,438.2863 Q893.8125,439.3488 893.8125,441.4425 Q893.8125,443.5363 894.5,444.6144 Q895.1875,445.6769 896.5313,445.6769 Q897.1563,445.6769 897.75,445.4113 Q898.3438,445.13 898.9688,444.5519 L898.9688,447.2706 Z " fill="#000000"/><text fill="#000000" font-family="sans-serif" font-size="14" lengthAdjust="spacing" textLength="116" x="910" y="446.4767">SpringDocConfig</text><line style="stroke:#181818;stroke-width:0.5;" x1="882" x2="1028" y1="457.63" y2="457.63"/><line style="stroke:#181818;stroke-width:0.5;" x1="882" x2="1028" y1="465.63" y2="465.63"/><ellipse cx="892" cy="479.2784" fill="#84BE84" rx="3" ry="3" style="stroke:#038048;stroke-width:1.0;"/><text fill="#000000" font-family="sans-serif" font-size="14" lengthAdjust="spacing" textLength="98" x="901" y="482.6251">api(): OpenAPI</text></g><!--class JwtTokenProvider--><g id="elem_JwtTokenProvider"><rect codeLine="61" fill="#F1F1F1" height="129.4844" id="JwtTokenProvider" rx="2.5" ry="2.5" style="stroke:#181818;stroke-width:0.5;" width="358" x="1488" y="213"/><ellipse cx="1603.25" cy="229" fill="#ADD1B2" rx="11" ry="11" style="stroke:#181818;stroke-width:1.0;"/><path d="M1606.2188,234.6406 Q1605.6406,234.9375 1605,235.0781 Q1604.3594,235.2344 1603.6563,235.2344 Q1601.1563,235.2344 1599.8281,233.5938 Q1598.5156,231.9375 1598.5156,228.8125 Q1598.5156,225.6875 1599.8281,224.0313 Q1601.1563,222.375 1603.6563,222.375 Q1604.3594,222.375 1605,222.5313 Q1605.6563,222.6875 1606.2188,222.9844 L1606.2188,225.7031 Q1605.5938,225.125 1605,224.8594 Q1604.4063,224.5781 1603.7813,224.5781 Q1602.4375,224.5781 1601.75,225.6563 Q1601.0625,226.7188 1601.0625,228.8125 Q1601.0625,230.9063 1601.75,231.9844 Q1602.4375,233.0469 1603.7813,233.0469 Q1604.4063,233.0469 1605,232.7813 Q1605.5938,232.5 1606.2188,231.9219 L1606.2188,234.6406 Z " fill="#000000"/><text fill="#000000" font-family="sans-serif" font-size="14" lengthAdjust="spacing" textLength="119" x="1623.75" y="233.8467">JwtTokenProvider</text><line style="stroke:#181818;stroke-width:0.5;" x1="1489" x2="1845" y1="245" y2="245"/><rect fill="none" height="6" style="stroke:#C82930;stroke-width:1.0;" width="6" x="1496" y="255.6484"/><text fill="#000000" font-family="sans-serif" font-size="14" lengthAdjust="spacing" textLength="118" x="1508" y="261.9951">secretKey: String</text><rect fill="none" height="6" style="stroke:#C82930;stroke-width:1.0;" width="6" x="1496" y="271.9453"/><text fill="#000000" font-family="sans-serif" font-size="14" lengthAdjust="spacing" textLength="222" x="1508" y="278.292">tokenValidityInMilliseconds: long</text><line style="stroke:#181818;stroke-width:0.5;" x1="1489" x2="1845" y1="285.5938" y2="285.5938"/><ellipse cx="1499" cy="299.2422" fill="#84BE84" rx="3" ry="3" style="stroke:#038048;stroke-width:1.0;"/><text fill="#000000" font-family="sans-serif" font-size="14" lengthAdjust="spacing" textLength="332" x="1508" y="302.5889">generateToken(userDetails: UserDetails): String</text><ellipse cx="1499" cy="315.5391" fill="#84BE84" rx="3" ry="3" style="stroke:#038048;stroke-width:1.0;"/><text fill="#000000" font-family="sans-serif" font-size="14" lengthAdjust="spacing" textLength="260" x="1508" y="318.8857">validateToken(token: String): boolean</text><ellipse cx="1499" cy="331.8359" fill="#84BE84" rx="3" ry="3" style="stroke:#038048;stroke-width:1.0;"/><text fill="#000000" font-family="sans-serif" font-size="14" lengthAdjust="spacing" textLength="288" x="1508" y="335.1826">getUserIdFromToken(token: String): Long</text></g><!--class JwtAuthenticationFilter--><g id="elem_JwtAuthenticationFilter"><rect codeLine="69" fill="#F1F1F1" height="80.5938" id="JwtAuthenticationFilter" rx="2.5" ry="2.5" style="stroke:#181818;stroke-width:0.5;" width="760" x="1881" y="237.44"/><ellipse cx="2180.75" cy="253.44" fill="#ADD1B2" rx="11" ry="11" style="stroke:#181818;stroke-width:1.0;"/><path d="M2183.7188,259.0806 Q2183.1406,259.3775 2182.5,259.5181 Q2181.8594,259.6744 2181.1563,259.6744 Q2178.6563,259.6744 2177.3281,258.0337 Q2176.0156,256.3775 2176.0156,253.2525 Q2176.0156,250.1275 2177.3281,248.4712 Q2178.6563,246.815 2181.1563,246.815 Q2181.8594,246.815 2182.5,246.9712 Q2183.1563,247.1275 2183.7188,247.4244 L2183.7188,250.1431 Q2183.0938,249.565 2182.5,249.2994 Q2181.9063,249.0181 2181.2813,249.0181 Q2179.9375,249.0181 2179.25,250.0962 Q2178.5625,251.1587 2178.5625,253.2525 Q2178.5625,255.3462 2179.25,256.4244 Q2179.9375,257.4869 2181.2813,257.4869 Q2181.9063,257.4869 2182.5,257.2212 Q2183.0938,256.94 2183.7188,256.3619 L2183.7188,259.0806 Z " fill="#000000"/><text fill="#000000" font-family="sans-serif" font-size="14" lengthAdjust="spacing" textLength="152" x="2201.25" y="258.2867">JwtAuthenticationFilter</text><line style="stroke:#181818;stroke-width:0.5;" x1="1882" x2="2640" y1="269.44" y2="269.44"/><rect fill="none" height="6" style="stroke:#C82930;stroke-width:1.0;" width="6" x="1889" y="280.0884"/><text fill="#000000" font-family="sans-serif" font-size="14" lengthAdjust="spacing" textLength="247" x="1901" y="286.4351">jwtTokenProvider: JwtTokenProvider</text><line style="stroke:#181818;stroke-width:0.5;" x1="1882" x2="2640" y1="293.7369" y2="293.7369"/><ellipse cx="1892" cy="307.3853" fill="#84BE84" rx="3" ry="3" style="stroke:#038048;stroke-width:1.0;"/><text fill="#000000" font-family="sans-serif" font-size="14" lengthAdjust="spacing" textLength="734" x="1901" y="310.732">doFilterInternal(request: HttpServletRequest, response: HttpServletResponse, filterChain: FilterChain): void</text></g><!--class TransferException--><g id="elem_TransferException"><rect codeLine="77" fill="#F1F1F1" height="80.5938" id="TransferException" rx="2.5" ry="2.5" style="stroke:#181818;stroke-width:0.5;" width="274" x="2721" y="237.44"/><ellipse cx="2791.25" cy="253.44" fill="#ADD1B2" rx="11" ry="11" style="stroke:#181818;stroke-width:1.0;"/><path d="M2794.2188,259.0806 Q2793.6406,259.3775 2793,259.5181 Q2792.3594,259.6744 2791.6563,259.6744 Q2789.1563,259.6744 2787.8281,258.0337 Q2786.5156,256.3775 2786.5156,253.2525 Q2786.5156,250.1275 2787.8281,248.4712 Q2789.1563,246.815 2791.6563,246.815 Q2792.3594,246.815 2793,246.9712 Q2793.6563,247.1275 2794.2188,247.4244 L2794.2188,250.1431 Q2793.5938,249.565 2793,249.2994 Q2792.4063,249.0181 2791.7813,249.0181 Q2790.4375,249.0181 2789.75,250.0962 Q2789.0625,251.1587 2789.0625,253.2525 Q2789.0625,255.3462 2789.75,256.4244 Q2790.4375,257.4869 2791.7813,257.4869 Q2792.4063,257.4869 2793,257.2212 Q2793.5938,256.94 2794.2188,256.3619 L2794.2188,259.0806 Z " fill="#000000"/><text fill="#000000" font-family="sans-serif" font-size="14" lengthAdjust="spacing" textLength="125" x="2811.75" y="258.2867">TransferException</text><line style="stroke:#181818;stroke-width:0.5;" x1="2722" x2="2994" y1="269.44" y2="269.44"/><rect fill="none" height="6" style="stroke:#C82930;stroke-width:1.0;" width="6" x="2729" y="280.0884"/><text fill="#000000" font-family="sans-serif" font-size="14" lengthAdjust="spacing" textLength="113" x="2741" y="286.4351">message: String</text><line style="stroke:#181818;stroke-width:0.5;" x1="2722" x2="2994" y1="293.7369" y2="293.7369"/><ellipse cx="2732" cy="307.3853" fill="#84BE84" rx="3" ry="3" style="stroke:#038048;stroke-width:1.0;"/><text fill="#000000" font-family="sans-serif" font-size="14" lengthAdjust="spacing" textLength="248" x="2741" y="310.732">TransferException(message: String)</text></g><!--class Period--><g id="elem_Period"><rect codeLine="84" fill="#F1F1F1" height="80.5938" id="Period" rx="2.5" ry="2.5" style="stroke:#181818;stroke-width:0.5;" width="127" x="1091.5" y="785.26"/><ellipse cx="1129.45" cy="801.26" fill="#EB937F" rx="11" ry="11" style="stroke:#181818;stroke-width:1.0;"/><path d="M1133.5594,807.26 L1125.8406,807.26 L1125.8406,794.8694 L1133.5594,794.8694 L1133.5594,797.0256 L1128.2938,797.0256 L1128.2938,799.6975 L1133.0594,799.6975 L1133.0594,801.8538 L1128.2938,801.8538 L1128.2938,805.1038 L1133.5594,805.1038 L1133.5594,807.26 Z " fill="#000000"/><text fill="#000000" font-family="sans-serif" font-size="14" lengthAdjust="spacing" textLength="44" x="1148.55" y="806.1067">Period</text><line style="stroke:#181818;stroke-width:0.5;" x1="1092.5" x2="1217.5" y1="817.26" y2="817.26"/><text fill="#000000" font-family="sans-serif" font-size="14" lengthAdjust="spacing" textLength="115" x="1097.5" y="834.2551">THREE_MONTHS</text><text fill="#000000" font-family="sans-serif" font-size="14" lengthAdjust="spacing" textLength="74" x="1097.5" y="850.552">ONE_YEAR</text><line style="stroke:#181818;stroke-width:0.5;" x1="1092.5" x2="1217.5" y1="857.8538" y2="857.8538"/></g><!--link TransferController to TransferService--><g id="link_TransferController_TransferService"><path codeLine="90" d="M406.9,318.25 C398.65,347.65 389.0421,381.8434 380.7721,411.2934 " fill="none" id="TransferController-to-TransferService" style="stroke:#181818;stroke-width:1.0;"/><polygon fill="#181818" points="379.15,417.07,385.4343,409.4866,380.5018,412.2562,377.7322,407.3237,379.15,417.07" style="stroke:#181818;stroke-width:1.0;"/></g><!--link TransferService to TransferRepository--><g id="link_TransferService_TransferRepository"><path codeLine="91" d="M385.53,498.19 C399.81,530.28 417.2503,569.4984 430.5003,599.2684 " fill="none" id="TransferService-to-TransferRepository" style="stroke:#181818;stroke-width:1.0;"/><polygon fill="#181818" points="432.94,604.75,432.9348,594.9011,430.9069,600.182,425.626,598.1541,432.94,604.75" style="stroke:#181818;stroke-width:1.0;"/></g><!--link TransferRepository to Transfer--><g id="link_TransferRepository_Transfer"><path codeLine="92" d="M447,669.95 C447,694.65 447,723.79 447,754.33 " fill="none" id="TransferRepository-to-Transfer" style="stroke:#181818;stroke-width:1.0;"/><polygon fill="#181818" points="447,760.33,451,751.33,447,755.33,443,751.33,447,760.33" style="stroke:#181818;stroke-width:1.0;"/></g><!--link TransferController to TransferRequest--><g id="link_TransferController_TransferRequest"><path codeLine="93" d="M601.11,318.51 C633.95,332.08 665.72,350.22 691,374.48 C747.41,428.61 691.89,493.19 756,537.93 C783.98,557.45 1031.59,532.59 1063,545.93 C1088.15,556.6 1106.3488,573.0644 1122.5588,592.1744 " fill="none" id="TransferController-to-TransferRequest" style="stroke:#181818;stroke-width:1.0;stroke-dasharray:7.0,7.0;"/><polygon fill="#181818" points="1126.44,596.75,1123.6685,587.2991,1123.2056,592.937,1117.5678,592.4741,1126.44,596.75" style="stroke:#181818;stroke-width:1.0;"/></g><!--link TransferController to TransferResponse--><g id="link_TransferController_TransferResponse"><path codeLine="94" d="M576.79,318.44 C606.97,332.07 635.96,350.26 658,374.48 C708.96,430.47 647.08,490.39 706,537.93 C725.07,553.31 792.82,537.95 816,545.93 C843.61,555.43 866.0909,568.524 888.8809,584.934 " fill="none" id="TransferController-to-TransferResponse" style="stroke:#181818;stroke-width:1.0;stroke-dasharray:7.0,7.0;"/><polygon fill="#181818" points="893.75,588.44,888.7837,579.9349,889.6924,585.5183,884.109,586.4271,893.75,588.44" style="stroke:#181818;stroke-width:1.0;"/></g><!--link TransferService to TransferResponse--><g id="link_TransferService_TransferResponse"><path codeLine="95" d="M495.68,498.47 C548.77,513.37 611.35,528.87 669,537.93 C701.32,543 784.97,535.56 816,545.93 C843.96,555.26 866.7314,568.5296 889.6414,585.1296 " fill="none" id="TransferService-to-TransferResponse" style="stroke:#181818;stroke-width:1.0;stroke-dasharray:7.0,7.0;"/><polygon fill="#181818" points="894.5,588.65,889.559,580.1302,890.4511,585.7163,884.8651,586.6084,894.5,588.65" style="stroke:#181818;stroke-width:1.0;"/></g><!--link TransferRequest to Period--><g id="link_TransferRequest_Period"><path codeLine="96" d="M1155,677.86 C1155,709.35 1155,747.25 1155,778.81 " fill="none" id="TransferRequest-to-Period" style="stroke:#181818;stroke-width:1.0;"/><polygon fill="#181818" points="1155,784.81,1159,775.81,1155,779.81,1151,775.81,1155,784.81" style="stroke:#181818;stroke-width:1.0;"/></g><!--SRC=[lLNRRjim37tlL-ZHHIuV40m5qYPPqlKI9Dc0FHMApRXAPScJv7J5q7yV5SkEhAZONhO79pPro7D8YLH9qnUQ0qbbCTJLLh4CXaPHeNUWoAyBGieM88oId3ip8IcdMfEDmzw4ouGCI1De3Uh0KXYrQ6Tmm1x9mJHBSwQDL6z9hcHLBh8HkPCYxvCI59FujJp-Nw8PSPyQfnNeKWeDLyU8xnVsyRJhcYugVDrPyrMle9IQMJ4duIVR_zAkMaOdaGa3QaTHyhceDeiUsJ6HNRzzhfMCHLQJXzAqeSfCg05hI2cthtq28WjieUWFn88mpBn5w-mLc3dwrj0HrLeBABQWpioqa9Km8tBDyWcahA3yRES2yN6jcP5HeIluKO4sdjwulEwkEevel7f_lO3_E3FivK8An-VrxuxbhOXQuvtCSoRoiIuXFMLiZm-N-HZJ5bcobqmiyK5XIoLJW0mzRXiZ7ep7xHwzdQyhGKEmXhHIU2HkkkoMeHPKAKYUZIb7P8w_3HoZ7YJBFeXPAbGmaMaaA2rPOYML8CRBHUllHMdgiNyrGJ5kNyr6le30B0yu1fKNU80Z95LWlW3EWhMn_DwQiLxVA6SPIb-8UyOvGxmKcHvX8JsidHO25ExSaIcfS39Dm5364Vdrz75vnj8Z1qlGUXuv6nJ2jr9oeAB3P6p4HJPJieWxUQSlg37MOboPPzlFAJLCYXdZ9YZ9FgZNwAo2dffCrX4MTde9oXDLjrcpx-h0mRZMw-FGgticMAsDVPnjDjJDCsMOpUpq4HwR-8pwcK9fKufs_pHOhTjLQ_GCzgHtxfC4oCkFfcHLQ1VVlhiHqZ9kvglfzEd-yM4pNplJuyFqwVjqlEe6Z5o-Wy5Lv9ODBpiVrRdI8bUAZurp3eTNuVJy6s2zcn5rVu0r0zeASyFt_JS0]--></g></svg>