<svg xmlns="http://www.w3.org/2000/svg" xmlns:xlink="http://www.w3.org/1999/xlink" contentStyleType="text/css" height="915px" preserveAspectRatio="none" style="width:6824px;height:915px;background:#FFFFFF;" version="1.1" viewBox="0 0 6824 915" width="6824px" zoomAndPan="magnify"><defs/><g><!--cluster member--><g id="cluster_member"><path d="M8.5,6 L74.5,6 A3.75,3.75 0 0 1 77,8.5 L84,28.2969 L6814.5,28.2969 A2.5,2.5 0 0 1 6817,30.7969 L6817,905.7 A2.5,2.5 0 0 1 6814.5,908.2 L8.5,908.2 A2.5,2.5 0 0 1 6,905.7 L6,8.5 A2.5,2.5 0 0 1 8.5,6 " fill="none" style="stroke:#000000;stroke-width:1.5;"/><line style="stroke:#000000;stroke-width:1.5;" x1="6" x2="84" y1="28.2969" y2="28.2969"/><text fill="#000000" font-family="sans-serif" font-size="14" font-weight="bold" lengthAdjust="spacing" textLength="65" x="10" y="20.9951">member</text></g><!--cluster biz--><g id="cluster_biz"><path d="M32.5,49 L56.5,49 A3.75,3.75 0 0 1 59,51.5 L66,71.2969 L1602.5,71.2969 A2.5,2.5 0 0 1 1605,73.7969 L1605,635.18 A2.5,2.5 0 0 1 1602.5,637.68 L32.5,637.68 A2.5,2.5 0 0 1 30,635.18 L30,51.5 A2.5,2.5 0 0 1 32.5,49 " fill="none" style="stroke:#000000;stroke-width:1.5;"/><line style="stroke:#000000;stroke-width:1.5;" x1="30" x2="66" y1="71.2969" y2="71.2969"/><text fill="#000000" font-family="sans-serif" font-size="14" font-weight="bold" lengthAdjust="spacing" textLength="23" x="34" y="63.9951">biz</text></g><!--cluster usecase--><g id="cluster_usecase"><path d="M56.5,92 L123.5,92 A3.75,3.75 0 0 1 126,94.5 L133,114.2969 L951.5,114.2969 A2.5,2.5 0 0 1 954,116.7969 L954,611.18 A2.5,2.5 0 0 1 951.5,613.68 L56.5,613.68 A2.5,2.5 0 0 1 54,611.18 L54,94.5 A2.5,2.5 0 0 1 56.5,92 " fill="none" style="stroke:#000000;stroke-width:1.5;"/><line style="stroke:#000000;stroke-width:1.5;" x1="54" x2="133" y1="114.2969" y2="114.2969"/><text fill="#000000" font-family="sans-serif" font-size="14" font-weight="bold" lengthAdjust="spacing" textLength="66" x="58" y="106.9951">usecase</text></g><!--cluster inport--><g id="cluster_inport"><path d="M518.5,135 L566.5,135 A3.75,3.75 0 0 1 569,137.5 L576,157.2969 L927.5,157.2969 A2.5,2.5 0 0 1 930,159.7969 L930,280.4 A2.5,2.5 0 0 1 927.5,282.9 L518.5,282.9 A2.5,2.5 0 0 1 516,280.4 L516,137.5 A2.5,2.5 0 0 1 518.5,135 " fill="none" style="stroke:#000000;stroke-width:1.5;"/><line style="stroke:#000000;stroke-width:1.5;" x1="516" x2="576" y1="157.2969" y2="157.2969"/><text fill="#000000" font-family="sans-serif" font-size="14" font-weight="bold" lengthAdjust="spacing" textLength="47" x="520" y="149.9951">inport</text></g><!--cluster outport--><g id="cluster_outport"><path d="M80.5,458.08 L140.5,458.08 A3.75,3.75 0 0 1 143,460.58 L150,480.3769 L507.5,480.3769 A2.5,2.5 0 0 1 510,482.8769 L510,587.18 A2.5,2.5 0 0 1 507.5,589.68 L80.5,589.68 A2.5,2.5 0 0 1 78,587.18 L78,460.58 A2.5,2.5 0 0 1 80.5,458.08 " fill="none" style="stroke:#000000;stroke-width:1.5;"/><line style="stroke:#000000;stroke-width:1.5;" x1="78" x2="150" y1="480.3769" y2="480.3769"/><text fill="#000000" font-family="sans-serif" font-size="14" font-weight="bold" lengthAdjust="spacing" textLength="59" x="82" y="473.0751">outport</text></g><!--cluster service--><g id="cluster_service"><path d="M80.5,135 L139.5,135 A3.75,3.75 0 0 1 142,137.5 L149,157.2969 L489.5,157.2969 A2.5,2.5 0 0 1 492,159.7969 L492,280.4 A2.5,2.5 0 0 1 489.5,282.9 L80.5,282.9 A2.5,2.5 0 0 1 78,280.4 L78,137.5 A2.5,2.5 0 0 1 80.5,135 " fill="none" style="stroke:#000000;stroke-width:1.5;"/><line style="stroke:#000000;stroke-width:1.5;" x1="78" x2="149" y1="157.2969" y2="157.2969"/><text fill="#000000" font-family="sans-serif" font-size="14" font-weight="bold" lengthAdjust="spacing" textLength="58" x="82" y="149.9951">service</text></g><!--cluster domain--><g id="cluster_domain"><path d="M980.5,110.56 L1038.5,110.56 A3.75,3.75 0 0 1 1041,113.06 L1048,132.8569 L1400.5,132.8569 A2.5,2.5 0 0 1 1403,135.3569 L1403,304.84 A2.5,2.5 0 0 1 1400.5,307.34 L980.5,307.34 A2.5,2.5 0 0 1 978,304.84 L978,113.06 A2.5,2.5 0 0 1 980.5,110.56 " fill="none" style="stroke:#000000;stroke-width:1.5;"/><line style="stroke:#000000;stroke-width:1.5;" x1="978" x2="1048" y1="132.8569" y2="132.8569"/><text fill="#000000" font-family="sans-serif" font-size="14" font-weight="bold" lengthAdjust="spacing" textLength="57" x="982" y="125.5551">domain</text></g><!--cluster exception--><g id="cluster_exception"><path d="M1429.5,159.45 L1508.5,159.45 A3.75,3.75 0 0 1 1511,161.95 L1518,181.7469 L1578.5,181.7469 A2.5,2.5 0 0 1 1581,184.2469 L1581,255.95 A2.5,2.5 0 0 1 1578.5,258.45 L1429.5,258.45 A2.5,2.5 0 0 1 1427,255.95 L1427,161.95 A2.5,2.5 0 0 1 1429.5,159.45 " fill="none" style="stroke:#000000;stroke-width:1.5;"/><line style="stroke:#000000;stroke-width:1.5;" x1="1427" x2="1518" y1="181.7469" y2="181.7469"/><text fill="#000000" font-family="sans-serif" font-size="14" font-weight="bold" lengthAdjust="spacing" textLength="78" x="1431" y="174.4451">exception</text></g><!--cluster infra--><g id="cluster_infra"><path d="M1631.5,331.34 L1668.5,331.34 A3.75,3.75 0 0 1 1671,333.84 L1678,353.6369 L6790.5,353.6369 A2.5,2.5 0 0 1 6793,356.1369 L6793,881.7 A2.5,2.5 0 0 1 6790.5,884.2 L1631.5,884.2 A2.5,2.5 0 0 1 1629,881.7 L1629,333.84 A2.5,2.5 0 0 1 1631.5,331.34 " fill="none" style="stroke:#000000;stroke-width:1.5;"/><line style="stroke:#000000;stroke-width:1.5;" x1="1629" x2="1678" y1="353.6369" y2="353.6369"/><text fill="#000000" font-family="sans-serif" font-size="14" font-weight="bold" lengthAdjust="spacing" textLength="36" x="1633" y="346.3351">infra</text></g><!--cluster `in`--><g id="cluster_`in`"><path d="M1655.5,398.79 L1684.5,398.79 A3.75,3.75 0 0 1 1687,401.29 L1694,421.0869 L3180.5,421.0869 A2.5,2.5 0 0 1 3183,423.5869 L3183,857.7 A2.5,2.5 0 0 1 3180.5,860.2 L1655.5,860.2 A2.5,2.5 0 0 1 1653,857.7 L1653,401.29 A2.5,2.5 0 0 1 1655.5,398.79 " fill="none" style="stroke:#000000;stroke-width:1.5;"/><line style="stroke:#000000;stroke-width:1.5;" x1="1653" x2="1694" y1="421.0869" y2="421.0869"/><text fill="#000000" font-family="sans-serif" font-size="14" font-weight="bold" lengthAdjust="spacing" textLength="28" x="1657" y="413.7851">`in`</text></g><!--cluster web--><g id="cluster_web"><path d="M1679.5,441.79 L1714.5,441.79 A3.75,3.75 0 0 1 1717,444.29 L1724,464.0869 L3156.5,464.0869 A2.5,2.5 0 0 1 3159,466.5869 L3159,833.7 A2.5,2.5 0 0 1 3156.5,836.2 L1679.5,836.2 A2.5,2.5 0 0 1 1677,833.7 L1677,444.29 A2.5,2.5 0 0 1 1679.5,441.79 " fill="none" style="stroke:#000000;stroke-width:1.5;"/><line style="stroke:#000000;stroke-width:1.5;" x1="1677" x2="1724" y1="464.0869" y2="464.0869"/><text fill="#000000" font-family="sans-serif" font-size="14" font-weight="bold" lengthAdjust="spacing" textLength="34" x="1681" y="456.7851">web</text></g><!--cluster out--><g id="cluster_out"><path d="M3209.5,374.34 L3236.5,374.34 A3.75,3.75 0 0 1 3239,376.84 L3246,396.6369 L4943.5,396.6369 A2.5,2.5 0 0 1 4946,399.1369 L4946,825.11 A2.5,2.5 0 0 1 4943.5,827.61 L3209.5,827.61 A2.5,2.5 0 0 1 3207,825.11 L3207,376.84 A2.5,2.5 0 0 1 3209.5,374.34 " fill="none" style="stroke:#000000;stroke-width:1.5;"/><line style="stroke:#000000;stroke-width:1.5;" x1="3207" x2="3246" y1="396.6369" y2="396.6369"/><text fill="#000000" font-family="sans-serif" font-size="14" font-weight="bold" lengthAdjust="spacing" textLength="26" x="3211" y="389.3351">out</text></g><!--cluster repo--><g id="cluster_repo"><path d="M3233.5,458.08 L3271.5,458.08 A3.75,3.75 0 0 1 3274,460.58 L3281,480.3769 L4138.5,480.3769 A2.5,2.5 0 0 1 4141,482.8769 L4141,587.18 A2.5,2.5 0 0 1 4138.5,589.68 L3233.5,589.68 A2.5,2.5 0 0 1 3231,587.18 L3231,460.58 A2.5,2.5 0 0 1 3233.5,458.08 " fill="none" style="stroke:#000000;stroke-width:1.5;"/><line style="stroke:#000000;stroke-width:1.5;" x1="3231" x2="3281" y1="480.3769" y2="480.3769"/><text fill="#000000" font-family="sans-serif" font-size="14" font-weight="bold" lengthAdjust="spacing" textLength="37" x="3235" y="473.0751">repo</text></g><!--cluster adapter--><g id="cluster_adapter"><path d="M3484.5,672.01 L3546.5,672.01 A3.75,3.75 0 0 1 3549,674.51 L3556,694.3069 L3911.5,694.3069 A2.5,2.5 0 0 1 3914,696.8069 L3914,801.11 A2.5,2.5 0 0 1 3911.5,803.61 L3484.5,803.61 A2.5,2.5 0 0 1 3482,801.11 L3482,674.51 A2.5,2.5 0 0 1 3484.5,672.01 " fill="none" style="stroke:#000000;stroke-width:1.5;"/><line style="stroke:#000000;stroke-width:1.5;" x1="3482" x2="3556" y1="694.3069" y2="694.3069"/><text fill="#000000" font-family="sans-serif" font-size="14" font-weight="bold" lengthAdjust="spacing" textLength="61" x="3486" y="687.0051">adapter</text></g><!--cluster entity--><g id="cluster_entity"><path d="M4167.5,417.34 L4213.5,417.34 A3.75,3.75 0 0 1 4216,419.84 L4223,439.6369 L4919.5,439.6369 A2.5,2.5 0 0 1 4922,442.1369 L4922,627.92 A2.5,2.5 0 0 1 4919.5,630.42 L4167.5,630.42 A2.5,2.5 0 0 1 4165,627.92 L4165,419.84 A2.5,2.5 0 0 1 4167.5,417.34 " fill="none" style="stroke:#000000;stroke-width:1.5;"/><line style="stroke:#000000;stroke-width:1.5;" x1="4165" x2="4223" y1="439.6369" y2="439.6369"/><text fill="#000000" font-family="sans-serif" font-size="14" font-weight="bold" lengthAdjust="spacing" textLength="45" x="4169" y="432.3351">entity</text></g><!--cluster exception--><g id="cluster_exception"><path d="M4972.5,474.38 L5051.5,474.38 A3.75,3.75 0 0 1 5054,476.88 L5061,496.6769 L5129.5,496.6769 A2.5,2.5 0 0 1 5132,499.1769 L5132,570.88 A2.5,2.5 0 0 1 5129.5,573.38 L4972.5,573.38 A2.5,2.5 0 0 1 4970,570.88 L4970,476.88 A2.5,2.5 0 0 1 4972.5,474.38 " fill="none" style="stroke:#000000;stroke-width:1.5;"/><line style="stroke:#000000;stroke-width:1.5;" x1="4970" x2="5061" y1="496.6769" y2="496.6769"/><text fill="#000000" font-family="sans-serif" font-size="14" font-weight="bold" lengthAdjust="spacing" textLength="78" x="4974" y="489.3751">exception</text></g><!--cluster common--><g id="cluster_common"><path d="M5158.5,431.38 L5226.5,431.38 A3.75,3.75 0 0 1 5229,433.88 L5236,453.6769 L6766.5,453.6769 A2.5,2.5 0 0 1 6769,456.1769 L6769,808.81 A2.5,2.5 0 0 1 6766.5,811.31 L5158.5,811.31 A2.5,2.5 0 0 1 5156,808.81 L5156,433.88 A2.5,2.5 0 0 1 5158.5,431.38 " fill="none" style="stroke:#000000;stroke-width:1.5;"/><line style="stroke:#000000;stroke-width:1.5;" x1="5156" x2="5236" y1="453.6769" y2="453.6769"/><text fill="#000000" font-family="sans-serif" font-size="14" font-weight="bold" lengthAdjust="spacing" textLength="67" x="5160" y="446.3751">common</text></g><!--cluster config--><g id="cluster_config"><path d="M5182.5,474.38 L5232.5,474.38 A3.75,3.75 0 0 1 5235,476.88 L5242,496.6769 L5652.5,496.6769 A2.5,2.5 0 0 1 5655,499.1769 L5655,784.81 A2.5,2.5 0 0 1 5652.5,787.31 L5182.5,787.31 A2.5,2.5 0 0 1 5180,784.81 L5180,476.88 A2.5,2.5 0 0 1 5182.5,474.38 " fill="none" style="stroke:#000000;stroke-width:1.5;"/><line style="stroke:#000000;stroke-width:1.5;" x1="5180" x2="5242" y1="496.6769" y2="496.6769"/><text fill="#000000" font-family="sans-serif" font-size="14" font-weight="bold" lengthAdjust="spacing" textLength="49" x="5184" y="489.3751">config</text></g><!--cluster jwt--><g id="cluster_jwt"><path d="M5681.5,474.38 L5706.5,474.38 A3.75,3.75 0 0 1 5709,476.88 L5716,496.6769 L6108.5,496.6769 A2.5,2.5 0 0 1 6111,499.1769 L6111,570.88 A2.5,2.5 0 0 1 6108.5,573.38 L5681.5,573.38 A2.5,2.5 0 0 1 5679,570.88 L5679,476.88 A2.5,2.5 0 0 1 5681.5,474.38 " fill="none" style="stroke:#000000;stroke-width:1.5;"/><line style="stroke:#000000;stroke-width:1.5;" x1="5679" x2="5716" y1="496.6769" y2="496.6769"/><text fill="#000000" font-family="sans-serif" font-size="14" font-weight="bold" lengthAdjust="spacing" textLength="24" x="5683" y="489.3751">jwt</text></g><!--cluster dto--><g id="cluster_dto"><path d="M6137.5,474.38 L6164.5,474.38 A3.75,3.75 0 0 1 6167,476.88 L6174,496.6769 L6742.5,496.6769 A2.5,2.5 0 0 1 6745,499.1769 L6745,784.81 A2.5,2.5 0 0 1 6742.5,787.31 L6137.5,787.31 A2.5,2.5 0 0 1 6135,784.81 L6135,476.88 A2.5,2.5 0 0 1 6137.5,474.38 " fill="none" style="stroke:#000000;stroke-width:1.5;"/><line style="stroke:#000000;stroke-width:1.5;" x1="6135" x2="6174" y1="496.6769" y2="496.6769"/><text fill="#000000" font-family="sans-serif" font-size="14" font-weight="bold" lengthAdjust="spacing" textLength="26" x="6139" y="489.3751">dto</text></g><!--class IAuthService--><g id="elem_IAuthService"><rect codeLine="7" fill="#F1F1F1" height="96.8906" id="IAuthService" rx="2.5" ry="2.5" style="stroke:#181818;stroke-width:0.5;" width="382" x="532" y="170"/><ellipse cx="676.25" cy="186" fill="#B4A7E5" rx="11" ry="11" style="stroke:#181818;stroke-width:1.0;"/><path d="M672.1719,181.7656 L672.1719,179.6094 L679.5625,179.6094 L679.5625,181.7656 L677.0938,181.7656 L677.0938,189.8438 L679.5625,189.8438 L679.5625,192 L672.1719,192 L672.1719,189.8438 L674.6406,189.8438 L674.6406,181.7656 L672.1719,181.7656 Z " fill="#000000"/><text fill="#000000" font-family="sans-serif" font-size="14" font-style="italic" lengthAdjust="spacing" textLength="85" x="696.75" y="190.8467">IAuthService</text><line style="stroke:#181818;stroke-width:0.5;" x1="533" x2="913" y1="202" y2="202"/><line style="stroke:#181818;stroke-width:0.5;" x1="533" x2="913" y1="210" y2="210"/><text fill="#000000" font-family="sans-serif" font-size="14" lengthAdjust="spacing" textLength="360" x="538" y="226.9951">+signup(member: Member, account: Account): void</text><text fill="#000000" font-family="sans-serif" font-size="14" lengthAdjust="spacing" textLength="337" x="538" y="243.292">+login(userId: String, password: String): Member</text><text fill="#000000" font-family="sans-serif" font-size="14" lengthAdjust="spacing" textLength="370" x="538" y="259.5889">+validateMemberAccess(member: Member): boolean</text></g><!--class IAuthProvider--><g id="elem_IAuthProvider"><rect codeLine="15" fill="#F1F1F1" height="80.5938" id="IAuthProvider" rx="2.5" ry="2.5" style="stroke:#181818;stroke-width:0.5;" width="400" x="94" y="493.08"/><ellipse cx="244.25" cy="509.08" fill="#B4A7E5" rx="11" ry="11" style="stroke:#181818;stroke-width:1.0;"/><path d="M240.1719,504.8456 L240.1719,502.6894 L247.5625,502.6894 L247.5625,504.8456 L245.0938,504.8456 L245.0938,512.9238 L247.5625,512.9238 L247.5625,515.08 L240.1719,515.08 L240.1719,512.9238 L242.6406,512.9238 L242.6406,504.8456 L240.1719,504.8456 Z " fill="#000000"/><text fill="#000000" font-family="sans-serif" font-size="14" font-style="italic" lengthAdjust="spacing" textLength="91" x="264.75" y="513.9267">IAuthProvider</text><line style="stroke:#181818;stroke-width:0.5;" x1="95" x2="493" y1="525.08" y2="525.08"/><line style="stroke:#181818;stroke-width:0.5;" x1="95" x2="493" y1="533.08" y2="533.08"/><text fill="#000000" font-family="sans-serif" font-size="14" lengthAdjust="spacing" textLength="388" x="100" y="550.0751">+validateAuth(userId: String, password: String): Member</text><text fill="#000000" font-family="sans-serif" font-size="14" lengthAdjust="spacing" textLength="360" x="100" y="566.372">+signup(member: Member, account: Account): void</text></g><!--class AuthServiceImpl--><g id="elem_AuthServiceImpl"><rect codeLine="22" fill="#F1F1F1" height="96.8906" id="AuthServiceImpl" rx="2.5" ry="2.5" style="stroke:#181818;stroke-width:0.5;" width="382" x="94" y="170"/><ellipse cx="225.75" cy="186" fill="#ADD1B2" rx="11" ry="11" style="stroke:#181818;stroke-width:1.0;"/><path d="M228.7188,191.6406 Q228.1406,191.9375 227.5,192.0781 Q226.8594,192.2344 226.1563,192.2344 Q223.6563,192.2344 222.3281,190.5938 Q221.0156,188.9375 221.0156,185.8125 Q221.0156,182.6875 222.3281,181.0313 Q223.6563,179.375 226.1563,179.375 Q226.8594,179.375 227.5,179.5313 Q228.1563,179.6875 228.7188,179.9844 L228.7188,182.7031 Q228.0938,182.125 227.5,181.8594 Q226.9063,181.5781 226.2813,181.5781 Q224.9375,181.5781 224.25,182.6563 Q223.5625,183.7188 223.5625,185.8125 Q223.5625,187.9063 224.25,188.9844 Q224.9375,190.0469 226.2813,190.0469 Q226.9063,190.0469 227.5,189.7813 Q228.0938,189.5 228.7188,188.9219 L228.7188,191.6406 Z " fill="#000000"/><text fill="#000000" font-family="sans-serif" font-size="14" lengthAdjust="spacing" textLength="110" x="246.25" y="190.8467">AuthServiceImpl</text><line style="stroke:#181818;stroke-width:0.5;" x1="95" x2="475" y1="202" y2="202"/><line style="stroke:#181818;stroke-width:0.5;" x1="95" x2="475" y1="210" y2="210"/><text fill="#000000" font-family="sans-serif" font-size="14" lengthAdjust="spacing" textLength="337" x="100" y="226.9951">+login(userId: String, password: String): Member</text><text fill="#000000" font-family="sans-serif" font-size="14" lengthAdjust="spacing" textLength="360" x="100" y="243.292">+signup(member: Member, account: Account): void</text><text fill="#000000" font-family="sans-serif" font-size="14" lengthAdjust="spacing" textLength="370" x="100" y="259.5889">+validateMemberAccess(member: Member): boolean</text></g><!--class Account--><g id="elem_Account"><rect codeLine="31" fill="#F1F1F1" height="96.8906" id="Account" rx="2.5" ry="2.5" style="stroke:#181818;stroke-width:0.5;" width="147" x="1239.5" y="170"/><ellipse cx="1280.6" cy="186" fill="#ADD1B2" rx="11" ry="11" style="stroke:#181818;stroke-width:1.0;"/><path d="M1283.5688,191.6406 Q1282.9906,191.9375 1282.35,192.0781 Q1281.7094,192.2344 1281.0063,192.2344 Q1278.5063,192.2344 1277.1781,190.5938 Q1275.8656,188.9375 1275.8656,185.8125 Q1275.8656,182.6875 1277.1781,181.0313 Q1278.5063,179.375 1281.0063,179.375 Q1281.7094,179.375 1282.35,179.5313 Q1283.0063,179.6875 1283.5688,179.9844 L1283.5688,182.7031 Q1282.9438,182.125 1282.35,181.8594 Q1281.7563,181.5781 1281.1313,181.5781 Q1279.7875,181.5781 1279.1,182.6563 Q1278.4125,183.7188 1278.4125,185.8125 Q1278.4125,187.9063 1279.1,188.9844 Q1279.7875,190.0469 1281.1313,190.0469 Q1281.7563,190.0469 1282.35,189.7813 Q1282.9438,189.5 1283.5688,188.9219 L1283.5688,191.6406 Z " fill="#000000"/><text fill="#000000" font-family="sans-serif" font-size="14" lengthAdjust="spacing" textLength="57" x="1300.4" y="190.8467">Account</text><line style="stroke:#181818;stroke-width:0.5;" x1="1240.5" x2="1385.5" y1="202" y2="202"/><text fill="#000000" font-family="sans-serif" font-size="14" lengthAdjust="spacing" textLength="97" x="1245.5" y="218.9951">-userId: String</text><text fill="#000000" font-family="sans-serif" font-size="14" lengthAdjust="spacing" textLength="121" x="1245.5" y="235.292">-password: String</text><text fill="#000000" font-family="sans-serif" font-size="14" lengthAdjust="spacing" textLength="135" x="1245.5" y="251.5889">-roles: Set&lt;String&gt;</text><line style="stroke:#181818;stroke-width:0.5;" x1="1240.5" x2="1385.5" y1="258.8906" y2="258.8906"/></g><!--class Member--><g id="elem_Member"><rect codeLine="37" fill="#F1F1F1" height="145.7813" id="Member" rx="2.5" ry="2.5" style="stroke:#181818;stroke-width:0.5;" width="210" x="994" y="145.56"/><ellipse cx="1066.25" cy="161.56" fill="#ADD1B2" rx="11" ry="11" style="stroke:#181818;stroke-width:1.0;"/><path d="M1069.2188,167.2006 Q1068.6406,167.4975 1068,167.6381 Q1067.3594,167.7944 1066.6563,167.7944 Q1064.1563,167.7944 1062.8281,166.1538 Q1061.5156,164.4975 1061.5156,161.3725 Q1061.5156,158.2475 1062.8281,156.5913 Q1064.1563,154.935 1066.6563,154.935 Q1067.3594,154.935 1068,155.0913 Q1068.6563,155.2475 1069.2188,155.5444 L1069.2188,158.2631 Q1068.5938,157.685 1068,157.4194 Q1067.4063,157.1381 1066.7813,157.1381 Q1065.4375,157.1381 1064.75,158.2163 Q1064.0625,159.2788 1064.0625,161.3725 Q1064.0625,163.4663 1064.75,164.5444 Q1065.4375,165.6069 1066.7813,165.6069 Q1067.4063,165.6069 1068,165.3413 Q1068.5938,165.06 1069.2188,164.4819 L1069.2188,167.2006 Z " fill="#000000"/><text fill="#000000" font-family="sans-serif" font-size="14" lengthAdjust="spacing" textLength="57" x="1086.75" y="166.4067">Member</text><line style="stroke:#181818;stroke-width:0.5;" x1="995" x2="1203" y1="177.56" y2="177.56"/><text fill="#000000" font-family="sans-serif" font-size="14" lengthAdjust="spacing" textLength="97" x="1000" y="194.5551">-userId: String</text><text fill="#000000" font-family="sans-serif" font-size="14" lengthAdjust="spacing" textLength="125" x="1000" y="210.852">-userName: String</text><text fill="#000000" font-family="sans-serif" font-size="14" lengthAdjust="spacing" textLength="128" x="1000" y="227.1489">-bankName: String</text><text fill="#000000" font-family="sans-serif" font-size="14" lengthAdjust="spacing" textLength="145" x="1000" y="243.4457">-bankAccount: String</text><text fill="#000000" font-family="sans-serif" font-size="14" lengthAdjust="spacing" textLength="108" x="1000" y="259.7426">-characterId: int</text><line style="stroke:#181818;stroke-width:0.5;" x1="995" x2="1203" y1="267.0444" y2="267.0444"/><text fill="#000000" font-family="sans-serif" font-size="14" lengthAdjust="spacing" textLength="198" x="1000" y="284.0395">+canbeAccessed(): boolean</text></g><!--class BizException--><g id="elem_BizException"><rect codeLine="48" fill="#F1F1F1" height="48" id="BizException" rx="2.5" ry="2.5" style="stroke:#181818;stroke-width:0.5;" width="121" x="1443.5" y="194.45"/><ellipse cx="1458.5" cy="210.45" fill="#ADD1B2" rx="11" ry="11" style="stroke:#181818;stroke-width:1.0;"/><path d="M1461.4688,216.0906 Q1460.8906,216.3875 1460.25,216.5281 Q1459.6094,216.6844 1458.9063,216.6844 Q1456.4063,216.6844 1455.0781,215.0438 Q1453.7656,213.3875 1453.7656,210.2625 Q1453.7656,207.1375 1455.0781,205.4813 Q1456.4063,203.825 1458.9063,203.825 Q1459.6094,203.825 1460.25,203.9813 Q1460.9063,204.1375 1461.4688,204.4344 L1461.4688,207.1531 Q1460.8438,206.575 1460.25,206.3094 Q1459.6563,206.0281 1459.0313,206.0281 Q1457.6875,206.0281 1457,207.1063 Q1456.3125,208.1688 1456.3125,210.2625 Q1456.3125,212.3563 1457,213.4344 Q1457.6875,214.4969 1459.0313,214.4969 Q1459.6563,214.4969 1460.25,214.2313 Q1460.8438,213.95 1461.4688,213.3719 L1461.4688,216.0906 Z " fill="#000000"/><text fill="#000000" font-family="sans-serif" font-size="14" lengthAdjust="spacing" textLength="89" x="1472.5" y="215.2967">BizException</text><line style="stroke:#181818;stroke-width:0.5;" x1="1444.5" x2="1563.5" y1="226.45" y2="226.45"/><line style="stroke:#181818;stroke-width:0.5;" x1="1444.5" x2="1563.5" y1="234.45" y2="234.45"/></g><!--class AuthController--><g id="elem_AuthController"><rect codeLine="56" fill="#F1F1F1" height="113.1875" id="AuthController" rx="2.5" ry="2.5" style="stroke:#181818;stroke-width:0.5;" width="750" x="1693" y="476.79"/><ellipse cx="2014.25" cy="492.79" fill="#ADD1B2" rx="11" ry="11" style="stroke:#181818;stroke-width:1.0;"/><path d="M2017.2188,498.4306 Q2016.6406,498.7275 2016,498.8681 Q2015.3594,499.0244 2014.6563,499.0244 Q2012.1563,499.0244 2010.8281,497.3838 Q2009.5156,495.7275 2009.5156,492.6025 Q2009.5156,489.4775 2010.8281,487.8213 Q2012.1563,486.165 2014.6563,486.165 Q2015.3594,486.165 2016,486.3213 Q2016.6563,486.4775 2017.2188,486.7744 L2017.2188,489.4931 Q2016.5938,488.915 2016,488.6494 Q2015.4063,488.3681 2014.7813,488.3681 Q2013.4375,488.3681 2012.75,489.4463 Q2012.0625,490.5088 2012.0625,492.6025 Q2012.0625,494.6963 2012.75,495.7744 Q2013.4375,496.8369 2014.7813,496.8369 Q2015.4063,496.8369 2016,496.5713 Q2016.5938,496.29 2017.2188,495.7119 L2017.2188,498.4306 Z " fill="#000000"/><text fill="#000000" font-family="sans-serif" font-size="14" lengthAdjust="spacing" textLength="99" x="2034.75" y="497.6367">AuthController</text><line style="stroke:#181818;stroke-width:0.5;" x1="1694" x2="2442" y1="508.79" y2="508.79"/><line style="stroke:#181818;stroke-width:0.5;" x1="1694" x2="2442" y1="516.79" y2="516.79"/><text fill="#000000" font-family="sans-serif" font-size="14" lengthAdjust="spacing" textLength="661" x="1699" y="533.7851">+signup(signupRequestDTO: SignupRequestDTO): ResponseEntity&lt;ResponseDTO&lt;String&gt;&gt;</text><text fill="#000000" font-family="sans-serif" font-size="14" lengthAdjust="spacing" textLength="676" x="1699" y="550.082">+login(loginRequestDTO: LoginRequestDTO): ResponseEntity&lt;ResponseDTO&lt;JwtTokenDTO&gt;&gt;</text><text fill="#000000" font-family="sans-serif" font-size="14" lengthAdjust="spacing" textLength="660" x="1699" y="566.3789">+validate(jwtTokenVarifyDTO: JwtTokenVarifyDTO): ResponseEntity&lt;ResponseDTO&lt;Integer&gt;&gt;</text><text fill="#000000" font-family="sans-serif" font-size="14" lengthAdjust="spacing" textLength="738" x="1699" y="582.6757">+refresh(jwtTokenRefreshDTO: JwtTokenRefreshDTO): ResponseEntity&lt;ResponseDTO&lt;JwtTokenDTO&gt;&gt;</text></g><!--class AuthControllerHelper--><g id="elem_AuthControllerHelper"><rect codeLine="63" fill="#F1F1F1" height="145.7813" id="AuthControllerHelper" rx="2.5" ry="2.5" style="stroke:#181818;stroke-width:0.5;" width="558" x="1789" y="674.42"/><ellipse cx="1991.75" cy="690.42" fill="#ADD1B2" rx="11" ry="11" style="stroke:#181818;stroke-width:1.0;"/><path d="M1994.7188,696.0606 Q1994.1406,696.3575 1993.5,696.4981 Q1992.8594,696.6544 1992.1563,696.6544 Q1989.6563,696.6544 1988.3281,695.0138 Q1987.0156,693.3575 1987.0156,690.2325 Q1987.0156,687.1075 1988.3281,685.4513 Q1989.6563,683.795 1992.1563,683.795 Q1992.8594,683.795 1993.5,683.9513 Q1994.1563,684.1075 1994.7188,684.4044 L1994.7188,687.1231 Q1994.0938,686.545 1993.5,686.2794 Q1992.9063,685.9981 1992.2813,685.9981 Q1990.9375,685.9981 1990.25,687.0763 Q1989.5625,688.1388 1989.5625,690.2325 Q1989.5625,692.3263 1990.25,693.4044 Q1990.9375,694.4669 1992.2813,694.4669 Q1992.9063,694.4669 1993.5,694.2013 Q1994.0938,693.92 1994.7188,693.3419 L1994.7188,696.0606 Z " fill="#000000"/><text fill="#000000" font-family="sans-serif" font-size="14" lengthAdjust="spacing" textLength="144" x="2012.25" y="695.2667">AuthControllerHelper</text><line style="stroke:#181818;stroke-width:0.5;" x1="1790" x2="2346" y1="706.42" y2="706.42"/><line style="stroke:#181818;stroke-width:0.5;" x1="1790" x2="2346" y1="714.42" y2="714.42"/><text fill="#000000" font-family="sans-serif" font-size="14" lengthAdjust="spacing" textLength="337" x="1795" y="731.4151">+createToken(member: Member): JwtTokenDTO</text><text fill="#000000" font-family="sans-serif" font-size="14" lengthAdjust="spacing" textLength="273" x="1795" y="747.712">+checkAccessToken(token: String): int</text><text fill="#000000" font-family="sans-serif" font-size="14" lengthAdjust="spacing" textLength="317" x="1795" y="764.0089">+isValidRefreshToken(token: String): boolean</text><text fill="#000000" font-family="sans-serif" font-size="14" lengthAdjust="spacing" textLength="546" x="1795" y="780.3057">+getMemberFromRequest(signupRequestDTO: SignupRequestDTO): Member</text><text fill="#000000" font-family="sans-serif" font-size="14" lengthAdjust="spacing" textLength="546" x="1795" y="796.6026">+getAccountFromRequest(signupRequestDTO: SignupRequestDTO): Account</text><text fill="#000000" font-family="sans-serif" font-size="14" lengthAdjust="spacing" textLength="336" x="1795" y="812.8995">+getMemberFromToken(token: String): Member</text></g><!--class MemberController--><g id="elem_MemberController"><rect codeLine="72" fill="#F1F1F1" height="80.5938" id="MemberController" rx="2.5" ry="2.5" style="stroke:#181818;stroke-width:0.5;" width="665" x="2478.5" y="493.08"/><ellipse cx="2744.75" cy="509.08" fill="#ADD1B2" rx="11" ry="11" style="stroke:#181818;stroke-width:1.0;"/><path d="M2747.7188,514.7206 Q2747.1406,515.0175 2746.5,515.1581 Q2745.8594,515.3144 2745.1563,515.3144 Q2742.6563,515.3144 2741.3281,513.6738 Q2740.0156,512.0175 2740.0156,508.8925 Q2740.0156,505.7675 2741.3281,504.1113 Q2742.6563,502.455 2745.1563,502.455 Q2745.8594,502.455 2746.5,502.6113 Q2747.1563,502.7675 2747.7188,503.0644 L2747.7188,505.7831 Q2747.0938,505.205 2746.5,504.9394 Q2745.9063,504.6581 2745.2813,504.6581 Q2743.9375,504.6581 2743.25,505.7363 Q2742.5625,506.7988 2742.5625,508.8925 Q2742.5625,510.9863 2743.25,512.0644 Q2743.9375,513.1269 2745.2813,513.1269 Q2745.9063,513.1269 2746.5,512.8613 Q2747.0938,512.58 2747.7188,512.0019 L2747.7188,514.7206 Z " fill="#000000"/><text fill="#000000" font-family="sans-serif" font-size="14" lengthAdjust="spacing" textLength="124" x="2765.25" y="513.9267">MemberController</text><line style="stroke:#181818;stroke-width:0.5;" x1="2479.5" x2="3142.5" y1="525.08" y2="525.08"/><line style="stroke:#181818;stroke-width:0.5;" x1="2479.5" x2="3142.5" y1="533.08" y2="533.08"/><text fill="#000000" font-family="sans-serif" font-size="14" lengthAdjust="spacing" textLength="600" x="2484.5" y="550.0751">+getMemberInfo(userId: String): ResponseEntity&lt;ResponseDTO&lt;MemberInfoDTO&gt;&gt;</text><text fill="#000000" font-family="sans-serif" font-size="14" lengthAdjust="spacing" textLength="653" x="2484.5" y="566.372">+getUserInfoList(userIds: String): ResponseEntity&lt;ResponseDTO&lt;List&lt;MemberInfoDTO&gt;&gt;&gt;</text></g><!--class MemberControllerHelper--><g id="elem_MemberControllerHelper"><rect codeLine="77" fill="#F1F1F1" height="80.5938" id="MemberControllerHelper" rx="2.5" ry="2.5" style="stroke:#181818;stroke-width:0.5;" width="493" x="2607.5" y="707.01"/><ellipse cx="2765.25" cy="723.01" fill="#ADD1B2" rx="11" ry="11" style="stroke:#181818;stroke-width:1.0;"/><path d="M2768.2188,728.6506 Q2767.6406,728.9475 2767,729.0881 Q2766.3594,729.2444 2765.6563,729.2444 Q2763.1563,729.2444 2761.8281,727.6038 Q2760.5156,725.9475 2760.5156,722.8225 Q2760.5156,719.6975 2761.8281,718.0413 Q2763.1563,716.385 2765.6563,716.385 Q2766.3594,716.385 2767,716.5413 Q2767.6563,716.6975 2768.2188,716.9944 L2768.2188,719.7131 Q2767.5938,719.135 2767,718.8694 Q2766.4063,718.5881 2765.7813,718.5881 Q2764.4375,718.5881 2763.75,719.6663 Q2763.0625,720.7288 2763.0625,722.8225 Q2763.0625,724.9163 2763.75,725.9944 Q2764.4375,727.0569 2765.7813,727.0569 Q2766.4063,727.0569 2767,726.7913 Q2767.5938,726.51 2768.2188,725.9319 L2768.2188,728.6506 Z " fill="#000000"/><text fill="#000000" font-family="sans-serif" font-size="14" lengthAdjust="spacing" textLength="169" x="2785.75" y="727.8567">MemberControllerHelper</text><line style="stroke:#181818;stroke-width:0.5;" x1="2608.5" x2="3099.5" y1="739.01" y2="739.01"/><line style="stroke:#181818;stroke-width:0.5;" x1="2608.5" x2="3099.5" y1="747.01" y2="747.01"/><text fill="#000000" font-family="sans-serif" font-size="14" lengthAdjust="spacing" textLength="341" x="2613.5" y="764.0051">+getMemberInfo(userId: String): MemberInfoDTO</text><text fill="#000000" font-family="sans-serif" font-size="14" lengthAdjust="spacing" textLength="481" x="2613.5" y="780.302">+getMemberInfoList(userIdList: List&lt;String&gt;): List&lt;MemberInfoDTO&gt;</text></g><!--class IAccountRepository--><g id="elem_IAccountRepository"><rect codeLine="86" fill="#F1F1F1" height="80.5938" id="IAccountRepository" rx="2.5" ry="2.5" style="stroke:#181818;stroke-width:0.5;" width="397" x="3727.5" y="493.08"/><ellipse cx="3854.75" cy="509.08" fill="#B4A7E5" rx="11" ry="11" style="stroke:#181818;stroke-width:1.0;"/><path d="M3850.6719,504.8456 L3850.6719,502.6894 L3858.0625,502.6894 L3858.0625,504.8456 L3855.5938,504.8456 L3855.5938,512.9238 L3858.0625,512.9238 L3858.0625,515.08 L3850.6719,515.08 L3850.6719,512.9238 L3853.1406,512.9238 L3853.1406,504.8456 L3850.6719,504.8456 Z " fill="#000000"/><text fill="#000000" font-family="sans-serif" font-size="14" font-style="italic" lengthAdjust="spacing" textLength="134" x="3875.25" y="513.9267">IAccountRepository</text><line style="stroke:#181818;stroke-width:0.5;" x1="3728.5" x2="4123.5" y1="525.08" y2="525.08"/><line style="stroke:#181818;stroke-width:0.5;" x1="3728.5" x2="4123.5" y1="533.08" y2="533.08"/><text fill="#000000" font-family="sans-serif" font-size="14" lengthAdjust="spacing" textLength="385" x="3733.5" y="550.0751">+findByUserId(userId: String): Optional&lt;AccountEntity&gt;</text><text fill="#000000" font-family="sans-serif" font-size="14" lengthAdjust="spacing" textLength="281" x="3733.5" y="566.372">+existsByUserId(userId: String): Boolean</text></g><!--class IMemberRepository--><g id="elem_IMemberRepository"><rect codeLine="91" fill="#F1F1F1" height="80.5938" id="IMemberRepository" rx="2.5" ry="2.5" style="stroke:#181818;stroke-width:0.5;" width="445" x="3247.5" y="493.08"/><ellipse cx="3398.75" cy="509.08" fill="#B4A7E5" rx="11" ry="11" style="stroke:#181818;stroke-width:1.0;"/><path d="M3394.6719,504.8456 L3394.6719,502.6894 L3402.0625,502.6894 L3402.0625,504.8456 L3399.5938,504.8456 L3399.5938,512.9238 L3402.0625,512.9238 L3402.0625,515.08 L3394.6719,515.08 L3394.6719,512.9238 L3397.1406,512.9238 L3397.1406,504.8456 L3394.6719,504.8456 Z " fill="#000000"/><text fill="#000000" font-family="sans-serif" font-size="14" font-style="italic" lengthAdjust="spacing" textLength="134" x="3419.25" y="513.9267">IMemberRepository</text><line style="stroke:#181818;stroke-width:0.5;" x1="3248.5" x2="3691.5" y1="525.08" y2="525.08"/><line style="stroke:#181818;stroke-width:0.5;" x1="3248.5" x2="3691.5" y1="533.08" y2="533.08"/><text fill="#000000" font-family="sans-serif" font-size="14" lengthAdjust="spacing" textLength="385" x="3253.5" y="550.0751">+findByUserId(userId: String): Optional&lt;MemberEntity&gt;</text><text fill="#000000" font-family="sans-serif" font-size="14" lengthAdjust="spacing" textLength="433" x="3253.5" y="566.372">+findByUserIdIn(userIdList: List&lt;String&gt;): List&lt;MemberEntity&gt;</text></g><!--class AuthProviderImpl--><g id="elem_AuthProviderImpl"><rect codeLine="98" fill="#F1F1F1" height="80.5938" id="AuthProviderImpl" rx="2.5" ry="2.5" style="stroke:#181818;stroke-width:0.5;" width="400" x="3498" y="707.01"/><ellipse cx="3635.75" cy="723.01" fill="#ADD1B2" rx="11" ry="11" style="stroke:#181818;stroke-width:1.0;"/><path d="M3638.7188,728.6506 Q3638.1406,728.9475 3637.5,729.0881 Q3636.8594,729.2444 3636.1563,729.2444 Q3633.6563,729.2444 3632.3281,727.6038 Q3631.0156,725.9475 3631.0156,722.8225 Q3631.0156,719.6975 3632.3281,718.0413 Q3633.6563,716.385 3636.1563,716.385 Q3636.8594,716.385 3637.5,716.5413 Q3638.1563,716.6975 3638.7188,716.9944 L3638.7188,719.7131 Q3638.0938,719.135 3637.5,718.8694 Q3636.9063,718.5881 3636.2813,718.5881 Q3634.9375,718.5881 3634.25,719.6663 Q3633.5625,720.7288 3633.5625,722.8225 Q3633.5625,724.9163 3634.25,725.9944 Q3634.9375,727.0569 3636.2813,727.0569 Q3636.9063,727.0569 3637.5,726.7913 Q3638.0938,726.51 3638.7188,725.9319 L3638.7188,728.6506 Z " fill="#000000"/><text fill="#000000" font-family="sans-serif" font-size="14" lengthAdjust="spacing" textLength="116" x="3656.25" y="727.8567">AuthProviderImpl</text><line style="stroke:#181818;stroke-width:0.5;" x1="3499" x2="3897" y1="739.01" y2="739.01"/><line style="stroke:#181818;stroke-width:0.5;" x1="3499" x2="3897" y1="747.01" y2="747.01"/><text fill="#000000" font-family="sans-serif" font-size="14" lengthAdjust="spacing" textLength="388" x="3504" y="764.0051">+validateAuth(userId: String, password: String): Member</text><text fill="#000000" font-family="sans-serif" font-size="14" lengthAdjust="spacing" textLength="360" x="3504" y="780.302">+signup(member: Member, account: Account): void</text></g><!--class AccountEntity--><g id="elem_AccountEntity"><rect codeLine="105" fill="#F1F1F1" height="129.4844" id="AccountEntity" rx="2.5" ry="2.5" style="stroke:#181818;stroke-width:0.5;" width="344" x="4562" y="468.64"/><ellipse cx="4682.25" cy="484.64" fill="#ADD1B2" rx="11" ry="11" style="stroke:#181818;stroke-width:1.0;"/><path d="M4685.2188,490.2806 Q4684.6406,490.5775 4684,490.7181 Q4683.3594,490.8744 4682.6563,490.8744 Q4680.1563,490.8744 4678.8281,489.2338 Q4677.5156,487.5775 4677.5156,484.4525 Q4677.5156,481.3275 4678.8281,479.6713 Q4680.1563,478.015 4682.6563,478.015 Q4683.3594,478.015 4684,478.1713 Q4684.6563,478.3275 4685.2188,478.6244 L4685.2188,481.3431 Q4684.5938,480.765 4684,480.4994 Q4683.4063,480.2181 4682.7813,480.2181 Q4681.4375,480.2181 4680.75,481.2963 Q4680.0625,482.3588 4680.0625,484.4525 Q4680.0625,486.5463 4680.75,487.6244 Q4681.4375,488.6869 4682.7813,488.6869 Q4683.4063,488.6869 4684,488.4213 Q4684.5938,488.14 4685.2188,487.5619 L4685.2188,490.2806 Z " fill="#000000"/><text fill="#000000" font-family="sans-serif" font-size="14" lengthAdjust="spacing" textLength="95" x="4702.75" y="489.4867">AccountEntity</text><line style="stroke:#181818;stroke-width:0.5;" x1="4563" x2="4905" y1="500.64" y2="500.64"/><text fill="#000000" font-family="sans-serif" font-size="14" lengthAdjust="spacing" textLength="97" x="4568" y="517.6351">-userId: String</text><text fill="#000000" font-family="sans-serif" font-size="14" lengthAdjust="spacing" textLength="121" x="4568" y="533.932">-password: String</text><text fill="#000000" font-family="sans-serif" font-size="14" lengthAdjust="spacing" textLength="135" x="4568" y="550.2289">-roles: Set&lt;String&gt;</text><line style="stroke:#181818;stroke-width:0.5;" x1="4563" x2="4905" y1="557.5306" y2="557.5306"/><text fill="#000000" font-family="sans-serif" font-size="14" lengthAdjust="spacing" text-decoration="underline" textLength="332" x="4568" y="574.5257">+fromDomain(account: Account): AccountEntity</text><text fill="#000000" font-family="sans-serif" font-size="14" lengthAdjust="spacing" textLength="155" x="4568" y="590.8226">+toDomain(): Account</text></g><!--class MemberEntity--><g id="elem_MemberEntity"><rect codeLine="113" fill="#F1F1F1" height="162.0781" id="MemberEntity" rx="2.5" ry="2.5" style="stroke:#181818;stroke-width:0.5;" width="346" x="4181" y="452.34"/><ellipse cx="4302.25" cy="468.34" fill="#ADD1B2" rx="11" ry="11" style="stroke:#181818;stroke-width:1.0;"/><path d="M4305.2188,473.9806 Q4304.6406,474.2775 4304,474.4181 Q4303.3594,474.5744 4302.6563,474.5744 Q4300.1563,474.5744 4298.8281,472.9338 Q4297.5156,471.2775 4297.5156,468.1525 Q4297.5156,465.0275 4298.8281,463.3713 Q4300.1563,461.715 4302.6563,461.715 Q4303.3594,461.715 4304,461.8713 Q4304.6563,462.0275 4305.2188,462.3244 L4305.2188,465.0431 Q4304.5938,464.465 4304,464.1994 Q4303.4063,463.9181 4302.7813,463.9181 Q4301.4375,463.9181 4300.75,464.9963 Q4300.0625,466.0588 4300.0625,468.1525 Q4300.0625,470.2463 4300.75,471.3244 Q4301.4375,472.3869 4302.7813,472.3869 Q4303.4063,472.3869 4304,472.1213 Q4304.5938,471.84 4305.2188,471.2619 L4305.2188,473.9806 Z " fill="#000000"/><text fill="#000000" font-family="sans-serif" font-size="14" lengthAdjust="spacing" textLength="95" x="4322.75" y="473.1867">MemberEntity</text><line style="stroke:#181818;stroke-width:0.5;" x1="4182" x2="4526" y1="484.34" y2="484.34"/><text fill="#000000" font-family="sans-serif" font-size="14" lengthAdjust="spacing" textLength="97" x="4187" y="501.3351">-userId: String</text><text fill="#000000" font-family="sans-serif" font-size="14" lengthAdjust="spacing" textLength="125" x="4187" y="517.632">-userName: String</text><text fill="#000000" font-family="sans-serif" font-size="14" lengthAdjust="spacing" textLength="128" x="4187" y="533.9289">-bankName: String</text><text fill="#000000" font-family="sans-serif" font-size="14" lengthAdjust="spacing" textLength="145" x="4187" y="550.2257">-bankAccount: String</text><text fill="#000000" font-family="sans-serif" font-size="14" lengthAdjust="spacing" textLength="108" x="4187" y="566.5226">-characterId: int</text><line style="stroke:#181818;stroke-width:0.5;" x1="4182" x2="4526" y1="573.8244" y2="573.8244"/><text fill="#000000" font-family="sans-serif" font-size="14" lengthAdjust="spacing" text-decoration="underline" textLength="334" x="4187" y="590.8195">+fromDomain(member: Member): MemberEntity</text><text fill="#000000" font-family="sans-serif" font-size="14" lengthAdjust="spacing" textLength="155" x="4187" y="607.1164">+toDomain(): Member</text></g><!--class InfraException--><g id="elem_InfraException"><rect codeLine="126" fill="#F1F1F1" height="48" id="InfraException" rx="2.5" ry="2.5" style="stroke:#181818;stroke-width:0.5;" width="129" x="4986.5" y="509.38"/><ellipse cx="5001.5" cy="525.38" fill="#ADD1B2" rx="11" ry="11" style="stroke:#181818;stroke-width:1.0;"/><path d="M5004.4688,531.0206 Q5003.8906,531.3175 5003.25,531.4581 Q5002.6094,531.6144 5001.9063,531.6144 Q4999.4063,531.6144 4998.0781,529.9738 Q4996.7656,528.3175 4996.7656,525.1925 Q4996.7656,522.0675 4998.0781,520.4113 Q4999.4063,518.755 5001.9063,518.755 Q5002.6094,518.755 5003.25,518.9113 Q5003.9063,519.0675 5004.4688,519.3644 L5004.4688,522.0831 Q5003.8438,521.505 5003.25,521.2394 Q5002.6563,520.9581 5002.0313,520.9581 Q5000.6875,520.9581 5000,522.0363 Q4999.3125,523.0988 4999.3125,525.1925 Q4999.3125,527.2863 5000,528.3644 Q5000.6875,529.4269 5002.0313,529.4269 Q5002.6563,529.4269 5003.25,529.1613 Q5003.8438,528.88 5004.4688,528.3019 L5004.4688,531.0206 Z " fill="#000000"/><text fill="#000000" font-family="sans-serif" font-size="14" lengthAdjust="spacing" textLength="97" x="5015.5" y="530.2267">InfraException</text><line style="stroke:#181818;stroke-width:0.5;" x1="4987.5" x2="5114.5" y1="541.38" y2="541.38"/><line style="stroke:#181818;stroke-width:0.5;" x1="4987.5" x2="5114.5" y1="549.38" y2="549.38"/></g><!--class SecurityConfig--><g id="elem_SecurityConfig"><rect codeLine="132" fill="#F1F1F1" height="48" id="SecurityConfig" rx="2.5" ry="2.5" style="stroke:#181818;stroke-width:0.5;" width="131" x="5195.5" y="509.38"/><ellipse cx="5210.5" cy="525.38" fill="#ADD1B2" rx="11" ry="11" style="stroke:#181818;stroke-width:1.0;"/><path d="M5213.4688,531.0206 Q5212.8906,531.3175 5212.25,531.4581 Q5211.6094,531.6144 5210.9063,531.6144 Q5208.4063,531.6144 5207.0781,529.9738 Q5205.7656,528.3175 5205.7656,525.1925 Q5205.7656,522.0675 5207.0781,520.4113 Q5208.4063,518.755 5210.9063,518.755 Q5211.6094,518.755 5212.25,518.9113 Q5212.9063,519.0675 5213.4688,519.3644 L5213.4688,522.0831 Q5212.8438,521.505 5212.25,521.2394 Q5211.6563,520.9581 5211.0313,520.9581 Q5209.6875,520.9581 5209,522.0363 Q5208.3125,523.0988 5208.3125,525.1925 Q5208.3125,527.2863 5209,528.3644 Q5209.6875,529.4269 5211.0313,529.4269 Q5211.6563,529.4269 5212.25,529.1613 Q5212.8438,528.88 5213.4688,528.3019 L5213.4688,531.0206 Z " fill="#000000"/><text fill="#000000" font-family="sans-serif" font-size="14" lengthAdjust="spacing" textLength="99" x="5224.5" y="530.2267">SecurityConfig</text><line style="stroke:#181818;stroke-width:0.5;" x1="5196.5" x2="5325.5" y1="541.38" y2="541.38"/><line style="stroke:#181818;stroke-width:0.5;" x1="5196.5" x2="5325.5" y1="549.38" y2="549.38"/></g><!--class WebConfig--><g id="elem_WebConfig"><rect codeLine="133" fill="#F1F1F1" height="48" id="WebConfig" rx="2.5" ry="2.5" style="stroke:#181818;stroke-width:0.5;" width="107" x="5361.5" y="509.38"/><ellipse cx="5376.5" cy="525.38" fill="#ADD1B2" rx="11" ry="11" style="stroke:#181818;stroke-width:1.0;"/><path d="M5379.4688,531.0206 Q5378.8906,531.3175 5378.25,531.4581 Q5377.6094,531.6144 5376.9063,531.6144 Q5374.4063,531.6144 5373.0781,529.9738 Q5371.7656,528.3175 5371.7656,525.1925 Q5371.7656,522.0675 5373.0781,520.4113 Q5374.4063,518.755 5376.9063,518.755 Q5377.6094,518.755 5378.25,518.9113 Q5378.9063,519.0675 5379.4688,519.3644 L5379.4688,522.0831 Q5378.8438,521.505 5378.25,521.2394 Q5377.6563,520.9581 5377.0313,520.9581 Q5375.6875,520.9581 5375,522.0363 Q5374.3125,523.0988 5374.3125,525.1925 Q5374.3125,527.2863 5375,528.3644 Q5375.6875,529.4269 5377.0313,529.4269 Q5377.6563,529.4269 5378.25,529.1613 Q5378.8438,528.88 5379.4688,528.3019 L5379.4688,531.0206 Z " fill="#000000"/><text fill="#000000" font-family="sans-serif" font-size="14" lengthAdjust="spacing" textLength="75" x="5390.5" y="530.2267">WebConfig</text><line style="stroke:#181818;stroke-width:0.5;" x1="5362.5" x2="5467.5" y1="541.38" y2="541.38"/><line style="stroke:#181818;stroke-width:0.5;" x1="5362.5" x2="5467.5" y1="549.38" y2="549.38"/></g><!--class LoggingAspect--><g id="elem_LoggingAspect"><rect codeLine="134" fill="#F1F1F1" height="48" id="LoggingAspect" rx="2.5" ry="2.5" style="stroke:#181818;stroke-width:0.5;" width="135" x="5503.5" y="509.38"/><ellipse cx="5518.5" cy="525.38" fill="#ADD1B2" rx="11" ry="11" style="stroke:#181818;stroke-width:1.0;"/><path d="M5521.4688,531.0206 Q5520.8906,531.3175 5520.25,531.4581 Q5519.6094,531.6144 5518.9063,531.6144 Q5516.4063,531.6144 5515.0781,529.9738 Q5513.7656,528.3175 5513.7656,525.1925 Q5513.7656,522.0675 5515.0781,520.4113 Q5516.4063,518.755 5518.9063,518.755 Q5519.6094,518.755 5520.25,518.9113 Q5520.9063,519.0675 5521.4688,519.3644 L5521.4688,522.0831 Q5520.8438,521.505 5520.25,521.2394 Q5519.6563,520.9581 5519.0313,520.9581 Q5517.6875,520.9581 5517,522.0363 Q5516.3125,523.0988 5516.3125,525.1925 Q5516.3125,527.2863 5517,528.3644 Q5517.6875,529.4269 5519.0313,529.4269 Q5519.6563,529.4269 5520.25,529.1613 Q5520.8438,528.88 5521.4688,528.3019 L5521.4688,531.0206 Z " fill="#000000"/><text fill="#000000" font-family="sans-serif" font-size="14" lengthAdjust="spacing" textLength="103" x="5532.5" y="530.2267">LoggingAspect</text><line style="stroke:#181818;stroke-width:0.5;" x1="5504.5" x2="5637.5" y1="541.38" y2="541.38"/><line style="stroke:#181818;stroke-width:0.5;" x1="5504.5" x2="5637.5" y1="549.38" y2="549.38"/></g><!--class SpringDocConfig--><g id="elem_SpringDocConfig"><rect codeLine="135" fill="#F1F1F1" height="48" id="SpringDocConfig" rx="2.5" ry="2.5" style="stroke:#181818;stroke-width:0.5;" width="148" x="5196" y="723.31"/><ellipse cx="5211" cy="739.31" fill="#ADD1B2" rx="11" ry="11" style="stroke:#181818;stroke-width:1.0;"/><path d="M5213.9688,744.9506 Q5213.3906,745.2475 5212.75,745.3881 Q5212.1094,745.5444 5211.4063,745.5444 Q5208.9063,745.5444 5207.5781,743.9038 Q5206.2656,742.2475 5206.2656,739.1225 Q5206.2656,735.9975 5207.5781,734.3413 Q5208.9063,732.685 5211.4063,732.685 Q5212.1094,732.685 5212.75,732.8413 Q5213.4063,732.9975 5213.9688,733.2944 L5213.9688,736.0131 Q5213.3438,735.435 5212.75,735.1694 Q5212.1563,734.8881 5211.5313,734.8881 Q5210.1875,734.8881 5209.5,735.9663 Q5208.8125,737.0288 5208.8125,739.1225 Q5208.8125,741.2163 5209.5,742.2944 Q5210.1875,743.3569 5211.5313,743.3569 Q5212.1563,743.3569 5212.75,743.0913 Q5213.3438,742.81 5213.9688,742.2319 L5213.9688,744.9506 Z " fill="#000000"/><text fill="#000000" font-family="sans-serif" font-size="14" lengthAdjust="spacing" textLength="116" x="5225" y="744.1567">SpringDocConfig</text><line style="stroke:#181818;stroke-width:0.5;" x1="5197" x2="5343" y1="755.31" y2="755.31"/><line style="stroke:#181818;stroke-width:0.5;" x1="5197" x2="5343" y1="763.31" y2="763.31"/></g><!--class JwtAuthenticationFilter--><g id="elem_JwtAuthenticationFilter"><rect codeLine="136" fill="#F1F1F1" height="48" id="JwtAuthenticationFilter" rx="2.5" ry="2.5" style="stroke:#181818;stroke-width:0.5;" width="184" x="5379" y="723.31"/><ellipse cx="5394" cy="739.31" fill="#ADD1B2" rx="11" ry="11" style="stroke:#181818;stroke-width:1.0;"/><path d="M5396.9688,744.9506 Q5396.3906,745.2475 5395.75,745.3881 Q5395.1094,745.5444 5394.4063,745.5444 Q5391.9063,745.5444 5390.5781,743.9038 Q5389.2656,742.2475 5389.2656,739.1225 Q5389.2656,735.9975 5390.5781,734.3413 Q5391.9063,732.685 5394.4063,732.685 Q5395.1094,732.685 5395.75,732.8413 Q5396.4063,732.9975 5396.9688,733.2944 L5396.9688,736.0131 Q5396.3438,735.435 5395.75,735.1694 Q5395.1563,734.8881 5394.5313,734.8881 Q5393.1875,734.8881 5392.5,735.9663 Q5391.8125,737.0288 5391.8125,739.1225 Q5391.8125,741.2163 5392.5,742.2944 Q5393.1875,743.3569 5394.5313,743.3569 Q5395.1563,743.3569 5395.75,743.0913 Q5396.3438,742.81 5396.9688,742.2319 L5396.9688,744.9506 Z " fill="#000000"/><text fill="#000000" font-family="sans-serif" font-size="14" lengthAdjust="spacing" textLength="152" x="5408" y="744.1567">JwtAuthenticationFilter</text><line style="stroke:#181818;stroke-width:0.5;" x1="5380" x2="5562" y1="755.31" y2="755.31"/><line style="stroke:#181818;stroke-width:0.5;" x1="5380" x2="5562" y1="763.31" y2="763.31"/></g><!--class JwtTokenProvider--><g id="elem_JwtTokenProvider"><rect codeLine="140" fill="#F1F1F1" height="48" id="JwtTokenProvider" rx="2.5" ry="2.5" style="stroke:#181818;stroke-width:0.5;" width="151" x="5694.5" y="509.38"/><ellipse cx="5709.5" cy="525.38" fill="#ADD1B2" rx="11" ry="11" style="stroke:#181818;stroke-width:1.0;"/><path d="M5712.4688,531.0206 Q5711.8906,531.3175 5711.25,531.4581 Q5710.6094,531.6144 5709.9063,531.6144 Q5707.4063,531.6144 5706.0781,529.9738 Q5704.7656,528.3175 5704.7656,525.1925 Q5704.7656,522.0675 5706.0781,520.4113 Q5707.4063,518.755 5709.9063,518.755 Q5710.6094,518.755 5711.25,518.9113 Q5711.9063,519.0675 5712.4688,519.3644 L5712.4688,522.0831 Q5711.8438,521.505 5711.25,521.2394 Q5710.6563,520.9581 5710.0313,520.9581 Q5708.6875,520.9581 5708,522.0363 Q5707.3125,523.0988 5707.3125,525.1925 Q5707.3125,527.2863 5708,528.3644 Q5708.6875,529.4269 5710.0313,529.4269 Q5710.6563,529.4269 5711.25,529.1613 Q5711.8438,528.88 5712.4688,528.3019 L5712.4688,531.0206 Z " fill="#000000"/><text fill="#000000" font-family="sans-serif" font-size="14" lengthAdjust="spacing" textLength="119" x="5723.5" y="530.2267">JwtTokenProvider</text><line style="stroke:#181818;stroke-width:0.5;" x1="5695.5" x2="5844.5" y1="541.38" y2="541.38"/><line style="stroke:#181818;stroke-width:0.5;" x1="5695.5" x2="5844.5" y1="549.38" y2="549.38"/></g><!--class CustomUserDetailsService--><g id="elem_CustomUserDetailsService"><rect codeLine="141" fill="#F1F1F1" height="48" id="CustomUserDetailsService" rx="2.5" ry="2.5" style="stroke:#181818;stroke-width:0.5;" width="215" x="5880.5" y="509.38"/><ellipse cx="5895.5" cy="525.38" fill="#ADD1B2" rx="11" ry="11" style="stroke:#181818;stroke-width:1.0;"/><path d="M5898.4688,531.0206 Q5897.8906,531.3175 5897.25,531.4581 Q5896.6094,531.6144 5895.9063,531.6144 Q5893.4063,531.6144 5892.0781,529.9738 Q5890.7656,528.3175 5890.7656,525.1925 Q5890.7656,522.0675 5892.0781,520.4113 Q5893.4063,518.755 5895.9063,518.755 Q5896.6094,518.755 5897.25,518.9113 Q5897.9063,519.0675 5898.4688,519.3644 L5898.4688,522.0831 Q5897.8438,521.505 5897.25,521.2394 Q5896.6563,520.9581 5896.0313,520.9581 Q5894.6875,520.9581 5894,522.0363 Q5893.3125,523.0988 5893.3125,525.1925 Q5893.3125,527.2863 5894,528.3644 Q5894.6875,529.4269 5896.0313,529.4269 Q5896.6563,529.4269 5897.25,529.1613 Q5897.8438,528.88 5898.4688,528.3019 L5898.4688,531.0206 Z " fill="#000000"/><text fill="#000000" font-family="sans-serif" font-size="14" lengthAdjust="spacing" textLength="183" x="5909.5" y="530.2267">CustomUserDetailsService</text><line style="stroke:#181818;stroke-width:0.5;" x1="5881.5" x2="6094.5" y1="541.38" y2="541.38"/><line style="stroke:#181818;stroke-width:0.5;" x1="5881.5" x2="6094.5" y1="549.38" y2="549.38"/></g><!--class MemberInfoDTO--><g id="elem_MemberInfoDTO"><rect codeLine="145" fill="#F1F1F1" height="48" id="MemberInfoDTO" rx="2.5" ry="2.5" style="stroke:#181818;stroke-width:0.5;" width="145" x="6168.5" y="509.38"/><ellipse cx="6183.5" cy="525.38" fill="#ADD1B2" rx="11" ry="11" style="stroke:#181818;stroke-width:1.0;"/><path d="M6186.4688,531.0206 Q6185.8906,531.3175 6185.25,531.4581 Q6184.6094,531.6144 6183.9063,531.6144 Q6181.4063,531.6144 6180.0781,529.9738 Q6178.7656,528.3175 6178.7656,525.1925 Q6178.7656,522.0675 6180.0781,520.4113 Q6181.4063,518.755 6183.9063,518.755 Q6184.6094,518.755 6185.25,518.9113 Q6185.9063,519.0675 6186.4688,519.3644 L6186.4688,522.0831 Q6185.8438,521.505 6185.25,521.2394 Q6184.6563,520.9581 6184.0313,520.9581 Q6182.6875,520.9581 6182,522.0363 Q6181.3125,523.0988 6181.3125,525.1925 Q6181.3125,527.2863 6182,528.3644 Q6182.6875,529.4269 6184.0313,529.4269 Q6184.6563,529.4269 6185.25,529.1613 Q6185.8438,528.88 6186.4688,528.3019 L6186.4688,531.0206 Z " fill="#000000"/><text fill="#000000" font-family="sans-serif" font-size="14" lengthAdjust="spacing" textLength="113" x="6197.5" y="530.2267">MemberInfoDTO</text><line style="stroke:#181818;stroke-width:0.5;" x1="6169.5" x2="6312.5" y1="541.38" y2="541.38"/><line style="stroke:#181818;stroke-width:0.5;" x1="6169.5" x2="6312.5" y1="549.38" y2="549.38"/></g><!--class JwtTokenVarifyDTO--><g id="elem_JwtTokenVarifyDTO"><rect codeLine="146" fill="#F1F1F1" height="48" id="JwtTokenVarifyDTO" rx="2.5" ry="2.5" style="stroke:#181818;stroke-width:0.5;" width="162" x="6349" y="509.38"/><ellipse cx="6364" cy="525.38" fill="#ADD1B2" rx="11" ry="11" style="stroke:#181818;stroke-width:1.0;"/><path d="M6366.9688,531.0206 Q6366.3906,531.3175 6365.75,531.4581 Q6365.1094,531.6144 6364.4063,531.6144 Q6361.9063,531.6144 6360.5781,529.9738 Q6359.2656,528.3175 6359.2656,525.1925 Q6359.2656,522.0675 6360.5781,520.4113 Q6361.9063,518.755 6364.4063,518.755 Q6365.1094,518.755 6365.75,518.9113 Q6366.4063,519.0675 6366.9688,519.3644 L6366.9688,522.0831 Q6366.3438,521.505 6365.75,521.2394 Q6365.1563,520.9581 6364.5313,520.9581 Q6363.1875,520.9581 6362.5,522.0363 Q6361.8125,523.0988 6361.8125,525.1925 Q6361.8125,527.2863 6362.5,528.3644 Q6363.1875,529.4269 6364.5313,529.4269 Q6365.1563,529.4269 6365.75,529.1613 Q6366.3438,528.88 6366.9688,528.3019 L6366.9688,531.0206 Z " fill="#000000"/><text fill="#000000" font-family="sans-serif" font-size="14" lengthAdjust="spacing" textLength="130" x="6378" y="530.2267">JwtTokenVarifyDTO</text><line style="stroke:#181818;stroke-width:0.5;" x1="6350" x2="6510" y1="541.38" y2="541.38"/><line style="stroke:#181818;stroke-width:0.5;" x1="6350" x2="6510" y1="549.38" y2="549.38"/></g><!--class JwtTokenDTO--><g id="elem_JwtTokenDTO"><rect codeLine="147" fill="#F1F1F1" height="48" id="JwtTokenDTO" rx="2.5" ry="2.5" style="stroke:#181818;stroke-width:0.5;" width="126" x="6546" y="509.38"/><ellipse cx="6561" cy="525.38" fill="#ADD1B2" rx="11" ry="11" style="stroke:#181818;stroke-width:1.0;"/><path d="M6563.9688,531.0206 Q6563.3906,531.3175 6562.75,531.4581 Q6562.1094,531.6144 6561.4063,531.6144 Q6558.9063,531.6144 6557.5781,529.9738 Q6556.2656,528.3175 6556.2656,525.1925 Q6556.2656,522.0675 6557.5781,520.4113 Q6558.9063,518.755 6561.4063,518.755 Q6562.1094,518.755 6562.75,518.9113 Q6563.4063,519.0675 6563.9688,519.3644 L6563.9688,522.0831 Q6563.3438,521.505 6562.75,521.2394 Q6562.1563,520.9581 6561.5313,520.9581 Q6560.1875,520.9581 6559.5,522.0363 Q6558.8125,523.0988 6558.8125,525.1925 Q6558.8125,527.2863 6559.5,528.3644 Q6560.1875,529.4269 6561.5313,529.4269 Q6562.1563,529.4269 6562.75,529.1613 Q6563.3438,528.88 6563.9688,528.3019 L6563.9688,531.0206 Z " fill="#000000"/><text fill="#000000" font-family="sans-serif" font-size="14" lengthAdjust="spacing" textLength="94" x="6575" y="530.2267">JwtTokenDTO</text><line style="stroke:#181818;stroke-width:0.5;" x1="6547" x2="6671" y1="541.38" y2="541.38"/><line style="stroke:#181818;stroke-width:0.5;" x1="6547" x2="6671" y1="549.38" y2="549.38"/></g><!--class JwtTokenRefreshDTO--><g id="elem_JwtTokenRefreshDTO"><rect codeLine="148" fill="#F1F1F1" height="48" id="JwtTokenRefreshDTO" rx="2.5" ry="2.5" style="stroke:#181818;stroke-width:0.5;" width="180" x="6151" y="723.31"/><ellipse cx="6166" cy="739.31" fill="#ADD1B2" rx="11" ry="11" style="stroke:#181818;stroke-width:1.0;"/><path d="M6168.9688,744.9506 Q6168.3906,745.2475 6167.75,745.3881 Q6167.1094,745.5444 6166.4063,745.5444 Q6163.9063,745.5444 6162.5781,743.9038 Q6161.2656,742.2475 6161.2656,739.1225 Q6161.2656,735.9975 6162.5781,734.3413 Q6163.9063,732.685 6166.4063,732.685 Q6167.1094,732.685 6167.75,732.8413 Q6168.4063,732.9975 6168.9688,733.2944 L6168.9688,736.0131 Q6168.3438,735.435 6167.75,735.1694 Q6167.1563,734.8881 6166.5313,734.8881 Q6165.1875,734.8881 6164.5,735.9663 Q6163.8125,737.0288 6163.8125,739.1225 Q6163.8125,741.2163 6164.5,742.2944 Q6165.1875,743.3569 6166.5313,743.3569 Q6167.1563,743.3569 6167.75,743.0913 Q6168.3438,742.81 6168.9688,742.2319 L6168.9688,744.9506 Z " fill="#000000"/><text fill="#000000" font-family="sans-serif" font-size="14" lengthAdjust="spacing" textLength="148" x="6180" y="744.1567">JwtTokenRefreshDTO</text><line style="stroke:#181818;stroke-width:0.5;" x1="6152" x2="6330" y1="755.31" y2="755.31"/><line style="stroke:#181818;stroke-width:0.5;" x1="6152" x2="6330" y1="763.31" y2="763.31"/></g><!--class LoginRequestDTO--><g id="elem_LoginRequestDTO"><rect codeLine="149" fill="#F1F1F1" height="48" id="LoginRequestDTO" rx="2.5" ry="2.5" style="stroke:#181818;stroke-width:0.5;" width="159" x="6365.5" y="723.31"/><ellipse cx="6380.5" cy="739.31" fill="#ADD1B2" rx="11" ry="11" style="stroke:#181818;stroke-width:1.0;"/><path d="M6383.4688,744.9506 Q6382.8906,745.2475 6382.25,745.3881 Q6381.6094,745.5444 6380.9063,745.5444 Q6378.4063,745.5444 6377.0781,743.9038 Q6375.7656,742.2475 6375.7656,739.1225 Q6375.7656,735.9975 6377.0781,734.3413 Q6378.4063,732.685 6380.9063,732.685 Q6381.6094,732.685 6382.25,732.8413 Q6382.9063,732.9975 6383.4688,733.2944 L6383.4688,736.0131 Q6382.8438,735.435 6382.25,735.1694 Q6381.6563,734.8881 6381.0313,734.8881 Q6379.6875,734.8881 6379,735.9663 Q6378.3125,737.0288 6378.3125,739.1225 Q6378.3125,741.2163 6379,742.2944 Q6379.6875,743.3569 6381.0313,743.3569 Q6381.6563,743.3569 6382.25,743.0913 Q6382.8438,742.81 6383.4688,742.2319 L6383.4688,744.9506 Z " fill="#000000"/><text fill="#000000" font-family="sans-serif" font-size="14" lengthAdjust="spacing" textLength="127" x="6394.5" y="744.1567">LoginRequestDTO</text><line style="stroke:#181818;stroke-width:0.5;" x1="6366.5" x2="6523.5" y1="755.31" y2="755.31"/><line style="stroke:#181818;stroke-width:0.5;" x1="6366.5" x2="6523.5" y1="763.31" y2="763.31"/></g><!--class SignupRequestDTO--><g id="elem_SignupRequestDTO"><rect codeLine="150" fill="#F1F1F1" height="48" id="SignupRequestDTO" rx="2.5" ry="2.5" style="stroke:#181818;stroke-width:0.5;" width="170" x="6559" y="723.31"/><ellipse cx="6574" cy="739.31" fill="#ADD1B2" rx="11" ry="11" style="stroke:#181818;stroke-width:1.0;"/><path d="M6576.9688,744.9506 Q6576.3906,745.2475 6575.75,745.3881 Q6575.1094,745.5444 6574.4063,745.5444 Q6571.9063,745.5444 6570.5781,743.9038 Q6569.2656,742.2475 6569.2656,739.1225 Q6569.2656,735.9975 6570.5781,734.3413 Q6571.9063,732.685 6574.4063,732.685 Q6575.1094,732.685 6575.75,732.8413 Q6576.4063,732.9975 6576.9688,733.2944 L6576.9688,736.0131 Q6576.3438,735.435 6575.75,735.1694 Q6575.1563,734.8881 6574.5313,734.8881 Q6573.1875,734.8881 6572.5,735.9663 Q6571.8125,737.0288 6571.8125,739.1225 Q6571.8125,741.2163 6572.5,742.2944 Q6573.1875,743.3569 6574.5313,743.3569 Q6575.1563,743.3569 6575.75,743.0913 Q6576.3438,742.81 6576.9688,742.2319 L6576.9688,744.9506 Z " fill="#000000"/><text fill="#000000" font-family="sans-serif" font-size="14" lengthAdjust="spacing" textLength="138" x="6588" y="744.1567">SignupRequestDTO</text><line style="stroke:#181818;stroke-width:0.5;" x1="6560" x2="6728" y1="755.31" y2="755.31"/><line style="stroke:#181818;stroke-width:0.5;" x1="6560" x2="6728" y1="763.31" y2="763.31"/></g><!--link AuthServiceImpl to IAuthProvider--><g id="link_AuthServiceImpl_IAuthProvider"><path codeLine="156" d="M286.38,267.32 C288.15,329.13 291.0476,429.5525 292.6976,486.9425 " fill="none" id="AuthServiceImpl-to-IAuthProvider" style="stroke:#181818;stroke-width:1.0;stroke-dasharray:7.0,7.0;"/><polygon fill="#181818" points="292.87,492.94,296.6097,483.8288,292.7263,487.9421,288.613,484.0587,292.87,492.94" style="stroke:#181818;stroke-width:1.0;"/></g><!--link AuthController to IAuthService--><g id="link_AuthController_IAuthService"><path codeLine="158" d="M1710.13,476.29 C1495.71,438.94 1218.85,384.11 978,315.34 C931.5,302.06 887.0547,286.2579 843.7247,269.4679 " fill="none" id="AuthController-to-IAuthService" style="stroke:#181818;stroke-width:1.0;stroke-dasharray:7.0,7.0;"/><polygon fill="#181818" points="838.13,267.3,845.0767,274.2816,842.7922,269.1066,847.9673,266.822,838.13,267.3" style="stroke:#181818;stroke-width:1.0;"/></g><!--link AuthController to AuthControllerHelper--><g id="link_AuthController_AuthControllerHelper"><path codeLine="159" d="M2068,590.34 C2068,615.97 2068,640.66 2068,668.02 " fill="none" id="AuthController-to-AuthControllerHelper" style="stroke:#181818;stroke-width:1.0;stroke-dasharray:7.0,7.0;"/><polygon fill="#181818" points="2068,674.02,2072,665.02,2068,669.02,2064,665.02,2068,674.02" style="stroke:#181818;stroke-width:1.0;"/></g><!--link MemberController to MemberControllerHelper--><g id="link_MemberController_MemberControllerHelper"><path codeLine="160" d="M2818.99,573.75 C2826.69,611.69 2837.0769,662.9198 2844.7869,700.9198 " fill="none" id="MemberController-to-MemberControllerHelper" style="stroke:#181818;stroke-width:1.0;stroke-dasharray:7.0,7.0;"/><polygon fill="#181818" points="2845.98,706.8,2848.1105,697.1843,2844.9858,701.8998,2840.2703,698.7751,2845.98,706.8" style="stroke:#181818;stroke-width:1.0;"/></g><!--reverse link IAccountRepository to AuthProviderImpl--><g id="link_IAccountRepository_AuthProviderImpl"><path codeLine="162" d="M3878.9854,578.075 C3838.2554,615.935 3781.58,668.62 3740.8,706.53 " fill="none" id="IAccountRepository-backto-AuthProviderImpl" style="stroke:#181818;stroke-width:1.0;stroke-dasharray:7.0,7.0;"/><polygon fill="#181818" points="3883.38,573.99,3874.0647,577.1877,3879.7178,577.3942,3879.5114,583.0472,3883.38,573.99" style="stroke:#181818;stroke-width:1.0;"/></g><!--reverse link IMemberRepository to AuthProviderImpl--><g id="link_IMemberRepository_AuthProviderImpl"><path codeLine="163" d="M3517.0146,578.075 C3557.7446,615.935 3614.42,668.62 3655.2,706.53 " fill="none" id="IMemberRepository-backto-AuthProviderImpl" style="stroke:#181818;stroke-width:1.0;stroke-dasharray:7.0,7.0;"/><polygon fill="#181818" points="3512.62,573.99,3516.4886,583.0472,3516.2822,577.3942,3521.9353,577.1877,3512.62,573.99" style="stroke:#181818;stroke-width:1.0;"/></g><!--reverse link IMemberRepository to MemberControllerHelper--><g id="link_IMemberRepository_MemberControllerHelper"><path codeLine="165" d="M3355.5676,576.1005 C3295.9776,597.6505 3226.38,622.51 3159,645.68 C3099.15,666.25 3032.42,688.37 2976.67,706.61 " fill="none" id="IMemberRepository-backto-MemberControllerHelper" style="stroke:#181818;stroke-width:1.0;stroke-dasharray:7.0,7.0;"/><polygon fill="#181818" points="3361.21,574.06,3351.3861,573.3592,3356.508,575.7604,3354.1068,580.8823,3361.21,574.06" style="stroke:#181818;stroke-width:1.0;"/></g><!--reverse link Account to AccountEntity--><g id="link_Account_AccountEntity"><path codeLine="167" d="M1359.6862,271.5265 C1379.3762,290.2665 1400.04,305.47 1427,315.34 C1467.67,330.23 4505.44,305.72 4545,323.34 C4611.25,352.86 4664.16,418.29 4696.95,468.14 " fill="none" id="Account-backto-AccountEntity" style="stroke:#181818;stroke-width:1.0;stroke-dasharray:7.0,7.0;"/><polygon fill="#181818" points="1355.34,267.39,1359.1016,276.4922,1358.9618,270.8371,1364.617,270.6973,1355.34,267.39" style="stroke:#181818;stroke-width:1.0;"/></g><!--reverse link Member to MemberEntity--><g id="link_Member_MemberEntity"><path codeLine="168" d="M1181.4742,295.1199 C1195.7042,304.7799 1206.13,309.86 1222,315.34 C1260.32,328.57 4103.49,307.95 4141,323.34 C4204.75,349.5 4259.75,404.9 4297.89,452.1 " fill="none" id="Member-backto-MemberEntity" style="stroke:#181818;stroke-width:1.0;stroke-dasharray:7.0,7.0;"/><polygon fill="#181818" points="1176.51,291.75,1181.7097,300.1144,1180.6468,294.5583,1186.203,293.4954,1176.51,291.75" style="stroke:#181818;stroke-width:1.0;"/></g><!--SRC=[rLXBKzim4BxxLtWuXO4oFJCCCu70D0oK3b1wHP4tGOqjkPBCS_ZlbIqxyKDhAqDwQ0w9BQtsyUr3kr5BnbCYIHBIc2WrrbgoMQPXIWM_PMyGVWs2bD0bMK2OG3836Ru7eVbKYpFsLgxKLpC5b2YexTHtZKWXTMip_p2kGSu9XN0wplJZBSWdHi51c7_s55lmB1rPjGx3g-9tFoIKYephmt1i7tOFmoV18ZUFM2mO7nbrvJGw36-DzNonRnHLwbd8rSfknTtDv8d4B28QB8qH2qgrr38SPaB4G7Y7nKU0lpdX4vdsm- -754yiMhaCrJkd_Im6dtJ6nY0eD3QAG0vhyJDDqXY3O2l-tqOW_fiOMZzrKZGI2M6yXKk9dTNNWTcN9bBT_JPoNGffB51c6_IH9JdsTRrLxgfUXJRIBT__JXB0AMQ4BuSfnfLVCIBwQ2egrLORavCTYZrA-0oiao4Q8OxrSYEyK4Wr4svFdh2tCuIWpTr-1yqwFPV4KTrt7XX_s46A-pFCUfFoL71jOY36orAPJlRd1lvaeFJaxjhWtLenkDs0IWLNSCOrqwz7rQlPhABhk2_nY- -wYClcGh-4YsTz9vR0pJCcfahhqU-Izfv8DdyjP5sqb_gbJKrnNu3494cOIr2FAq4tzhqXQRts6SC-EYjUxlu6SOexdKemC1LIksMlfWzo-X7eqkQJPQ7pxrhvTcLXSPAf-zn59JBkmrZLBHWiG5izpwL8oiZnYzs-AyLmBSlCncpBSnxQkgr5rFBskZq_dEOhLQPyBbfNS7zuhe_rP9vX_rDPgajciBC2b9-4_4HRpF7s8EbFXG5W6cfvSAXPdp-Q6fSRLrR7tVArQUis-WlJfI8tX8HK33IlDeHl3A5YMiXN3Aevuz79Q-7dg8lKTN7laVYev6STZSGBl1WS5CxinAlrSWP1pJAByzOCi-nwxQfpcdBFGC0uRjocauYasXdgwokY6bFw-lJ_ULI10amSWdfm8lOFzRP-lRTF_xr2wLrfeXdz2EVcffWKmyB80L53UpSdBShZFPVJXgNqys0D3WD-0u7tKE0t6A38TrgYEWx3i7lTwLkODwRvnE0xSJZvKv4adPFhJJvd2pIJRe5cqk1nMf0XHBzWrhjl9W0p0Yp6AWMgCK5fxkE9eBsSJDUQbwiy_Id9yJXdiMvvmQDyc8OUjRXgZAiIYf2TPagB9By39g09YrNvpyYcgaHQeAhqjoLDTLSJpm3TCCLwei7TMH_eC8UsskY1IVaZ2Dh_BnqS73V_TBCajJPuHL61xzXtJKn1fw7EATqjfHNQk50FihGGt6wfKCfsYn84IFkAqZTlD4jM5Vv6_RPRTkal]--></g></svg>